<?xml version="1.0" standalone="no"?>
<!DOCTYPE svg PUBLIC "-//W3C//DTD SVG 1.1//EN" "http://www.w3.org/Graphics/SVG/1.1/DTD/svg11.dtd" >
<svg xmlns="http://www.w3.org/2000/svg" xmlns:xlink="http://www.w3.org/1999/xlink" version="1.1">
<metadata>
Created by FontForge 20170731 at Tue Nov 24 20:35:53 2020
 By Aleksey,,,
</metadata>
<defs>
<font id="WriteHandW01-Regular" horiz-adv-x="1116" >
  <font-face 
    font-family="WriteHandW01-Regular"
    font-weight="400"
    font-stretch="normal"
    units-per-em="2048"
    panose-1="2 0 0 0 0 0 0 0 0 0"
    ascent="1395"
    descent="-653"
    x-height="758"
    cap-height="1608"
    bbox="-813.431 -858 3185 2043.36"
    underline-thickness="102"
    underline-position="-511"
    unicode-range="U+0020-2122"
  />
<missing-glyph horiz-adv-x="0" 
 />
    <glyph glyph-name=".notdef" horiz-adv-x="0" 
 />
    <glyph glyph-name=".null" horiz-adv-x="0" 
 />
    <glyph glyph-name="nonmarkingreturn" horiz-adv-x="682" 
 />
    <glyph glyph-name="space" unicode=" " horiz-adv-x="778" 
 />
    <glyph glyph-name="exclam" unicode="!" horiz-adv-x="464" 
d="M92 225q40 6 64 -7q23 -13 34 -36q11 -24 11 -49t-8 -51q-7 -21 -35 -43q-27 -21 -57 -24q-28 -3 -55 19q-26 21 -30 87q0 31 13 57q12 20 26 29q17 11 37 18zM256 1446q19 54 55 73t72 11q34 -7 57 -43q22 -35 15 -90q-103 -233 -151 -464q-50 -237 -54 -484q0 21 1 32
q1 10 2 11q1 0 3 -3q6 -18 3 -38q-3 -21 -3 -41q-8 -56 -41 -80q-34 -25 -70 -22t-65 33q-29 31 -29 85q34 140 76 264q42 125 70 264q23 123 30 246q7 118 29 246z" />
    <glyph glyph-name="quotedbl" unicode="&#x22;" horiz-adv-x="495" 
d="M25 1071q-10 28 11 74q22 47 55 80q35 35 72 47q38 12 62 -21q11 -53 -3 -107q-12 -48 -17 -110q2 -30 -7 -68q-8 -38 -26 -78q-17 -39 -36 -68q-20 -30 -37 -36q-16 -5 -28 18q-12 24 -12 89q6 10 13 34q9 30 10 53q2 28 -6 52q-8 25 -33 31q-13 5 -18 10zM262 1065
q-13 32 8 75t56 78q33 33 73 47t64 -20q8 -58 -5 -108q-14 -54 -14 -109q2 -32 -8 -69q-11 -44 -26 -77q-18 -40 -36 -67q-20 -29 -37 -36t-29 17q-11 22 -11 89l10 34q8 28 11 53q3 27 -5 52t-34 31l-9 4q-3 1 -8 6z" />
    <glyph glyph-name="numbersign" unicode="#" horiz-adv-x="1193" 
d="M141 625q-45 2 -51 19q-6 18 10 52q19 42 52 63q34 22 77 29q121 2 231 -3t216 -9q107 -5 212 -3q119 2 220 15q20 -6 29.5 -14.5t8.5 -20.5q-2 -25 -22 -48q-26 -30 -52 -47q-28 -19 -56 -31q-92 0 -242 2t-217 2q-139 0 -207 -1q-139 -2 -209 -5zM469 979q5 52 18 86
q15 39 56 68q32 24 57 19q24 -5 29 -46q-6 -52 -17 -96q-17 -65 -21 -78q-16 -50 -25 -76q-12 -34 -25 -92l-32 -127q-12 -45 -24 -100q-6 -29 -17 -96q-8 -48 -15 -111q-5 -28 -9 -48q-3 -13 -7 -37t-5 -36q-2 -22 2 -47q-6 -30 -7 -34q-3 -12 -19 -34q-15 -24 -28 -41
q-21 -28 -38 -40q-22 -15 -39 -14q-19 2 -31 36q4 32 9 63q5 30 10 50q4 16 14 50q2 6 8.5 27t10.5 35q27 96 48 180t39 168q8 37 31 173q15 86 27 198zM774 999q5 49 19 86q16 41 53 68q32 23 59 19q27 -5 29 -46q-6 -52 -17 -96q-13 -49 -22 -78l-26 -76q-11 -34 -25 -92
l-32 -128q-15 -61 -23 -101q-11 -57 -17 -94q-11 -66 -16 -111l-8 -48q-7 -29 -8 -37q-2 -12 -4 -36q-1 -11 1 -47q-5 -30 -8 -35q-1 -2 -3 -6.5t-5 -12t-6 -13.5q-12 -19 -30 -41q-22 -27 -40 -40q-23 -16 -39 -15q-17 1 -28 36q7 57 8 64q5 30 10 50q2 9 14 49q1 5 8 26.5
t11 36.5q7 29 23 88.5t23 89.5q22 87 39 169q13 61 32 174q18 105 28 197zM102 379q-44 0 -52 18q-8 19 9 54q18 40 52 62q36 23 79 30q120 2 228 -3q37 -2 108.5 -5.5t106.5 -4.5q106 -4 214 -3q112 2 222 16q20 -5 30.5 -13.5t9.5 -19.5q-1 -22 -23 -48q-20 -24 -54 -49
q-35 -25 -55 -32q-85 3 -247 5q-76 1 -218 1q-71 0 -205 -2q-100 -1 -205 -6z" />
    <glyph glyph-name="dollar" unicode="$" horiz-adv-x="1519" 
d="M33 86q1 25 17 44q15 18 38 27q24 10 47 11q26 2 47 -4l66 -19q11 -3 118 -20q86 -14 218 -25q111 -9 265 -11q140 -1 257 15q114 16 193 58q77 41 77 117q0 29 -15 64q-15 36 -39 65q-29 36 -50 56q-28 26 -47 40l-62 41h-80q-77 0 -152 -15q-70 -14 -151 -14h-40
q-30 0 -61 9t-56 29t-25 60q0 14 9 21q10 8 36 8q38 -14 91 -22q64 -10 104 -12q35 -2 105 -4q35 -1 99 -1h19q-72 37 -166 80q-74 -8 -110 -13q-50 -7 -107 -7q-6 0 -46 2q-31 2 -58 12t-48 30q-20 19 -20 54q0 12 9 20q11 9 36 9q38 -13 75 -20q30 -5 83 -11
q-55 19 -70 25q-56 22 -70 28q-52 20 -123 37q-64 16 -127 44q-57 26 -100 72q-41 44 -41 117q0 45 24 81q25 37 58 63q32 25 78 44q36 15 80 29l219 66q178 41 305 72q17 4 36 8.5t42 10t36 8.5q88 21 102 24q12 3 39 8.5t38 8.5q9 2 17 4.5t13.5 4t6.5 1.5q8 2 18 2
q16 0 26 -1q12 -1 29 -5q13 -3 23 -10t10 -19t-5 -50q-4 -33 -18 -68q-13 -33 -36 -59t-55 -26q-26 0 -66 15q-43 16 -98 16q-79 0 -188 -19q-77 -13 -189 -35q-23 -5 -77 -22q-44 -14 -115 -43q-52 -21 -103 -52q-45 -27 -45 -48q0 -17 20 -33q23 -18 51 -32
q10 -5 30 -15.5t30 -15.5q34 -17 49 -27q22 -10 104.5 -49t128.5 -60q120 -56 222 -102q66 7 115 16q54 10 112 10q75 0 122 -27q46 -27 46 -75q0 -25 -33 -25q-12 0 -22 2q-46 15 -92 21q-45 6 -105 6l64 -33l32 -22q39 6 80 6q74 0 122 -28q46 -27 46 -74q0 -25 -32 -25
q-13 0 -23 2l-47 12q60 -56 100 -117q39 -60 39 -133q-17 -59 -37 -99q-22 -43 -48 -74q-28 -32 -64 -54q-39 -23 -86 -39q-182 -52 -389 -98q-193 -43 -394 -43q-100 0 -189 16q-95 17 -190 43q-61 16 -88 43q-26 26 -26 86q0 17 2 31zM399 4q15 -10 36 -15q28 -6 44 -7
q22 -1 63 -2.5t58 -1.5q53 -1 121 10l-8 8q-2 0 -29 3q-40 4 -57 7q-70 8 -82 10z" />
    <glyph glyph-name="percent" unicode="%" horiz-adv-x="1175" 
d="M756 997l-41 -96q-4 -8 -8 -18t-9.5 -23t-9.5 -21q-5 -12 -38 -96q-15 -38 -57 -159q-27 -77 -83 -254v2q-19 -71 -48 -155q-27 -78 -65 -163h-96q-25 22 -32 25q-12 6 -16 16q-5 12 -8 32q-1 7 -9 69q53 39 92 97q41 61 81 151t84 218q70 203 103 296l61 165
q46 124 72 190q33 85 49 167q10 22 41 22q30 0 57 -21t27 -67q0 -33 -14 -61zM248 1171q-22 -29 -43 -93q-21 -63 -21 -122q0 -34 12 -63t44 -29q55 0 101 22q44 21 74 53q29 31 45 70q15 37 15 68q0 43 -20 83q-23 46 -35 59q-28 18 -92 24v-10q0 -41 -15 -51
q-16 -11 -39 -11h-26zM356 1376q37 0 70 -17q38 -20 62 -41q35 -31 48 -46q18 -21 25 -33l6 -2q14 -29 24 -69q9 -38 9 -64q0 -38 -13 -67q-25 -55 -26 -58l-22 -39q-13 -22 -54 -77q-27 -37 -68 -71q-37 -31 -79 -53q-39 -20 -84 -20q-35 0 -67 12t-56 42t-39 77
q-14 43 -14 115q0 45 8 91q3 17 9 47.5t7 37.5l7 35q17 92 69 146t178 54zM750 467q-19 -37 -38 -102q-20 -69 -20 -127q0 -35 13 -61q11 -23 40 -23h15q50 11 87 32q34 19 69 52q32 30 47 62q16 33 16 69q0 35 -20 77q-23 48 -33 62q-6 10 -33 16q-32 7 -62 11v-3
q0 -4 2 -6q1 -1 1 -6q0 -65 -41 -65q-9 0 -15 2zM1073 524q18 -40 23 -72q6 -36 6 -77q0 -33 -17 -69q-20 -43 -30 -58l-19 -33h2q-18 -39 -46 -73q-32 -40 -67 -68q-39 -31 -81 -50q-45 -20 -84 -20q-36 0 -67 12q-32 12 -56 42t-39 77q-14 43 -14 115q0 64 11 109
q5 19 21 108q21 107 77 151q58 46 167 46q35 0 73 -19q33 -17 65 -42t51 -46q18 -20 24 -33z" />
    <glyph glyph-name="ampersand" unicode="&#x26;" horiz-adv-x="1249" 
d="M1069 614q41 33 78 33q53 0 53 -51q0 -19 -10 -42t-33 -46q-60 -42 -128 -99q-63 -53 -126 -102q26 -22 71 -54q47 -33 80 -60q34 -27 65 -60q28 -30 28 -47q0 -37 -34 -71q-33 -33 -79 -33q-18 0 -33 6q-49 40 -122 103t-127 114q-58 -36 -124 -69q-56 -28 -140 -62
q-66 -27 -140 -46q-69 -18 -127 -18q-73 0 -117 34q-45 34 -45 118q0 72 24 136q25 66 64 123q38 55 97 114q58 58 118 108q-9 11 -35 47q-24 33 -48 75q-27 48 -43 91q-19 52 -19 96q0 64 40 120t104 98q66 43 148 67q86 25 169 25q40 0 85 -10q41 -9 71 -27q29 -18 48 -47
q17 -27 17 -68q0 -78 -48 -136q-40 -49 -106 -120q-45 -48 -100 -93q-51 -41 -119 -93l13 -13q40 -43 127 -134q66 -69 135 -128zM322 971q16 -75 57 -132q52 -71 92 -114q57 45 117 90q51 39 108 90q52 47 80 88q31 45 31 84q0 37 -27 64q-26 26 -108 26q-54 0 -115 -12
t-114 -36q-55 -25 -88 -57q-36 -34 -36 -77q0 -5 3 -14zM336 141q87 21 167 60q74 35 156 92q-70 70 -129 136q-63 71 -120 144q-53 -46 -87 -80q-45 -45 -74 -85q-33 -45 -50 -87q-19 -46 -19 -90q0 -96 99 -96q27 0 57 6zM834 416l2 2l-13 -8q-8 -5 -20 -17l-2 -2z" />
    <glyph glyph-name="quotesingle" unicode="'" horiz-adv-x="282" 
d="M20 1188q-8 21 3 48q12 31 30 54q20 25 49 50q27 22 59 37q32 14 56 13q27 -2 45 -22q2 -33 -2 -55q-4 -25 -12 -53q-2 -6 -5 -17t-5.5 -20t-4.5 -17q-6 -27 -6 -55q0 -31 -14 -69q-15 -40 -37 -77q-23 -39 -47 -67q-24 -29 -44 -35t-32 17q-12 22 -6 88q5 6 16 33
q12 29 16 54q5 28 -3 52q-8 25 -39 31q-3 3 -6 5q-5 4 -11 5z" />
    <glyph glyph-name="parenleft" unicode="(" horiz-adv-x="774" 
d="M614 1507q32 -17 46 -39q17 -25 18 -45q2 -22 -19 -48q-27 -34 -54 -64q-13 -14 -40 -43t-38 -40q-44 -47 -89 -104q-109 -137 -167 -314q-59 -178 -44 -368q17 -261 127 -501q35 -77 43 -94q22 -45 43 -92q20 -44 34 -94q14 -48 18 -99q-24 -49 -72 -49q-50 5 -72 38
q-24 36 -31 84q-18 94 -43 181q-36 126 -55 190q-27 92 -51 193q-23 99 -29 188q-18 253 42 477q59 220 208 428q35 50 72 104q27 40 51 67q22 25 44 36q19 10 52 8h6z" />
    <glyph glyph-name="parenright" unicode=")" horiz-adv-x="774" 
d="M182 -483q-32 17 -46 39q-16 23 -17 45q-2 23 18 48q27 34 54 64q13 14 40 43t38 40q44 47 89 104q109 137 167 314q59 178 44 368q-17 261 -127 501q-35 77 -43 94q-22 45 -43 92q-15 33 -34 94q-16 50 -17 99q24 49 72 49q50 -5 72 -38q23 -35 30 -84q15 -88 42 -181
q10 -36 30.5 -103t26.5 -87q27 -92 51 -193q22 -93 28 -188q18 -253 -42 -477q-60 -222 -207 -428q-35 -50 -72 -104q-27 -40 -51 -67q-22 -25 -44 -36q-19 -10 -53 -8h-6z" />
    <glyph glyph-name="asterisk" unicode="*" horiz-adv-x="995" 
d="M623 1108q6 10 18 22q14 14 32 29t36 24t30 9q23 0 25 -27q2 -22 -12 -44q-16 -26 -41 -48q-33 -29 -60 -49q-5 -3 -29 -21.5t-38 -27.5q49 -26 94 -43q43 -16 59 -12q33 -12 39 -48q0 -34 -27 -74q-26 -38 -57 -50q-44 10 -75 45q-31 34 -70 61q6 -24 12 -38
q6 -16 21 -23l4 -19q0 -18 -9 -45q-7 -21 -21 -43t-31 -33q-18 -12 -36 -12q-23 0 -35 21q-13 22 -14 49q-4 43 0 87q1 12 11 95l-33 -23l-20 -20q-18 -18 -42 -39q-19 -17 -51 -38q-25 -17 -47 -17q-19 0 -25 20q-1 26 12 50q13 23 38 45q20 17 55 42q13 9 65 43
q-36 19 -70 33q-10 4 -77 29q-46 0 -51 47q0 19 7 39q8 23 19 39q12 18 29 32t37 15q49 -19 78 -51q30 -33 65 -68q-1 22 -6 34t-8 18l-8 15q-5 8 -6 21q0 16 5 39q5 22 16 39q13 20 27 31q15 12 38 12q28 0 35 -18q9 -21 10 -41q5 -47 3 -93q-1 -30 -3 -92q27 16 49 36
q21 20 33 36z" />
    <glyph glyph-name="plus" unicode="+" horiz-adv-x="856" 
d="M117 293q-30 -18 -33 -19q-8 -2 -14 -2q-24 0 -34 13q-9 12 -9 30q0 36 16 61q17 26 42 41q24 14 57 22q29 7 61 7q45 0 86 -6q40 -6 82 -6q0 41 -5 93q-4 39 -16 100q0 13 -4 17t-4 15q0 19 9 40q8 19 25 41q15 20 32 32q16 12 32 12q19 0 28 -10q10 -12 14 -25
q5 -17 5 -34v-35q0 -39 -5 -97q-4 -43 -11 -96l-8 -61h8q81 0 152 7q76 7 139 30q3 0 5 1t5 1q41 0 41 -41q0 -34 -14 -56q-15 -24 -36 -39q-22 -16 -48 -23q-25 -7 -51 -7q-60 0 -112 11q-53 11 -93 16q0 -58 14 -111t14 -109q0 -17 -7 -38q-8 -23 -19 -43q-11 -19 -30 -35
q-18 -15 -38 -15q-17 0 -28 12q-11 13 -15 28q-3 12 -5 37q-1 13 -1 36q0 67 10 124q10 59 15 114q-55 -1 -128 -13q-78 -12 -126 -22z" />
    <glyph glyph-name="comma" unicode="," horiz-adv-x="299" 
d="M258 0q0 -43 -28 -91q-35 -60 -56 -99q-5 -13 -28 -36q-22 -22 -46 -37q-25 -15 -46 -20q-21 -4 -27 17q-6 14 2 29q7 15 21 30q13 15 28 28q15 14 22 27q16 19 11 52q-1 19 -18 42q-15 21 -27 54q-21 44 7 78q27 32 68 37q2 2 19 2q31 0 65 -29q33 -28 33 -84z" />
    <glyph glyph-name="hyphen" unicode="-" horiz-adv-x="761" 
d="M113 264q-45 12 -68 41q-22 28 -22 62q0 33 22 61q23 29 68 41q31 -7 144 -31q50 -11 149 -24q44 -4 87 6q16 4 46 10.5t43 9.5q21 12 39 16q22 5 43 -5q41 -17 59 -50q16 -29 11 -62q-5 -32 -32 -56q-28 -25 -71 -29q-3 0 -4 -1t-4 -1q-29 7 -48 20q-114 34 -231 27
q-114 -7 -231 -35z" />
    <glyph glyph-name="period" unicode="." horiz-adv-x="346" 
d="M266 76q2 -32 -14 -52q-18 -23 -43 -34q-31 -14 -55 -15q-29 -2 -52 9q-22 12 -30 30q-7 17 -15 27q-9 15 -19 34q-8 17 -7 38q1 18 19 31q18 14 40 21q20 7 46 10q24 3 40 3q80 0 90 -102z" />
    <glyph glyph-name="slash" unicode="/" horiz-adv-x="808" 
d="M795 1311q-7 -4 -11 -4q-132 -168 -216 -369q-86 -206 -152 -403l-66 -201q-8 -27 -19 -48q-8 -16 -22 -48q-9 -25 -29 -77.5t-26 -67.5q-48 -127 -64 -173q-5 -23 -18 -44q-14 -23 -53 -23q-38 0 -63 25t-25 65q0 11 4 30q43 101 102 203q67 115 109 203q58 124 99 245
q46 137 85 248q9 26 29 89q16 50 44 123q33 85 55 136q28 65 63 125q33 57 65 92q33 36 66 36q37 0 62 -28q24 -27 24 -69q0 -19 -14 -38q-12 -16 -29 -27z" />
    <glyph glyph-name="zero" unicode="0" horiz-adv-x="1683" 
d="M139 412q0 182 54 359q54 176 151 331v12q-29 0 -52 -13q-22 -12 -46 -30q-21 -15 -47 -30q-23 -13 -52 -13q-32 0 -32 33q0 20 24 44q18 18 57 44q30 20 64 37q30 15 51 22q100 37 158 56t126 35q65 15 116 19q63 5 125 5q44 0 123 -3q83 -3 170 -16q96 -14 185 -40
q90 -26 169 -74q74 -45 124 -117q48 -69 48 -170q0 -95 -41 -185q-40 -88 -109 -169q-72 -85 -154 -150q-84 -67 -180 -128q-89 -57 -182 -105q-99 -51 -162 -80q-76 -33 -157 -58q-80 -24 -166 -24q-90 0 -161 31q-68 29 -114 85q-44 53 -67 129q-23 77 -23 163zM262 463
q0 -69 14 -121q15 -56 49 -96q36 -42 89 -65t139 -23q80 0 180 28q99 28 211 79q104 48 214 120q106 70 189 151t134 170t51 181q0 69 -33 122q-32 52 -87 91q-52 38 -122 64q-68 26 -138 42q-74 17 -137 23q-66 6 -118 6h-21q-22 0 -34 -1t-34 -1h-22q-19 -1 -36 -18
q-14 -15 -25 -34l-20 -39q-11 -21 -25 -32q-30 -22 -76 -30q-49 -8 -80 -27q-62 -38 -114 -112q-48 -69 -82 -153q-33 -82 -49 -166q-17 -88 -17 -159z" />
    <glyph glyph-name="one" unicode="1" horiz-adv-x="940" 
d="M203 20v37q32 133 70 244q41 119 93 240q65 151 114 252q60 124 141 280q0 1 3 8t5 13t5 12.5t3 7.5q5 12 -4 14q-10 2 -12 2l-246 -122q-2 2 -17 1q-14 -1 -30 0t-30 9q-13 7 -13 26q-2 -2 -2 0l4 12q6 15 6 25q5 2 -2 15q-6 12 -6 26q5 21 20 37q17 18 29 29
q78 32 168 74q77 36 159 90q27 17 50 41q30 32 46 47q27 25 50 38q27 15 59 15q90 0 90 -88q-29 -70 -72 -128q-49 -66 -83 -122q-105 -183 -149 -263q-73 -133 -132 -265t-100 -276q-41 -143 -53 -294q-4 -14 -12 -37q-7 -19 -19 -39q-11 -17 -28 -33q-16 -14 -36 -14
q-42 0 -56 24q-13 23 -13 62z" />
    <glyph glyph-name="two" unicode="2" horiz-adv-x="2076" 
d="M-8 -111q0 67 47 120q44 50 114 91q65 38 139 63q66 22 126 34q85 16 173 21q97 5 173 5q32 0 48 -1t48 -1q26 7 48 22q20 13 42 36q16 16 51 49t51 49q56 56 81 83q15 16 42 46.5t31 35.5q33 36 80 97q35 43 70 89q37 49 78 115q32 51 63 120q27 60 27 106q0 25 -12 56
q-12 32 -39 36q-209 30 -364 8q-163 -23 -286 -65q-22 -6 -43 -21q-9 -6 -41 -27q-21 -14 -42 -24q-20 -10 -44 -10h-14q-6 0 -22 2q-8 1 -20 7q-9 5 -9 16q-16 17 -17 36q-2 24 2 39q4 22 15 43q0 11 9 19q10 9 22 13q16 6 24 7q16 2 19 2q125 30 241 47q123 18 234 30
q87 9 201 15q102 5 145 5q17 0 57 -6q29 -4 56 -17q26 -12 47 -33q20 -20 28 -51q0 -74 -13 -129q-13 -56 -38 -110q-23 -49 -57 -101q-33 -50 -72 -102q-110 -151 -219 -271q-118 -130 -240 -254q1 -1 0 -13q-1 -11 8 -11l787 -82q8 2 16 2h23q10 0 36 -2q18 -1 35 -9
t27 -19t10 -29q0 -20 -11 -41q-13 -25 -28 -41q-18 -20 -34 -29q-17 -10 -33 -4l-221 57q-4 1 -67 12q-79 14 -141 23q-41 6 -165 26q-84 13 -135 21q-61 8 -114 8h-116l-49 -24q-4 -3 -49 -38q-3 -2 -31 -24t-43 -34q-7 -6 -33.5 -26t-39.5 -30q-24 -19 -50 -37
q-43 -32 -97 -64q-63 -38 -108 -58q-59 -26 -116 -42q-58 -16 -117 -16q-94 0 -139 52q-45 53 -45 132zM170 -90q0 -29 23 -35t45 -6q60 0 120 18q58 17 117 47q54 27 112 64q52 33 101 68q12 7 17 16q1 8 -3.5 12t-15.5 4q-71 0 -146 -15q-55 -11 -147 -34q-27 -7 -55 -18
q-38 -15 -75 -33q-39 -19 -65 -42q-28 -25 -28 -46z" />
    <glyph glyph-name="three" unicode="3" horiz-adv-x="1757" 
d="M61 86q0 22 22 50t48 28q47 0 79 -20q28 -17 73 -29q53 -11 100 -14q51 -3 102 -3q42 0 154 -2q84 -2 174 0q71 1 181 12q91 9 175 33q83 24 158 68q77 45 127 110q19 24 22 37q3 15 3 39q0 47 -33 83q-34 37 -84 62t-115 42q-59 15 -126 25q-75 11 -115 13q-53 3 -84 3
q-76 0 -168 -5q-73 -4 -168 -4q-60 0 -75 32t-15 85q0 35 22 54t53 30q28 10 65 13q28 2 56 8q6 2 58 18q25 8 87 29q16 5 49.5 16t51.5 17t51.5 17.5t49.5 16.5q48 16 87 30l36 12t22 7q11 4 36.5 14t34.5 13q37 14 86 36q43 20 81 39q40 21 57 38q0 17 -36 29
q-38 13 -90 17q-54 5 -120 6q-65 1 -125 0q-19 0 -55 -0.5t-52 -1.5q-31 -1 -63 -1q-59 0 -134 -12q-81 -13 -140 -13q-31 0 -41 10q-12 12 -16 27q-2 6 -5.5 18.5t-5.5 18.5q-6 20 -27 41q-1 20 11 37q11 15 30 20q198 0 383 -3q241 -4 387 -5q1 0 93 -8q53 -5 102 -18
q50 -14 83 -41q34 -28 34 -80q0 -41 -20 -72q-19 -29 -50 -54q-25 -20 -67 -41q-39 -19 -68 -30q-5 -2 -32 -12t-46 -17q-7 -3 -45.5 -17t-61.5 -22q-101 -36 -119 -43q-88 -33 -110 -41q-58 -21 -80 -31q-30 -14 -30 -18t29 -10q31 -6 70 -12q54 -8 83 -12l72 -11
q72 -12 135 -29q70 -19 138 -55q63 -34 108 -88q44 -53 44 -131q0 -97 -49 -170q-51 -75 -124 -128q-77 -56 -164 -86q-90 -31 -170 -42q-257 -35 -505 -38q-251 -3 -511 -3q-36 10 -47 48q-11 39 -11 71z" />
    <glyph glyph-name="four" unicode="4" horiz-adv-x="1900" 
d="M811 -356v28l131 516v41l-16 9l-574 -50h-213q-26 0 -45 16t-31 38q-13 24 -17 48q-5 28 -5 44q0 48 26 100q26 53 61 96q34 43 75 82q41 40 67 60l828 606q16 8 22 8q29 0 71 -18q41 -17 82 -48q39 -29 67 -69t28 -78q0 -19 -9 -26q-10 -9 -16 -23q-12 -17 -22 -35
q-6 -10 -12 -13q-7 -4 -19 -5q-10 -1 -37 -13q-1 0 -10 -7q-6 -5 -6 -9l-139 -516q0 -32 3 -36q3 -5 38 -5q26 4 80 11.5t83 11.5q85 12 163 27q75 15 136 35q57 19 78 46q10 13 15 35q5 21 14 49q8 27 19 44q12 20 28 20q53 0 83 -27t30 -80q0 -60 -28 -108t-71 -79
q-48 -35 -97 -51q-54 -18 -107 -24q-3 0 -29.5 -3t-51.5 -5q-133 -12 -141 -13l-140 -12q-25 -2 -51.5 -5t-29.5 -3q-15 -2 -42 -6q-26 -4 -31 -27l-123 -565q-1 -12 -8 -28q-1 -4 -15 -28q-8 -14 -19 -24t-26 -10q-35 0 -41 24t-6 54zM221 385q0 -39 50 -42q23 -1 163 -7
q24 0 47 1q62 3 83 4q32 2 102 6t103 6q71 4 90 5q54 2 59 2q29 0 53 13q22 12 28 45l123 606v41q0 6 -10 7q-7 1 -14 1q-14 0 -33 -8q-109 -49 -228 -126q-123 -80 -214 -144q-68 -48 -114 -82q-62 -46 -113 -90t-99 -103q-47 -58 -76 -119v-16z" />
    <glyph glyph-name="five" unicode="5" horiz-adv-x="2088" 
d="M90 -57q-34 10 -46 45q-11 32 -11 65t9 39t30 6q30 0 49 -4q26 -6 39 -11q4 -2 17.5 -7.5t21.5 -8.5q33 -14 47 -18q160 -59 335 -91q174 -32 345 -32q6 0 86 -2q60 -1 121 6q59 7 107 32q46 24 46 75q0 36 -16 69q-22 46 -33 66q-35 67 -97 107q-65 42 -136 62
q-76 22 -152 29q-73 7 -143 7q-98 0 -177 -4t-178 -4q-68 0 -92 38q-24 37 -24 97q0 25 7 45t25 41q92 102 209 196q112 90 217 181q24 19 39 35q18 20 38 35q22 17 43 26q23 10 52 10q42 0 85 -8t87 -8q236 28 453 70q221 43 440 126q47 0 77 -15t30 -62q0 -22 -16 -44
q-21 -30 -25 -34q-17 -21 -32 -28q-18 -9 -38 -12q-15 -2 -43 -4q-29 -2 -43 -5q-21 -4 -37 -9t-31 -6q-20 -2 -40 -3q-15 -1 -60 -1h-57q-23 0 -37 2l-606 -114q-23 -4 -41 -23q-20 -20 -41 -27q-3 0 -14 -3q-13 -4 -23 -5q-6 -1 -23 -5q-12 -3 -14 -3q-48 -17 -95 -48
q-46 -30 -94 -72q-47 -40 -88 -82q-31 -31 -75 -77q-4 -1 -6 -7t-2 -9q0 -15 30 -19q40 -6 60 -6q144 -8 231 -11q120 -4 236 -32q118 -28 211 -86q95 -60 157 -174q32 -62 46 -93q20 -44 20 -99q0 -98 -42 -147q-41 -49 -105 -73q-63 -24 -141 -27q-77 -3 -146 -3
q-244 24 -464 59q-243 38 -462 97z" />
    <glyph glyph-name="six" unicode="6" horiz-adv-x="1507" 
d="M41 289q0 39 8 79t8 78q0 25 -4 42t-4 42q0 28 13 45q15 20 33 34q26 20 40 30q20 14 37 33q13 14 49 65q33 47 66 90q17 18 48 50.5t44 46.5q58 60 88 89q50 49 97 90t120 100q72 58 157 121q96 72 208 151q22 18 38 22q15 4 43 4q91 0 91 -88q0 -42 -28 -68
q-27 -25 -68 -42q-46 -19 -82 -29q-39 -11 -68 -29q-194 -113 -371 -256q-171 -139 -301 -334v-16q0 -16 8 -16l934 -50q31 -2 68 -9q38 -8 68 -22q32 -15 55 -40q22 -23 22 -64q0 -38 -16 -67q-18 -33 -43 -55q-23 -20 -59 -41q-25 -14 -62 -29q-223 -87 -442 -146
q-221 -59 -459 -59q-65 0 -127 9q-59 9 -108 37q-45 26 -73 76t-28 126zM188 270q7 -46 51 -68q45 -23 91 -31q52 -9 93 -8q29 1 60 1q183 0 352 46q170 46 336 118q15 7 32 14q21 8 38 18q19 11 32 24t13 30q0 12 -8 20q-7 7 -21 12q-16 6 -24 8l-21 5q-62 16 -138 30
q-68 12 -120 16q-62 5 -138 6q-129 3 -193 5h-83q-51 0 -76 -1t-77 -3q-11 0 -39.5 -1.5t-44.5 -2.5q-49 -4 -74 -23q-24 -18 -33 -50q-10 -36 -9 -74q1 -28 1 -91z" />
    <glyph glyph-name="seven" unicode="7" horiz-adv-x="1449" 
d="M90 -35q-2 87 8 154q10 73 33 151q16 54 35 91q20 39 31 81q4 24 -6 29q-9 5 -24 6q-14 1 -33 11q-17 9 -28 44q-6 20 -24 32q-19 13 -19 34q0 15 11 28q9 11 25 17q15 6 33 9t32 3q33 0 65 -8t66 -8q11 0 26 5q9 3 23 11q103 97 213 172q108 73 238 140l16 16l-16 8
h-582q-27 0 -48 13q-19 11 -31 30q-10 15 -15 42q-4 21 -4 46q0 42 25 67t67 25q27 0 52 -9q24 -8 49 -21l48 -24q23 -11 54 -13q114 -15 185 -18q91 -5 183 -6q61 -1 188 -1h197q62 4 131 23q66 18 131 18q42 0 66 -18q25 -19 25 -62q0 -10 -8 -28q-10 -22 -17 -33
q-11 -16 -24 -30q-12 -12 -25 -17q-229 -12 -450 -79q-217 -66 -410 -200q-5 -2 -14 -9l-18 -14q-12 -10 -18 -16q-8 -8 -8 -14q-2 -2 1 -7t7 -5q140 0 231 4t210 4q35 0 65 -5q27 -4 27 -50q0 -26 -29 -53q-28 -27 -53 -27h-565q-33 0 -60 -29q-26 -27 -48 -73
q-22 -45 -38 -97q-10 -32 -27 -104q-12 -51 -18 -93t-6 -63q0 -37 10 -63q10 -25 23 -50q8 -15 22 -45q11 -24 11 -51q0 -20 -6 -46q-5 -22 -19 -48q-12 -22 -31 -38q-18 -15 -43 -15q-45 0 -66 31q-22 32 -29 77q-7 40 -5 91q2 62 2 77z" />
    <glyph glyph-name="eight" unicode="8" horiz-adv-x="1720" 
d="M47 147q0 75 42 141q43 67 104 124q58 54 131 103q71 48 125 77q34 19 67 36q30 15 79 43q22 12 64 38q27 17 27 22q0 10 -26 27q-5 3 -26.5 17.5t-36.5 23.5q-12 8 -83 55q-43 28 -83 72q-36 39 -63 91q-26 50 -26 111q0 70 36 116t89 75q50 27 117 43q34 8 118 24
q140 22 272 36q135 14 277 14q63 -7 110 -58q46 -49 46 -114q0 -56 -19 -101t-50 -90q-33 -48 -66 -81q-26 -26 -70 -72q-2 -18 9 -23t26 -10q2 -1 12 -3.5t15 -4.5q12 -5 12 -17q0 -19 -19 -43q-18 -23 -39 -45t-39 -42t-18 -34q0 -7 41 -25q19 -8 95 -38q21 -8 62.5 -23
t45.5 -17q70 -26 76 -28q45 -18 61 -26q35 -17 55 -35q27 -24 40 -47q16 -29 16 -64q0 -53 -24 -96q-23 -42 -61 -77q-35 -32 -85 -58q-46 -24 -92 -39q-215 -70 -480 -132q-239 -56 -491 -56q-55 0 -121 6q-65 6 -122 27q-53 20 -93 64q-37 41 -37 113zM203 168
q0 -34 41 -55q39 -20 93 -31q53 -11 103 -12q68 -2 74 -2q206 0 407 45q205 46 388 127q21 9 42 20q27 15 54 33q24 16 47 39q21 21 21 39q0 3 -7 12q-8 10 -10 12q-117 77 -253 132q-221 89 -263 106q-19 8 -30 8h-36q-31 0 -64 -11q-36 -12 -78 -30t-87 -42l-90 -48
q-40 -22 -96 -56q-62 -37 -117 -82q-56 -46 -98 -100q-41 -53 -41 -104zM504 1124q0 -42 43 -94q46 -56 102 -99q62 -48 122 -78q64 -32 101 -32q34 0 46 9q11 9 16 24t6 32q2 18 16 34q22 27 61 51q41 25 62 39q18 12 46 37q32 29 54 53q24 27 45 59q19 29 19 55
q0 34 -22 47q-21 12 -52 19h-62q-61 0 -126 -4q-86 -5 -158 -13q-83 -9 -154 -27q-75 -19 -118 -44q-47 -27 -47 -68z" />
    <glyph glyph-name="nine" unicode="9" horiz-adv-x="1392" 
d="M205 -457q0 13 -1 17t-1 12q0 13 10 29l672 934q5 6 7 12q1 3 1 12q0 11 -8 16q-102 -32 -237 -63q-118 -27 -243 -27q-54 0 -114 3q-59 3 -110 23q-50 20 -83 60q-32 39 -32 115q0 74 45 135q47 64 110 110q65 47 139 82q53 25 132 54q161 56 349 99q175 40 359 40
q35 0 75 -5q36 -5 61 -19q27 -16 41 -38q16 -26 16 -63q0 -67 -38 -122q-35 -50 -85 -97q-8 -7 -22 -14q-9 -4 -19 -19q-7 -10 -14 -22q-15 -27 -20 -35q-5 -7 -20 -35q-2 -3 -4.5 -7t-3.5 -6.5t-2.5 -5t-1.5 -3.5l-516 -672q-34 -48 -37 -52q-43 -64 -64 -94
q-14 -20 -38 -56.5t-32 -47.5q-24 -36 -50 -78q-26 -44 -45 -80q-15 -29 -45 -79q-23 -39 -45 -62q-23 -24 -45 -24q-33 0 -37 25q-4 23 -4 48zM229 713q0 -26 29 -41q26 -14 67 -22q31 -6 73 -8q24 -1 53 -1q68 0 140 9q74 9 145 30q77 22 138 53q65 32 117 80l74 74
q17 15 40 17q22 2 40 6q18 5 31 27q12 21 12 77q0 12 -10 19q-8 6 -24 11q-14 4 -27 6q-9 1 -21 1q-74 0 -186 -11t-218 -34q-108 -23 -214 -68q-105 -44 -177 -109l-52 -52q-30 -30 -30 -64z" />
    <glyph glyph-name="colon" unicode=":" horiz-adv-x="415" 
d="M295 90q2 -30 -14 -51q-17 -23 -42 -35q-24 -11 -56 -13q-29 -1 -50 9q-27 12 -33 31q-6 18 -12 24l-21 36q-11 17 -10 38q2 19 20 31q20 14 41 20q27 8 48 11q32 4 41 4q77 0 88 -105zM287 516q1 -28 -15 -51q-17 -23 -42 -35q-27 -13 -54 -14q-29 -2 -51 10
q-27 10 -33 30q-6 19 -12 25q-7 11 -21 35q-10 17 -8 37q1 21 20 33q17 11 40 19q20 7 47 10q24 3 41 3q77 0 88 -102z" />
    <glyph glyph-name="semicolon" unicode=";" horiz-adv-x="452" 
d="M319 80q0 -45 -25 -91q-33 -61 -58 -100q-4 -7 -28 -31q-18 -18 -46 -39q-23 -17 -46 -22q-22 -5 -28 19q-4 13 4 29q6 13 22 30q18 19 27 28q17 16 23 27q12 22 10 50q-1 20 -17 42q-17 24 -28 54q-21 47 7 78t69 39h16q34 0 67 -28q31 -27 31 -85zM330 524
q4 -30 -13 -52q-17 -21 -43 -33q-26 -11 -56 -13q-31 -2 -50 8q-25 12 -31 32q-6 18 -14 23l-21 36q-10 16 -8 36q1 21 20 33q20 14 41 20q32 10 48 12q24 3 41 3q76 0 86 -105z" />
    <glyph glyph-name="less" unicode="&#x3c;" horiz-adv-x="1040" 
d="M831 936q29 17 47 15t25 -15q7 -15 6 -36q-2 -22 -12 -46q-11 -21 -15 -27q-1 -1 -8.5 -9.5t-13.5 -16.5q-87 -73 -185 -121q-109 -54 -202 -96q-58 -26 -148 -73q-76 -40 -151 -67q93 -53 211 -108q101 -47 217 -94q95 -41 165 -67q89 -33 171 -40q33 -11 36 -36
t-12 -52q-14 -25 -42 -47q-27 -21 -56 -16q-90 17 -173 59q-78 39 -163 84q-139 75 -240 126q-122 61 -231 142l-6 6q-4 4 -6 11v14q0 48 41 72q54 16 97 38q81 42 96 50q87 47 187 105q35 20 187 112l2 2l93 60q41 27 83 71z" />
    <glyph glyph-name="equal" unicode="=" horiz-adv-x="1280" 
d="M205 506q-30 0 -37 17q-8 19 -4 41q5 28 15 46q13 24 22 33q18 18 22 21q2 1 9.5 6.5t13.5 9.5q54 8 101 5q46 -3 100 -11q12 -2 101 -18q43 -8 103 -13h39q40 0 62 1q11 0 31.5 0.5t30.5 1.5q30 2 42 3q35 1 84 7q36 4 76 26q33 6 45 -7q12 -14 11 -35q-2 -24 -11 -45
t-21 -38l-43 -41l-24 -9q-13 -5 -27 -5q-38 -4 -84 2q-42 6 -85 15q-19 4 -85 20q-36 9 -84 14q-99 5 -207 -3q-110 -8 -196 -44zM231 170q-31 0 -38 17q-9 21 -5 41q5 25 16 46q14 26 21 33q13 18 20 22q14 8 27 13q49 10 101 7q42 -3 98 -11q33 -5 99 -17q53 -10 104 -14
q16 -2 41 -2q39 0 61 1q33 2 63 3q17 1 42 4q23 1 83 8q38 5 76 25q31 6 43 -7q13 -15 12 -35q-1 -19 -11 -45q-9 -25 -19 -36q-11 -17 -18 -24q-8 -8 -27 -19l-24 -9q-13 -5 -25 -5q-38 -4 -84 2t-86 16q-66 16 -85 20q-45 10 -85 11q-96 8 -205 0q-110 -8 -195 -45z" />
    <glyph glyph-name="greater" unicode="&#x3e;" horiz-adv-x="1036" 
d="M184 -35q-27 -16 -46 -14q-17 1 -25 14q-8 14 -7 34q1 19 15 46q8 22 15 29q9 9 20 24q87 75 186 122q134 64 201 97q73 35 147 72q72 37 152 66q-93 53 -211 108q-101 47 -217 94q-114 48 -163 68q-85 35 -171 39q-31 8 -34 34q-3 27 11 52q14 26 40 47q25 21 55 21
q84 -16 174 -59q84 -40 161 -87q82 -44 242 -125q123 -62 229 -141q1 -5 13 -17l2 -14q0 -51 -45 -74q-62 -18 -97 -37q-88 -47 -92 -49q-26 -14 -192 -106q-81 -45 -187 -111v-2q-44 -34 -89 -61q-44 -27 -87 -70z" />
    <glyph glyph-name="question" unicode="?" horiz-adv-x="1216" 
d="M653 82q5 -31 -13 -52q-20 -23 -43 -34q-27 -13 -55 -14q-31 -2 -50 8q-26 13 -33 30t-13 25q-12 18 -21 36q-9 17 -7 38q2 19 19 32q16 12 41 20q22 7 47 10q24 3 40 3q77 0 88 -102zM197 1323q93 -4 205 -12q95 -7 212 -25q102 -16 200 -44q90 -26 170 -72
q76 -44 122 -105q48 -63 55 -145q8 -103 -106 -166q-116 -64 -322 -103q-124 -23 -168 -61q-86 -95 -82 -160q1 -20 24 -36q14 -10 46 -32t46 -35q23 -21 24 -46q0 -11 -11 -16q-13 -6 -25 -8q-11 -2 -33 -4q-12 -1 -32 -1q-66 0 -110 34q-46 35 -52 105q-6 79 10 130
q15 48 62 83q46 34 131 69q167 69 215 89q57 24 95 47q47 29 69 61q25 36 22 81q-3 44 -49 106q-34 44 -75 73q-42 30 -88 46t-104 21q-63 5 -124 5q-23 0 -36 -1q-3 0 -22 -1.5t-33 -2.5q-7 -1 -25 -2.5t-35.5 -3t-35.5 -2.5q-62 -5 -161 -15q-15 -3 -26 -3q-54 0 -81 24
q-28 25 -24 52q5 29 41 52q38 24 111 24z" />
    <glyph glyph-name="at" unicode="@" horiz-adv-x="1505" 
d="M1389 504q-5 -66 -27 -138q-24 -77 -59 -133t-88 -98q-49 -39 -107 -39q-38 0 -69 23q-29 21 -53 55q-22 30 -40 71q-10 24 -26 66h-7q-72 -103 -146 -151q-73 -47 -151 -47q-46 0 -89 11q-45 12 -86 36q-39 23 -67 62q-27 38 -32 91q-6 75 30 132q37 59 88 95
q55 40 104 59q68 27 81 32q41 14 90 14q69 0 119 -30q49 -29 53 -89q5 -35 -18 -47t-58 -12q-24 0 -61 5q-25 3 -59 11l-35 6h2q-8 0 -12 1q-8 2 -13 2q-15 0 -59 -13q-40 -12 -81 -36q-42 -25 -70 -57q-29 -34 -25 -77q6 -28 14 -47v2q7 -20 25 -31q17 -11 36 -15
q22 -5 39 -5h37q70 0 135 59q74 67 124 126q62 72 96 124q54 -1 69 -88l2 -14q1 -19 6 -50q5 -33 16 -59q14 -32 28 -49q17 -20 49 -20q42 0 100 26q44 51 74 121q30 68 22 133q-2 62 -45 140q-101 106 -195 148q-93 42 -196 42q-109 0 -220 -29q-109 -28 -208 -123
q-67 -61 -108 -109q-48 -56 -82 -120q-18 -40 -30 -89q-13 -51 -17 -96q-5 -53 -5 -91q0 -32 2 -76q17 -148 120 -247q105 -100 308 -124q5 0 14.5 -1t14.5 -2q10 -1 31 -1q46 0 110 8q48 6 113 19q12 2 32 6t35.5 7t27.5 6q11 2 25 5t22.5 5t13.5 3h8q2 0 4 2q2 0 18 -5
q10 -3 23 -11v-18l-4 -33l-35 -8q-48 -17 -162 -41q-119 -25 -307 -25q-198 0 -332 94q-135 94 -192 242q-10 28 -18 57q-5 18 -11 58q-4 53 -1 125q3 66 21 143q19 79 53 158q36 83 97 166q43 53 114 101q66 44 145 80q73 33 157 52q80 18 149 18q114 0 213 -19
q103 -20 186 -71t138 -139q56 -89 72 -223v-2z" />
    <glyph glyph-name="A" unicode="A" horiz-adv-x="2000" 
d="M1378 90q-57 66 -139 93q-86 28 -162 28q-17 0 -64 -3q-41 -3 -98 -6q-69 -4 -98 -5q-28 -1 -65 -4h2q-2 -1 -9 -6t-11 -7q-11 -7 -13 -12l-186 -346l-2 -2q-2 -1 -4.5 -3.5t-4.5 -5.5q-12 -15 -17 -21q-6 -8 -19 -19q-11 -9 -13 -9h-98q-14 0 -19 22q-4 19 -4 42
q0 31 2 41l148 289v24q-5 0 -6 1t-6 1q-17 1 -48 8q-25 5 -55 17t-46 24q-19 15 -19 35v80q0 12 7 19q3 3 7 8l2 2q66 57 138 78q69 20 149 20q22 0 34 3t23 20l428 657q18 27 32 58q17 39 23 61l13 51q8 46 19 72q12 30 44 30q8 0 14 -3l15 -7q1 -1 4 -2t4 -1q3 -1 10 -1
h11q4 0 18 2q3 0 10.5 1.5t11.5 2.5l160 213q16 19 37 19q10 0 36 -2q7 -1 37 -8q14 -3 28 -14q12 -9 12 -23q0 -15 -9 -26t-22 -20l-74 -55l-123 -112q-50 -47 -80 -109q-32 -65 -46 -129q-16 -71 -20 -138q-5 -78 -5 -134q0 -123 24 -252q23 -125 62 -246q12 -34 30 -65
q18 -32 56 -33l1319 104q24 5 47 12q16 6 26 9q15 5 35 6q8 0 32 -3q21 -3 48 -11t44 -19q20 -12 20 -29q0 -24 -14 -40q-15 -16 -31 -23q-19 -8 -40 -11q-28 -4 -36 -4h-12q-23 0 -36 1q-18 1 -36 8h-377l-989 -47q-2 0 -10 -6q-7 -5 -7 -9q0 -2 21 -17q3 -2 21.5 -16
t32.5 -23q25 -17 76 -52q11 -8 40.5 -28.5t46.5 -31.5q46 -30 90 -67q45 -38 87 -86q40 -45 66 -103q25 -54 25 -114q0 -13 -7 -26q-8 -15 -17 -25t-23 -19q-13 -8 -22 -8h-80l-15 8q-100 72 -181 178q-67 88 -156 219q-14 17 -27 41q-12 23 -27 39zM1751 -205q0 13 -24 47
q-31 45 -56 73q-38 44 -67 71q-35 34 -56 41q7 -26 37 -65q32 -42 63 -73q53 -53 63 -62q34 -31 40 -34v2zM778 270q15 -2 36 -3l43 -2q14 -1 40 -1h27h69l2 4q-12 12 -34 20q-21 8 -53 15q-14 3 -53 10q-23 4 -38 4q-35 0 -35 -41v-6h-4zM860 436q0 -4 7 -8q10 -6 12 -8
q25 -9 53.5 -19.5t63.5 -23.5t54 -20q114 -42 173 -62q18 -9 25 -10q16 -2 24 -2t8 10q-2 2 -2 4v4q-59 164 -82 342q-22 175 -33 354q0 -9 -4 -17q-5 -10 -6 -11v4l-293 -531v-6zM504 305q0 -11 17 -12q24 -2 28 -2q19 0 32 13t13 36q0 4 -6 4q-3 0 -23 -2q-9 -1 -27 -7
q-14 -5 -24 -12t-10 -18zM694 322l-10 10q0 -18 -16 -25l16 -8q0 4 4 8t6 4v11zM899 717q-17 -17 -42 -54q-29 -43 -50 -78q-24 -41 -42 -75q-17 -33 -17 -45v-14q12 0 30 27q17 25 39 68q21 40 42 87q5 11 40 84z" />
    <glyph glyph-name="B" unicode="B" horiz-adv-x="1972" 
d="M408 29q0 53 32 76q33 24 74 36q16 5 42.5 13t32.5 10q35 10 36 39l51 835q6 104 35 177q29 74 78 117q50 44 123 64q70 19 167 19q45 0 88 -3t90 -3q32 0 48 25q8 12 29 55q16 32 42 55q28 25 82 25h18q10 0 21 -3t19 -11t8 -21q0 -14 -6 -16q-2 0 -6.5 -2t-7.5 -3
q-7 -1 -13 -6t-6 -22q0 -11 2 -21l-45 -90v-20q26 -26 58 -64q24 -28 24 -76q0 -80 -51 -129q-47 -46 -113 -81v-13q0 -5 8 -10q54 -21 132 -59q70 -34 135 -83q61 -47 106 -113q43 -64 43 -151q0 -55 -15 -104q-17 -56 -36 -98v-17h43l508 84q5 0 13 1t15 1q20 0 35 -9
q14 -8 14 -36q0 -19 -14 -30q-16 -13 -33 -17l-620 -90q-33 -5 -58 -20q-23 -14 -52 -38q-16 -14 -48 -43q-24 -23 -43 -36q-88 -66 -183 -109q-108 -49 -210 -79q-111 -32 -218 -47q-110 -15 -208 -15q-25 0 -87 2q-44 1 -86 17q-37 14 -67 47q-26 29 -26 90zM774 23v-13
q0 -8 8 -10q82 -2 156 13q70 14 154 38q27 7 74 23q53 18 88 34q48 22 83 43q40 24 60 52q-4 9 -16 8t-13 0l-498 -88l-73 -25q-8 -2 -12 -12q-6 -14 -7 -23q0 -4 -1 -11.5t-2 -11.5q-1 -8 -1 -17zM1085 870q-60 -97 -106 -190q-48 -97 -92 -197q-37 -78 -57 -130
q-27 -71 -27 -142h67l617 96q36 6 66 30q34 27 52 57q22 35 33 74q13 44 13 77q0 72 -61 136q-58 61 -144 107t-171 71q-89 26 -142 26q-18 0 -26 -1q-11 -1 -22 -14zM758 500v-31l14 -12l217 422q4 22 -16 23q-14 1 -35 1q-18 0 -32 -1q-21 -2 -45 -3q-19 -1 -42 -5
q-17 -3 -22 -9l-15 -15q-2 0 -5 -27q-4 -33 -5 -70q-1 -23 -5 -90t-5 -89q-2 -45 -3 -69q0 -8 -0.5 -14.5t-0.5 -8.5v-2zM817 1114q0 -11 16 -19q17 -8 37 -11q14 -2 48 -4q16 -1 43 -1q8 0 17 1q5 1 15 1.5t15 0.5q11 1 31 3t24 2q22 1 48 21q22 16 43 44q18 23 31 53
q11 25 11 46q0 25 -34 26q-23 1 -75 1q-33 0 -80 -6q-46 -6 -88 -24q-43 -19 -72 -50q-30 -33 -30 -84zM1331 1214q-23 0 -39 -22t-16 -45q19 0 48 10q30 11 30 35q0 22 -23 22z" />
    <glyph glyph-name="C" unicode="C" horiz-adv-x="1925" 
d="M127 610q0 125 65 234q64 108 166 199q100 90 232 162q135 74 258 121q134 52 245 76q113 25 193 25q44 0 78 -11t78 -11q13 0 25 9t21 21q6 8 18 20q9 9 22 9q36 0 53 -12t23 -34q6 -21 6 -50q0 -19 2 -59q0 -3 3 -9t3 -10q21 -38 39 -77q16 -35 16 -87q0 -58 -19 -118
q-21 -66 -53 -112q-35 -51 -78 -83q-43 -33 -96 -33q-63 0 -92 54q-28 52 -28 124q0 70 25 132q15 37 50 118q0 6 1 11t1 10q0 15 -15 26q-16 11 -37 17q-23 7 -42 8q-4 0 -9.5 0.5t-8 1t-5.5 0.5h-5h-131q-70 0 -136 -18q-55 -16 -127 -43q-69 -26 -158 -71
q-85 -43 -167 -96q-84 -54 -151 -121q-65 -65 -108 -145q-42 -78 -42 -165q0 -76 32 -134q31 -56 83 -105q49 -46 110 -81q62 -36 113 -59q176 -80 362 -125q192 -47 376 -41t354 78t300 231q20 25 36 49q12 18 34 50q18 26 31 39q16 16 26 16q37 0 35 -11q-2 -14 -2 -32
q-1 -48 -25 -111q-22 -58 -55 -96q-40 -47 -55 -63q-24 -26 -60 -56q-31 -26 -74 -50q-41 -24 -104 -42q-138 -43 -314 -64q-172 -21 -356 -13q-185 8 -355 46t-308 112q-133 71 -217 184q-82 110 -82 265zM1532 1176q-42 -7 -50 -42q-7 -32 -7 -75q0 -10 6 -25q1 -8 6 -18
q23 16 30 26q9 12 12 30t3 42v62z" />
    <glyph glyph-name="D" unicode="D" horiz-adv-x="2283" 
d="M231 -303q0 23 15 47t36 51q2 3 44 53q22 27 39 54v2q0 2 1 2t1 2t2 4q0 6 -35 15q-30 8 -77 28q-42 18 -77 47t-35 76q0 40 21 70q21 31 52 51q25 17 70 33q46 17 70 22q9 1 37 9q18 5 58 13q7 1 27 5.5t30 6.5t22 4.5t15 2.5q19 2 41 45q23 45 42 94t33 95q13 42 13 51
q0 24 -18 51q-18 28 -38 50q-20 23 -41 39q-19 15 -24 15l-295 217q-38 27 -72 63q-35 37 -60 76q-26 41 -42 85t-16 92q0 81 35 129q36 50 92 77t122 36q75 10 132 10q123 0 238 -27q113 -26 233 -68q3 0 5 -1t5 -1q22 0 36 19q18 24 27 33q53 0 70 -25q16 -23 16 -53v-37
q13 -14 27 -21q1 -1 32 -19q51 -30 56 -33t56 -33q31 -18 32 -19q2 -2 7 -5.5t13.5 -9.5t15.5 -11t27.5 -19.5t32.5 -23.5q33 -24 63 -45q33 -23 42 -31q62 -50 136 -118q72 -66 134 -146q61 -80 102 -168q39 -85 39 -183q0 -24 -5 -51t-5 -51q0 -15 9 -16t24 -3q20 0 59 -4
q41 -4 98 -9q24 -2 114 -11q15 -2 54.5 -6t59.5 -6l44 -4t48 -4q39 -3 49 -3q25 0 43 -1q9 0 26.5 -0.5t26.5 -1.5q8 0 24 -0.5t24 -1.5q15 -1 28 -1q36 0 60 -12t24 -43q0 -29 -26 -41q-27 -12 -54 -12q-14 0 -32 6q-32 10 -38 13q-5 2 -18 6.5t-20 7.5q-21 9 -33 10
l-579 43h-50q-13 0 -24 -19q-11 -18 -23 -29q-69 -72 -144 -116q-82 -48 -165 -80q-84 -32 -178 -54q-100 -23 -182 -38q-248 -49 -496 -49q-23 0 -36 1t-36 1q-24 0 -51 -39q-23 -33 -53 -85q-33 -57 -52 -87q-26 -42 -46 -43q-8 -4 -15 -8q-1 -1 -3.5 -2.5t-3.5 -2.5
q-2 -1 -8 -3q-3 -1 -18 -1q-9 0 -25 8q-15 7 -29 20t-22 23q-10 13 -10 21zM623 12q0 -14 13 -15q9 -1 23 -1h84q103 0 192 10q93 10 195 27q79 14 148 31q76 19 152 50q82 34 140 69q68 42 118 96q0 8 -5 8q-214 0 -462 -10q-223 -9 -453 -39q-2 -1 -9.5 -4.5t-12.5 -5.5
q-10 -4 -15 -15l-108 -195v-6zM328 86q0 -9 13 -16q22 -12 31 -16q19 -8 34 -12q18 -5 22 -5q16 0 23 14l53 109v14q-12 0 -39 -10q-31 -12 -59 -24q-36 -16 -55 -28q-23 -14 -23 -26zM791 336q2 -2 4 -2q2 -2 4 -2q9 0 23 1q34 2 48 4q36 4 53 5q12 1 35 4l785 19
q10 0 17 17q8 18 12 39t6 42q0 6 0.5 12t1 9t0.5 5q0 77 -34 151q-35 77 -86 142t-113 126q-61 59 -113 104q-98 82 -204 150q-98 62 -186 104h-15q-4 0 -9 -11l-25 -57l-186 -508q-2 -2 -2 -9v-11q0 -34 8 -66t8 -65q0 -50 -11 -90q-2 -9 -21 -91q-3 -3 -3 -4v-6l2 -6
q1 -3 1 -6zM391 1008q11 -8 45 -32t54 -38q12 -9 47.5 -34t53.5 -38q48 -34 87 -63q25 -18 59 -45q15 0 17 8l155 537q0 18 -8 24q-7 6 -24 12q-60 15 -112 29q-50 14 -81 20q-27 5 -74 11q-33 4 -88 4q-34 0 -84 -3q-48 -3 -95 -18q-48 -16 -78 -44q-32 -30 -32 -83
q0 -34 16 -72q15 -36 38 -68q24 -33 51 -59q22 -21 53 -48z" />
    <glyph glyph-name="E" unicode="E" horiz-adv-x="2269" 
d="M375 305q5 79 45 156q39 74 99 140q61 67 124 113q64 46 119 70q3 1 7 11q3 7 3 12q2 30 -3 56t-3 55q5 111 64 199q61 89 153 159q93 70 207 121q110 49 228 88q100 33 215 60q34 8 169 38q32 6 64 9q31 3 54 -4q25 -8 36 -27q12 -20 10 -62q-44 -6 -64 -26
q-23 -23 -34 -42q-12 -21 -24 -39q-12 -17 -36 -22q-15 -4 -34 -1q-15 3 -37 8l-36 9q-18 4 -34 3q-51 -8 -105 -14q-78 -9 -145 -23q-81 -17 -160 -43t-150 -72q-70 -46 -116 -114q-47 -69 -57 -165q-1 -15 7 -29q10 -16 23 -28q15 -13 27 -18q14 -6 27 -4l557 110
q26 7 66 8q44 2 82 -7q40 -9 69 -35q28 -25 27 -76q-5 -67 -31 -107q-27 -40 -67 -67q-38 -25 -88 -41q-51 -16 -93 -23q-114 -23 -212 -21q-109 2 -208 15q-36 6 -63 15q-13 4 -37 12t-34 11q-29 10 -71 17q-35 6 -63 0q-34 -6 -89 -44q-54 -38 -107 -92q-49 -51 -91 -118
q-38 -62 -43 -121q-1 -42 31 -79q33 -38 80 -65t97 -47q55 -22 83 -28q175 -47 366 -56q200 -9 392 14q203 25 391 76q193 53 365 126q29 4 53 -2q22 -6 36 -18q12 -11 19 -26q6 -13 6 -22q-4 -48 -37 -78q-34 -31 -76 -47q-38 -14 -95 -23q-20 -3 -89 -11q-18 -3 -104 -22
q-78 -17 -154 -32q-78 -15 -185 -28q-102 -12 -202 -8q-215 6 -249 8q-122 6 -182 11q-93 8 -163 19q-21 3 -188 31q-54 11 -121 32q-66 21 -112 53q-52 36 -82 86q-32 53 -27 126zM1298 784q-4 -10 10 -15q25 -8 35 -11q5 -3 27 -5q18 -1 39 0t39 3q2 0 29 4q9 1 26 9
q22 10 33 16q16 9 29 20t14 16q0 18 -25 16t-59 -6q-75 -7 -135 -20q-56 -12 -62 -27z" />
    <glyph glyph-name="F" unicode="F" horiz-adv-x="1175" 
d="M215 -18q0 35 16 77q17 46 23 82q0 6 3 27q4 27 5 45t5 45q3 21 3 27q1 23 17 42q16 20 30 32q11 10 33 32q18 18 25 39l3.5 10.5t6.5 22t8 27.5q3 11 14 48.5t18 59.5t18 59.5t14 48.5q14 46 16 62q1 1 3 7q1 3 1 7q0 25 -28 25q-29 0 -63 6q-33 6 -62 33t-29 106
q0 22 8 52q7 28 23 56q21 37 31 51q17 22 34 38q0 3 1 6t1 6q0 23 -30 31q-35 9 -67 22q-38 16 -67 42q-30 27 -30 90q0 41 31 69q32 29 71 29h401q2 -6 9 3q4 5 16 17l22 22q14 14 21 19l80 31q17 2 31 -8t14 -29q0 -16 -10 -16q-7 0 -14 3t-13 3v-21q31 -2 60 -22
q18 0 42 -1t76 -1h76h43q52 0 132 5q48 3 148 11q104 8 147 11q96 6 134 6q60 0 82 -24q23 -25 19 -64q0 -8 -5 -28q-5 -19 -16 -33q-10 -12 -34 -26q-21 -12 -56 -12q-31 0 -57 10t-55 23q-33 15 -60 22q-31 9 -78 7q-137 -7 -297 -33q-142 -23 -265 -73
q-118 -48 -191 -121q-72 -72 -72 -177q0 -8 23 -14q28 -7 55 -11q7 -1 19 -3t22 -3.5t19 -2.5q30 -3 44 -3q70 0 109 3q33 3 63 10q25 6 41 15q33 18 41 22q39 20 99 28q62 8 104 8q48 0 76 -25t28 -73q0 -11 -9 -27q-7 -12 -23 -34q-18 -24 -27 -33q-16 -16 -25 -17
q-126 0 -299 9q-154 8 -295 8q-50 0 -87 -20q-36 -19 -52 -62l-3.5 -10.5t-6.5 -22t-8 -27.5l-31 -108q-24 -83 -31 -106q-14 -46 -16 -62q-6 -47 -20 -130q-2 -13 -9.5 -60.5t-12.5 -71.5q-16 -82 -21 -107q-3 -13 -5.5 -25t-4 -19.5t-1.5 -8.5q-1 -8 -11 -28
q-8 -16 -22 -37q-12 -18 -24 -33q-11 -14 -19 -14q-34 0 -51 10q-20 12 -29 26q-10 16 -13 40t-3 53zM514 1296q6 -16 20 -24t29 -8q27 0 57 17q31 18 31 40h-42q-17 0 -45 -2q-17 -1 -36 -7q-14 -4 -14 -16z" />
    <glyph glyph-name="G" unicode="G" horiz-adv-x="2369" 
d="M565 -383q0 25 15 46q17 24 36 38q20 15 49 30q12 6 50 23l876 367q43 18 69 52q28 37 28 101l-234 -67q-45 -10 -110 -21q-49 -8 -132 -19q-46 -6 -142 -16q-71 -7 -140 -12q-28 0 -122 2q-59 1 -147 15q-67 11 -150 37q-74 24 -133 69q-56 43 -95 115q-37 68 -37 168
q0 85 27 162q24 69 69 145q99 164 249 300q148 135 322 233q176 99 350 151q179 53 328 53q15 0 55 -2q27 -1 56 -11q26 -9 44 -30q17 -20 17 -59q0 -59 -24 -77q-23 -17 -76 -17q-54 0 -97 14t-98 14q-94 0 -210 -30q-114 -30 -235 -87t-232 -136q-117 -82 -202 -175
q-92 -99 -143 -208q-53 -112 -53 -230v-55q10 -79 65 -129q52 -48 127 -76q74 -28 150 -35q83 -8 135 -8q196 0 392 46q201 47 378 124q20 10 42 29q21 18 39 39q14 17 29 46q11 22 11 42l-59 12l-326 -35q-24 -5 -39 -15q-18 -12 -34 -12q-39 0 -63 33t-24 70q0 34 17 63
t49 39q34 0 55 -3q14 -2 38 -8t38 -8q21 -3 55 -3l4 1q3 0 9.5 0.5t13.5 0.5q2 0 24 1.5t36 2.5q22 1 77 5t76 5q13 1 33.5 2.5t24.5 1.5l24 2l135 25h6q3 0 4 1t4 1q40 0 62 -20q20 -19 20 -66q-35 -81 -61 -152q-42 -116 -49 -137q-11 -41 -33 -87q-23 -48 -23 -79
q4 0 10 2t7 2l440 213q33 15 74 44q7 5 33.5 24.5t40.5 29.5q47 32 70 44q34 18 65 18q37 0 56 -9q20 -9 20 -44q0 -25 -18 -41q-19 -17 -45 -29q-22 -10 -62 -22q-46 -14 -68 -19q-154 -80 -293 -148q-109 -53 -188 -86q-55 -23 -107 -41q-11 -4 -27 -9.5t-20 -6.5
q-6 -2 -14 -14q-6 -8 -8 -10l-275 -498q-30 -24 -68 -83q-38 -58 -90 -120q-50 -58 -122 -107q-68 -46 -162 -46q-54 0 -102 18q-46 17 -89 49l-290 193q-21 15 -40 41q-18 24 -18 53zM743 -403q25 -25 64 -61q38 -35 88 -67q56 -35 104 -55q54 -22 111 -22q56 0 105 25
q52 27 92 64q38 35 72 82q35 48 55 83q48 87 90 189q49 117 80 212v-2q-1 -1 -1 1q-1 1 0 4q1 7 -4 7l-694 -313q-3 -1 -17 -7.5t-25 -12.5q-34 -17 -59 -32q-30 -18 -52 -37q-23 -20 -23 -34q0 -13 14 -24z" />
    <glyph glyph-name="H" unicode="H" horiz-adv-x="1863" 
d="M979 307l-21 -4q-9 -1 -20 -20q-62 -84 -120 -183q-52 -88 -112 -183q-49 -78 -104 -141q-49 -56 -92 -55q-27 0 -42 24q-16 25 -23 64q-7 40 -6 95q2 64 7 119q10 114 32 243q7 41 20 113t18 104q2 26 -1 35q-3 10 -17 10l-170 15q-42 5 -55 37q-13 33 -9 73q6 66 31 97
q24 30 60 39q40 10 77 6q57 -6 77 -8q32 -3 64 4q30 6 37 36q18 55 36 126q15 58 34 147q13 61 31 152q2 12 26 145q12 66 9 108q-3 43 8 74q12 37 42 52q32 16 66 16q43 0 64 -30q20 -29 14 -69q-2 -29 -13 -55q-12 -27 -25 -53q-23 -46 -28 -55q-14 -25 -22 -58
q-17 -54 -33 -109q-20 -66 -42 -149q-23 -87 -39 -148q-17 -68 -19 -108q-2 -20 9 -24q13 -5 52 -5q5 0 15 0.5t28.5 1t32.5 0.5q27 1 132 7q27 2 80.5 4.5t76.5 3.5q16 1 70 3.5t81 4.5q26 2 66.5 4t51.5 3q48 3 54 3l70 10q10 0 18 13q6 8 7 14q30 126 46 183
q7 24 16.5 61.5t13.5 51.5q12 43 15 58q3 17 -3 23q-5 4 -27 -18q-21 -21 -45 -48q-16 -18 -47 -47q-22 -20 -33 -12q-6 5 7 37q14 35 37 79q26 50 56 98q31 49 66 97q33 45 65 74t56 29q41 0 62 -23q22 -24 18 -76l-15 -34q-4 -10 -9.5 -22.5t-12 -30t-10.5 -27.5l-37 -90
q-26 -65 -27 -68q-1 -2 -6 -22.5t-10 -37.5q-19 -68 -25 -93q-17 -69 -22 -86q-11 -39 -11 -44q0 -4 -1 -5t-1 -5q-1 -4 7 -7q9 -4 43 -5q54 0 134 5q63 4 147 14q77 9 149 21q102 17 137 25q19 4 41 15q31 16 40 21q22 14 40 20q22 8 43 8q39 -1 63 -25q23 -23 19 -73
q-2 -23 -14 -46q-14 -26 -28 -40q-20 -20 -37 -29q-19 -10 -38 -10q-43 0 -84 3t-80 3q-36 0 -67 -1q-16 -1 -51.5 -1.5t-53.5 -0.5q-70 -2 -125 -3q-62 -1 -124 -3q-39 -1 -104 -1h-65q-23 -11 -41 -64q-20 -58 -34 -127q-11 -54 -26 -155q-12 -82 -18 -148q-5 -35 -3 -71
q1 -23 -1 -72q-8 -17 -18 -39q-10 -20 -23 -44q-13 -23 -27 -37q-16 -16 -30 -16q-34 0 -51 17t-26 41q-7 20 -16 54q-7 28 -24 56q-23 38 -62 67t-92 55q-48 23 -104 36q-53 12 -96 6zM608 348l-6.5 -32.5t-11.5 -52.5q-14 -60 -25 -146q-16 -101 -19 -157q-3 -51 17 -52
q11 0 34 26q19 21 53 69q25 35 63 92q24 36 60 98t46 82q20 40 21 49q7 38 -11 65q-17 26 -47 43q-31 18 -62 26q-17 5 -54 15q-22 0 -34 -33q-12 -34 -24 -92zM684 645q-1 -15 24 -28q22 -12 65 -26t86 -24q47 -11 87 -18q34 -6 72 3q36 9 53 1q14 -14 9 -31q-4 -16 3 -33
q4 -10 44 -29q54 -26 92 -45q40 -20 103 -56q57 -33 83 -56q3 -1 8 -6q4 -4 6 -4q4 0 10 7q7 9 7 11l90 387q0 6 2 26q2 15 -12 15h-93l-665 -53q-7 0 -19 -3q-16 -4 -24 -7q-14 -5 -22 -12q-9 -8 -9 -19z" />
    <glyph glyph-name="I" unicode="I" horiz-adv-x="874" 
d="M244 -82q-23 16 -47 23t-52 20q-11 -10 -28 -10q-8 0 -8 14q-6 7 -1 33q5 25 18 50t35 45t48 20q33 0 58 -12q23 -11 63 -11q5 0 10 4q8 6 10 8l269 920q17 60 39 165q18 87 18 165q0 16 -3 29q-3 14 -16 14q-32 0 -62 -6q-35 -7 -58 -7q-12 0 -19 7q-6 6 -16 6
q-14 0 -12 -12q1 -6 -2 -8.5t-11 -2.5l-14 8q-8 4 -32 20q-18 12 -32 26t-14 32q0 25 6 40q6 16 18 29q10 11 29 27q24 20 43 39q45 -1 91 -11q44 -9 90 -9q40 0 57 17q18 18 35 18q19 0 56 -13q34 -12 62 -12h-2q0 1 27 6q24 4 39 4q58 0 92 -21q35 -21 35 -79
q-1 -5 -15 -19t-14 -20q0 -5 1 -8t1 -6q0 -6 -6 -8l-72 -27q-15 0 -33 3t-34 3q-18 0 -30 -11q-13 -11 -17 -26l-232 -672q-42 -126 -70 -269t-28 -277q0 -22 3 -46t32 -24q42 0 78 10q35 10 80 33q35 0 58 -11q25 -12 42 -27q16 -14 24 -34q9 -22 9 -32q0 -34 -37 -62
q-39 -30 -92 -41q-19 0 -35 1t-53 1q-39 0 -79 -2q-11 -1 -29 -2.5t-23 -1.5q-8 -1 -22 -2.5t-20 -1.5q-26 -2 -49 -2q-21 0 -28 6h-129z" />
    <glyph glyph-name="J" unicode="J" horiz-adv-x="1462" 
d="M233 -389q0 44 16 81q13 31 41 60q25 26 56 48q10 7 31 21t31 21q14 10 88 56q25 16 163 99q95 57 201 120q120 71 201 116q5 3 28 22l34 34q7 7 32 37q14 17 16 28q5 26 15.5 78.5t12.5 63.5q13 67 33 153q9 38 34 155q31 142 32 148q50 222 76 334v4q0 2 1 3t1 3
q0 13 -3 22t-13 9q-34 -1 -123 -15q-74 -11 -196 -35q-106 -21 -217 -48q-112 -28 -187 -55l-2 -1l-4 -2q-6 -2 -8 -2q-61 -4 -86 43q-24 47 -29 111q-5 57 36 89q40 32 81 36q13 0 20 1q9 1 21 -7q14 -14 28 -32q11 -14 28 -21q21 -9 48 -10q30 -1 90 3q5 0 20 2.5t24 3.5
q56 6 62 7q42 5 68 10q46 8 66 12q75 16 128 31q56 16 105 55q17 13 29 30q11 16 29 36q11 15 13 21q4 11 21 16q16 2 24 1q9 -1 28 -8q40 -17 56 -30q21 -17 21 -45q0 -37 -8 -72q-27 -80 -41 -129q-11 -35 -31 -105t-22 -79l-14 -54q-4 -15 -12.5 -50t-12.5 -51
q-6 -22 -16.5 -69t-15.5 -66q-7 -27 -18 -79t-16 -74q-15 -63 -34 -155q-20 -95 -29 -144q-1 -10 0 -17q2 -8 27 3q9 5 46 27q35 21 75 42q45 23 79 39q37 17 58 17q13 0 38 3t25 -15q0 -7 -8 -23q-7 -14 -19 -32q-8 -12 -24 -32t-20 -24q-10 -5 -52 -21l-29 -12
q-29 -11 -45 -17t-44.5 -17.5t-32.5 -13.5q-30 -12 -58 -28q-10 -6 -20 -20q-9 -14 -19 -31q-12 -22 -17 -34q-8 -18 -9 -29q-14 -69 -17 -96q-4 -29 -10 -54q-4 -20 -2 -28q-23 -124 -64 -238q-41 -117 -107 -213q-65 -95 -152 -154t-203 -59q-48 0 -108 9q-58 9 -119 30
t-112 52q-53 32 -83 77q-15 21 -20 57q-5 38 -5 66zM1106 10q3 15 7 47q4 33 17 82q6 26 2 33q-5 9 -28 -6q-35 -22 -104.5 -66t-104.5 -66q-103 -65 -194 -128q-92 -64 -155 -114q-66 -52 -93 -87q-16 -11 -28 -39q-11 -25 -11 -43q0 -32 36 -56t81 -40q52 -18 93 -25
q50 -8 66 -8q87 0 157 52q74 55 124 131q55 84 88 169q35 92 47 164z" />
    <glyph glyph-name="K" unicode="K" horiz-adv-x="1906" 
d="M852 829q-8 0 -14 -6q-71 -71 -105 -108q-50 -55 -67 -94q-44 -138 -92 -270q-46 -126 -101 -249q-6 -15 -17 -37q-16 -32 -26 -48q-14 -23 -33 -40q-17 -16 -39 -16q-23 0 -38 9q-14 9 -22 24t-9 31q-2 22 -2 30q0 43 11 68q2 5 11 25.5t15 33.5q46 83 96 209
q45 112 95 265q47 141 87 285q52 184 72 267q37 150 49 211q19 92 20 119q0 6 5 23q2 5 5 14.5t4 14.5q5 15 12 30q7 13 15 20q12 9 33 13t47 1q23 -3 43 -13t21 -25q2 -19 -13 -44q-25 -42 -32 -53q-12 -18 -38 -58q-22 -33 -28 -56q-18 -60 -33 -123q-19 -80 -28 -104
q0 -7 1 -10q2 -5 5 -5q24 11 35 25t32 14q35 0 53 -19q13 -14 28 -42q10 -19 19 -42q8 -20 21 -20h6q1 0 7 2q33 25 95 71q53 40 94 65q72 45 100 61q65 37 112 63q58 32 80 43q71 37 96 48q47 21 97 37q51 16 85 16q40 0 68 -24q29 -24 29 -62q0 -17 -8 -43q-9 -28 -19 -46
q-11 -19 -31 -36q-17 -14 -39 -14q-15 0 -25 8q-12 10 -20 18q-14 14 -23 19q-14 8 -34 8q-68 0 -152 -33q-78 -31 -164 -80q-79 -45 -154 -100q-79 -58 -120 -92q-29 -27 -42 -38q-17 -14 -17 -48q0 -38 15 -78q13 -36 37 -80q21 -39 42 -72q18 -29 33 -49l286 -414
q34 -51 92 -105q48 -46 103 -44q57 0 116 31q56 29 104 67q56 44 88 71q40 34 69 40q13 0 31 -13q16 -12 16 -24q0 -18 -23 -49q-28 -37 -59 -67q-41 -39 -84 -74q-46 -37 -97 -68q-49 -30 -99 -50q-49 -20 -87 -20q-40 0 -73 15q-35 16 -60 38q-18 16 -50 56q-19 24 -44 63
l-387 578q-9 14 -20 38l-25 51q-12 25 -24 45t-19 21z" />
    <glyph glyph-name="L" unicode="L" horiz-adv-x="1472" 
d="M201 43q-4 14 -28 17q-21 3 -50 14q-25 10 -47 38q-21 27 -21 91q0 28 22 53q23 26 51 43q32 19 60 29q29 10 52 10q20 0 32 -12q13 -13 21 -13q2 0 6 4q5 5 6 9l58 274q30 103 71 200q44 103 82 185q41 91 92 189v104q0 14 -15 20t-15 23q0 13 32 42q33 30 75 60
q51 37 80 55q36 23 48 23q102 0 102 -96q0 -19 -20 -45q-25 -32 -47 -54q-6 -6 -16.5 -17t-19.5 -20t-17 -16q-25 -22 -37 -41q-69 -107 -132 -232q-66 -131 -116 -264q-53 -142 -82 -274q-31 -141 -31 -258q0 -31 6 -43t23 -20q150 -36 292 -53q155 -19 294 -19
q107 0 195 14q98 16 192 80q22 16 46 43t52 27t45 -14q19 -16 19 -56q0 -11 -10 -28q-9 -15 -17 -23q-78 -109 -172 -149q-92 -39 -209 -39q-22 0 -41 1t-31 1l-649 114h-8q-17 0 -25 -12q-8 -13 -8 -28v-3t0.5 -4t1 -5.5t0.5 -6.5q2 -20 2 -45q0 -20 -5 -50t-16 -52
q-13 -26 -28 -41q-17 -17 -39 -17q-43 0 -65 31q-21 30 -29 75q-7 43 -9 94q-2 50 -3 87z" />
    <glyph glyph-name="M" unicode="M" horiz-adv-x="1996" 
d="M1294 43l3 10l8 24q3 9 7 25q2 8 5 17q10 28 34.5 98t34.5 98q36 103 93 271q44 130 97 303q42 137 85 293q0 5 -1 7t-1 5v2h-4q-2 0 -3 1t-3 1q-2 -2 -14 -12q-10 -8 -11 -12q-82 -78 -160 -166q-68 -79 -139 -173q-76 -100 -125 -202q-18 -40 -56 -67t-77 -27
q-31 0 -49 12q-19 13 -28 31q-10 19 -11 42q-2 32 -2 46q0 1 2 21q0 4 0.5 8.5t0.5 6.5l1 3l41 260q0 8 2 22t3 22t1 21q0 18 -4 19q-4 -1 -30 -48t-63 -120q-75 -147 -85 -167q-31 -62 -97 -190q-9 -17 -44.5 -85t-53.5 -104q-43 -85 -86 -167q-15 -31 -31 -56
q-20 -33 -44 -61q-24 -29 -51 -48q-26 -19 -58 -19q-49 0 -69 35q-19 34 -19 71q0 18 1 23q2 9 11 22l426 1043q14 33 22 73q10 48 11 80q0 22 -1 32t-1 30q0 42 19 62q20 22 96 22q46 0 73 -24t27 -64q0 -3 -11 -14q-12 -12 -12 -13l-350 -739l-55 -195v-39q1 4 12 16
q10 12 14 13l322 645l123 307q10 26 33 44t57 18q50 0 71 -26t21 -66q0 -7 -1 -10t-1 -9v-12l-76 -451v-53v-2q1 -2 1.5 -6t0.5 -8q2 -15 4 -15q12 5 50 46q44 47 92 105q85 102 113 137l115 145q49 64 94 129q38 55 55 87q16 30 40 47t64 17q56 0 80 -29q25 -30 25 -71
q0 -5 -7 -26q-6 -18 -15 -39q-2 -5 -8.5 -20.5t-10.5 -24.5q-18 -41 -19 -44q-16 -41 -38 -102q-28 -80 -57 -166q-12 -37 -38 -113t-30 -88q-29 -86 -67 -207q-43 -136 -56 -182q-17 -58 -33 -127q-10 -40 -16 -70q-10 -48 -11 -93q-2 -53 9 -89q12 -41 46 -53
q75 -12 154 10q82 23 157 63q70 37 149 93q25 18 70 49.5t64 44.5q23 10 41 5t25 -19q8 -16 5 -31q-3 -16 -22 -27q-5 -5 -32 -22q-11 -7 -34.5 -22t-32.5 -21q-37 -24 -78 -48q-45 -27 -66 -36q-20 -10 -90 -51q-51 -30 -100 -52q-57 -26 -107 -41q-54 -16 -115 -16
q-59 0 -99 18q-41 18 -65 48q-25 32 -34 69q-9 39 -3 82z" />
    <glyph glyph-name="N" unicode="N" horiz-adv-x="1552" 
d="M342 -152q-5 28 -6 44q-2 24 -2 40q0 10 9 46q9 37 24 65l262 956v27q-17 0 -31 -13q-15 -13 -27 -30q-17 -23 -23 -30q-12 -13 -20 -13h-24q-7 0 -15 8q-7 7 -15 20q-9 15 -12 22q-5 13 -5 18q0 10 15 37q18 32 38 63q22 34 48 72q22 32 48 67q26 34 38 49l15 17
q25 35 42 73q18 39 36 72t42 54q25 22 61 22q26 0 52 -8q23 -7 23 -53q0 -37 -16 -73q-17 -38 -39 -78q-15 -27 -45 -79q-23 -39 -33 -72q-32 -97 -63 -182q-40 -112 -61 -175q-32 -98 -46 -149q-18 -66 -18 -104v-43l8 8l367 903q11 24 25 38q16 16 50 16q29 0 59 -15
t30 -43q0 -4 -3 -16q-32 -88 -71 -203q-29 -86 -54 -180t-36 -164q0 -2 -12 -77q-7 -43 -19 -132q-11 -77 -18 -163q-9 -104 -9 -166q0 -52 5 -109q4 -48 19 -89q13 -37 35 -60q21 -23 56 -23q46 0 95 33q54 36 96 78q38 38 81 93q19 24 60 79q76 117 121 225q46 112 75 227
q28 110 40 233q12 119 12 240q0 83 -1 125q-1 63 -3 129q1 10 9 28q7 17 23 17q32 0 36 -27q5 -30 5 -48q0 -46 1 -76q1 -15 1.5 -47t0.5 -48q1 -17 1.5 -51.5t0.5 -51.5q1 -35 1 -97q0 -226 -64 -446t-194 -406q-30 -51 -75 -114t-102 -117t-122 -91t-137 -37q-58 0 -95 32
q-36 31 -54 77q-20 50 -24 96q-5 57 -5 90q0 74 14 171q29 199 32 219q6 38 17.5 114t17.5 114q16 103 23 202v12q-20 0 -27 -16q-9 -19 -14 -35l-194 -473l-174 -580q-1 -9 -10 -30q-5 -12 -21 -32q-12 -15 -28 -26q-14 -10 -33 -10q-17 0 -38 8t-32 22z" />
    <glyph glyph-name="O" unicode="O" horiz-adv-x="2048" 
d="M449 365q0 51 12 99q13 50 27 95q20 62 28 91q12 44 12 87v19q-11 45 -23 72q-12 28 -24 59q-8 21 -17 60q-7 29 -7 77q0 150 59 237q61 90 154 137q92 47 210 62q115 15 230 15q14 5 51 41q3 3 87 79q48 43 93 78q46 35 70 35q59 0 99 -21t40 -92q0 -26 -17 -50
q-24 -34 -38 -50q-5 -5 -38 -47q-17 -21 -17 -41q0 -4 5 -12q5 -9 15 -13q106 -39 229 -104q113 -60 214 -150q94 -84 158 -192q63 -107 63 -236q0 -128 -52 -238q-53 -112 -139 -204q-89 -95 -198 -165q-115 -73 -234 -122q-116 -47 -241 -75q-122 -27 -226 -27t-213 31
q-103 29 -187 92q-84 62 -134 154q-51 93 -51 219zM604 406q0 -100 42 -173t110 -123q72 -52 149 -75q86 -25 162 -25q94 0 202 20q106 20 209 57q99 36 197 95q92 56 166 134q71 76 114 172q42 95 42 208q0 120 -52 211q-54 94 -135 162q-85 71 -185 119q-103 50 -204 84
q-17 6 -36 12t-42 6q-1 0 -3.5 -0.5t-6.5 -1t-8 -0.5q-13 -1 -18 -6l-99 -90q-4 0 -7 -1t-9 -1q-21 0 -31 11t-26 11l-10 -2q-8 -1 -19 -6l-21 -8q-9 -4 -14 -4l-36 -36q-35 -35 -53 -55t-53 -55q-29 -29 -34 -36q-21 -26 -44 -60q-45 -65 -55 -80q-34 -51 -47 -74
q-20 -35 -20 -44q-1 -40 29 -74q29 -32 77 -63t100 -57t101 -56q46 -28 78 -60q31 -31 31 -65q0 -19 -9 -38t-23 -35q-14 -15 -31 -24q-20 -10 -31 -10h-22q-6 0 -12 2q-3 1 -11 7q-12 9 -17 14q-14 11 -36 32q-9 9 -63 58q-52 48 -76 69q-8 7 -34.5 30.5t-39.5 35.5
q-8 7 -28 25t-29 25q-25 20 -26 20q-11 0 -22 -27q-11 -28 -18 -59q-6 -28 -10 -62q-3 -29 -3 -34zM604 1034q0 -16 1 -29q2 -26 4 -39q2 -14 12 -34q7 -14 22 -14q11 0 16 5l15 15l319 389q0 18 -7 19q-10 2 -17 2q-77 0 -143 -18t-115 -55q-50 -38 -78 -97
q-29 -61 -29 -144z" />
    <glyph glyph-name="P" unicode="P" horiz-adv-x="1527" 
d="M317 1303q0 30 4 96q3 48 18 89q14 39 48 65t92 26q31 0 53 -3q26 -4 52 -17q35 -19 80 -40q13 -6 55 -27t67 -32t67 -31t57 -27q17 -8 33.5 -15.5t29.5 -14t18 -8.5q18 -9 33 -15q7 -3 29 -3q29 0 42 34q6 15 28 77q14 41 43 77q27 35 87 35q45 0 84 -28q37 -27 37 -79
q0 -18 -7 -24q-10 -8 -16 -10q-9 -3 -21 -6t-19 -13q-5 -11 -23 -30l-33 -34q-6 -7 -15.5 -18t-13.5 -15q-14 -16 -14 -26q0 -2 10 -14q8 -10 17 -15l320 -151q33 -14 71 -41q36 -25 63 -55q26 -29 45 -68q17 -35 17 -80q0 -80 -47 -138q-43 -53 -115 -93q-69 -38 -144 -59
q-77 -21 -138 -33q-23 -6 -67 -14q-48 -9 -102 -18q-15 -3 -103 -19q-53 -10 -66 -11q-16 -1 -33 -14q-15 -11 -20 -31l-187 -823q-2 -12 -10 -70q-5 -41 -22 -89q-15 -44 -41 -76q-25 -31 -64 -31q-36 0 -56 20q-23 23 -35 50q-14 32 -20 64q-7 39 -8 60l-71 834
q-1 8 -4 26.5t-4 25.5q-4 31 -9 54zM496 354q7 -82 23 -209q7 -56 31 -218q13 -88 31 -171q15 -69 25 -69l4 2l27 53l194 682q0 19 -10 23q-14 6 -22 6q-50 0 -97 -4q-48 -4 -99 -14q-47 -9 -78 -24t-31 -36q0 -5 1 -10t1 -11zM868 674q-28 0 -65 -12q-28 -9 -70 -28
q-17 -8 -55 -28q-23 -12 -23 -14v-17q0 -6 25 -8q32 -2 35 -2q43 0 63 1q35 2 55 8q21 7 37 24q15 16 15 49q0 9 -2 19q-2 8 -15 8zM1174 1161q-19 0 -32 -13q-15 -15 -22 -33q-10 -26 -13 -39q-5 -21 -9 -32q-19 -55 -36 -111q-7 -22 -20.5 -66t-20.5 -67q-4 -13 -16 -54
t-18 -59q-14 -45 -14 -50v-47q71 0 149 11q91 13 175 37q90 26 170 69q84 45 137 108q0 41 -15 74t-38 59q-24 27 -54 48q-36 26 -63 40q-28 15 -82 43q-57 29 -81 41q-31 15 -65 30q-25 11 -32 11zM451 1079q0 -15 -1 -35t-1 -74q0 -62 1 -96q2 -63 4 -94q3 -40 11 -71
q8 -29 20 -29l22 9q6 3 24 10.5t29 12.5q4 2 30 12.5t41 17.5q39 18 75 33q23 10 64 29q24 12 43 19q23 10 46 15q28 6 41 10q20 6 34 19t22 44q4 15 15 54q4 15 11 44.5t9 36.5q9 37 21 79q4 13 8.5 31l5.5 22q2 2 2 8v10q0 20 -13 34t-32 19q-3 1 -69 25q-90 33 -105 38
q-67 23 -104 37q-11 4 -68 23q-46 15 -54 16q-18 3 -46 3h-52q-23 -17 -30 -60q-9 -52 -9 -96q0 -12 0.5 -25t1.5 -29t1 -25q2 -54 2 -77z" />
    <glyph glyph-name="Q" unicode="Q" horiz-adv-x="1875" 
d="M1528 160q-5 0 -35 -19q-13 -8 -63 -43l-69 -48q-37 -26 -52 -32q-88 -43 -191 -65q-99 -21 -203 -21q-129 0 -256 48q-122 46 -216 131q-91 82 -149 198q-56 112 -56 252q0 121 32 237t94 231q61 114 144 211q88 103 185 172q104 73 217 116q114 43 239 43q84 0 184 -28
q93 -26 176 -81q80 -53 131 -132q52 -81 52 -181q0 -34 -9 -52q-8 -17 -17 -24q-6 -5 -17 -16q-9 -9 -9 -29q0 -8 1 -16t1 -15q7 -29 23 -79q18 -57 23 -74q7 -25 17 -75q7 -35 7 -83q0 -60 -6 -113q-6 -50 -23 -108q-7 -26 -17 -45l-22 -49q-12 -25 -20 -49q-8 -26 -8 -46
q0 -22 44 -58q41 -34 102 -73q44 -28 116 -68q62 -34 82 -48q40 -25 86 -35q14 -3 43.5 -10t43.5 -10q44 -10 68 -23q27 -15 27 -51q0 -6 -6 -24q-8 -24 -13 -38q-7 -21 -15 -36l-7 -15q-22 0 -50 2q-15 1 -41 7q-15 3 -38 15q-26 13 -41 23q-5 3 -44 30q-7 5 -81 55
q-19 13 -99 70q-53 37 -99 69q-19 13 -81 56q-31 22 -44 29q-9 5 -23 11q-15 6 -18 6zM348 571q0 -116 50 -210q49 -92 133 -159q85 -68 188 -102t213 -34q113 0 208 39q97 40 189 104l33 20q16 10 16 33q0 3 -1 6t-1 6q-74 80 -166 162q-89 79 -179 177q-82 90 -143 200
q-59 107 -59 227q0 69 21 129q22 62 60 103q39 41 97 66q57 24 128 24q80 0 150 -29q65 -27 140 -69q0 33 -37 63q-35 28 -92 54q-48 22 -109 38q-57 15 -93 15q-153 0 -289 -80q-134 -79 -237 -206q-98 -121 -160 -279q-60 -153 -60 -298zM983 1030q0 -90 47 -179
q44 -84 117 -171q71 -84 147 -152q67 -59 140 -118q16 -15 21 -18t22 -3q26 0 46 38q18 35 31 86q15 58 18 94q5 52 5 63q0 88 -33 179q-34 94 -92 165q-61 75 -141 120q-82 46 -178 46q-65 0 -108 -41q-42 -41 -42 -109z" />
    <glyph glyph-name="R" unicode="R" horiz-adv-x="1705" 
d="M297 14q0 24 1 43q2 29 3 33l96 612v7q0 4 1 5t1 3q0 25 -30 37q-33 13 -68 30q-38 18 -68 53t-30 101q0 55 43 79q42 23 90 23q36 0 55 -4q39 -8 60 -14q26 6 43 30q15 21 26 52q14 38 19 57q8 29 18 47q79 125 147 203q71 81 138 115q13 12 27 33q13 19 21 37
q12 26 20 39q12 19 28 34q52 0 65 -1q18 -1 26 -9q6 -6 8 -24q2 -22 7 -46q2 -8 22 -16q2 -1 18 -7.5t25 -9.5q16 -5 46 -15q23 -7 33 -15q72 -57 102 -117q31 -62 31 -147q0 -134 -72 -239t-186 -171l-36 -18q-28 -14 -42 -22q-21 -12 -35 -19t-14 -11q-2 -5 8 -17
q9 -12 21 -17q50 -35 122 -96q84 -71 142 -123q29 -26 149 -139q50 -47 147 -142q47 -46 133 -132q17 -17 107 -110q41 -30 73 -55q34 -27 34 -78q0 -13 -3 -17q-5 -8 -7 -9q-1 -1 -5 -3t-6 -4q-8 -6 -14 -12q-9 -9 -14 -24q-3 -9 -11 -23q-6 -11 -15 -18q-8 -7 -28 -7
q-34 0 -61 29q-23 25 -50 68q-25 40 -42 79q-18 40 -37 64q-47 61 -105 127q-26 30 -136 149q-62 68 -137 144q-66 68 -111 108q-1 1 -30.5 27t-46.5 40q-40 34 -86 66q-48 33 -87 52q-41 20 -82 20q-37 0 -44 -10q-9 -13 -16 -35l-157 -690q-6 -24 -18 -53q-17 -42 -28 -59
q-19 -29 -40 -47q-22 -19 -52 -19q-40 0 -60 20q-22 22 -32 50q-10 30 -12 65q-2 46 -2 63zM514 721q-8 0 -16 -29q-10 -38 -16 -74q-6 -37 -13 -100q-3 -26 -10 -105q-5 -49 -6 -90q-2 -54 -2 -57q12 0 18 10l-2 -2q0 2 9 35q4 13 23 80q2 8 28 103q4 14 14 49.5t14 52.5
q9 33 22 78q3 10 4.5 17t2.5 10t0 3l-8 19h-62zM999 1403q-31 0 -56 -30q-25 -29 -46 -73q-19 -40 -37 -90q-6 -18 -15.5 -46t-12.5 -36q-12 -28 -19 -49q-7 -20 -19 -60q-3 -10 -17 -52q-7 -21 -7 -25v-47q62 0 134 26q70 25 130 69q60 43 98 106q37 61 37 133
q0 75 -46 124q-47 50 -124 50zM584 989q0 -18 16 -28q17 -11 33 -11q23 0 31 27l98 293l-10 8q-31 -29 -54 -58q-27 -34 -54 -77q-22 -35 -43 -82q-17 -38 -17 -72z" />
    <glyph glyph-name="S" unicode="S" horiz-adv-x="1957" 
d="M268 86q1 25 18 42t37 24q24 9 47 10q34 2 48 2h39q197 -17 376 -36q178 -19 375 -19h152q45 9 73 16q37 9 80 29q39 18 67 46t32 68q2 34 -13 68q-18 41 -37 66q-22 29 -52 59q-24 24 -50 43q-84 58 -154 96q-75 41 -162 79q-75 33 -168 67q-57 21 -171 67
q-47 18 -126 38q-73 19 -132 46q-62 29 -101 77q-38 47 -32 128q2 41 27 74q23 30 62 56q32 22 76 41q32 14 74 27q7 2 26 7.5t31 9.5q60 17 70 21q40 14 62 20q29 8 30 8q195 45 306 72q9 2 113 27q67 16 103 24q9 2 36.5 8t39.5 9q9 2 17 4.5t13.5 4t6.5 1.5q8 2 19 2
q15 0 25 -1t30 -5q14 -3 24 -11q9 -7 9 -20q0 -23 -7 -61q-7 -37 -26 -74q-18 -35 -48 -56t-73 0q-42 20 -98 21q-60 1 -129 -6q-56 -6 -141 -22q-19 -4 -134 -26q-25 -5 -76 -22q-44 -15 -113 -43q-57 -23 -103 -51q-47 -28 -48 -49q-1 -16 20 -33t51 -33q10 -6 61 -31
q40 -20 49 -26q104 -49 195 -91q90 -41 193 -90q30 -14 84.5 -39.5t79.5 -37.5q61 -29 109 -58q54 -33 100 -65q57 -39 106 -88q50 -50 83 -107q33 -58 29 -119q-1 -19 -13 -46q-10 -23 -22 -44q-20 -35 -22 -39q-9 -18 -9 -30q0 -11 76 -11q69 0 156 5q69 4 155 4
q48 0 69 -8q19 -7 15 -29q-1 -17 -17 -36q-14 -17 -38 -17l-518 2q-1 0 -29 -7q-34 -8 -39 -10q-196 -55 -395 -99q-197 -43 -399 -42q-100 0 -184 17q-88 18 -183 42q-70 18 -94 51q-25 34 -19 109zM719 37q13 -9 36 -14t44 -5q85 0 123 1q59 2 118 16l-8 8q-10 0 -28 1
q-39 2 -58 5q-37 1 -82 6q-25 -4 -31 -4q-16 -1 -45 -5q-22 -3 -42 -6t-27 -3z" />
    <glyph glyph-name="T" unicode="T" horiz-adv-x="1437" 
d="M735 -197q0 14 1 25t1 18q73 259 131 482l48 189q24 95 42 177q19 86 30 145q11 58 11 93q1 4 -7 13q-9 9 -9 13q-24 1 -167 13q-36 3 -98.5 8.5t-79.5 7.5q-13 1 -148 14q-60 6 -74 11q-5 1 -41 4.5t-57 5.5q-54 6 -102 24q-50 19 -80 50q-32 34 -32 92q0 52 29 92
q28 39 70 68t89 50q6 3 87 40q23 10 134 60q72 32 142 57q68 24 147 43q75 18 148 18q68 0 114 -21q48 -22 74 -55q27 -34 39 -85q11 -45 11 -107q0 -75 -20 -149q-19 -70 -19 -148q0 -17 8 -20q7 -3 25 -3q11 0 26 3t23 16l192 380q12 23 30 42q18 20 46 20q34 0 62 -23
q26 -22 26 -57q0 -49 -34 -98q-40 -57 -73 -94q-20 -22 -74 -88q-34 -41 -34 -78v-13q0 -8 8 -8h101q1 0 6 0.5t16 2t21 2.5q15 2 48 6.5t46 6.5q2 0 120 14q32 4 117 11q10 1 58 5q30 3 66 9q28 5 65 16q32 10 51 23q21 15 33 33q16 24 25 36q13 17 31 29q16 11 50 11
q22 0 48 -8q23 -7 42 -23q21 -17 31 -34q12 -20 12 -40q0 -32 -17 -57q-18 -27 -45 -45q-28 -18 -61 -30q-33 -11 -67 -13q-128 -10 -236 -15q-101 -4 -202 -9q-128 -6 -194 -7q-29 0 -98.5 -1.5t-109.5 -2.5q-21 -5 -33 -15q-16 -13 -20 -30q-60 -117 -92 -184
q-48 -102 -76 -167q-33 -78 -63 -161q-30 -84 -56 -166q-16 -46 -21 -85q-5 -42 -5 -76q0 -64 7 -126t7 -163q-35 -47 -63 -87t-64 -40q-47 0 -70 13q-24 13 -36 36q-14 26 -15 49q-2 36 -2 55zM1167 961q-22 0 -41 -28q-18 -27 -30 -68q-13 -46 -20 -82q-7 -39 -7 -68
q0 -7 1 -12t1 -11q5 8 20 40q5 10 15.5 33.5t16.5 36.5q16 33 31 70q13 32 13 41v48zM338 1184q0 -33 31 -55t63 -29q63 -15 130 -27q46 -8 138 -22q75 -11 138 -17q67 -6 125 -6q33 0 48 16q14 15 22 41q6 20 8 55q1 20 3 58q0 68 -3 113q-3 46 -17 70q-15 26 -46 36
q-30 10 -87 10q-28 0 -75 -10q-56 -12 -111 -28q-49 -14 -126 -43q-59 -22 -119 -52q-54 -27 -88 -55t-34 -55z" />
    <glyph glyph-name="U" unicode="U" horiz-adv-x="2134" 
d="M303 51q0 8 2 44q1 20 7 59q1 9 3 19t5 22t4 19q5 27 12 50l221 875v10q0 6 1 9t1 9q0 13 -6 13q-3 0 -49 -26q-43 -24 -129 -112q-11 -11 -33 -41q-37 -51 -44 -59q-26 -32 -48 -53q-25 -23 -45 -23q-44 0 -74 30q-31 31 -31 67q0 18 12 36q13 20 33 33q78 63 142 127
q60 60 119 127q39 45 106 127q80 99 104 129q22 27 42 39q19 12 55 12q54 0 74 -38t20 -87q0 -19 -9 -46q-9 -28 -26 -52q-14 -24 -30 -66q-8 -20 -36 -107q-4 -13 -40 -128q-8 -26 -21.5 -71.5t-16.5 -56.5q-11 -37 -31 -110q-7 -28 -22 -71q-45 -150 -81 -318
q-35 -166 -35 -323q0 -62 35 -77q34 -15 81 -6q49 9 96 33q58 29 77 40q70 41 159 108q77 58 166 137q71 63 158 152q73 75 136 150q53 63 100 135q42 64 53 104q0 2 1.5 7t4 14t4.5 17q4 16 18 68q3 11 11 39.5t12 44.5q4 14 11 42.5t11 41.5t10 35.5t9 32.5q10 37 10 39
l15 61q8 35 26 70q16 32 43 56t68 24q72 0 99 -39q28 -40 28 -98q0 -28 -27 -87q-32 -68 -67 -134q-36 -66 -88 -156q-57 -99 -89 -156q-56 -99 -75 -209q-19 -108 -19 -215v-122q0 -57 16 -98q17 -43 57 -67q41 -24 120 -24q81 0 152 39q66 37 130 86q3 3 23.5 19t33.5 27
q46 36 68 54q31 25 58 46q26 20 32 20q36 -5 54 -16q20 -12 20 -40q0 -47 -30 -77q-10 -10 -31 -32t-33 -34q-56 -53 -105 -91q-63 -49 -116 -79q-63 -35 -131 -56q-72 -22 -142 -22q-94 0 -153 34q-60 35 -94 89q-34 55 -46 124t-12 136q0 50 6 98t6 99q0 7 -1 12
q-2 9 -11 10q-1 -4 -16 -16t-19 -16q-54 -54 -102 -110q-41 -47 -94 -104q-46 -49 -113 -111q-64 -59 -158 -128q-35 -25 -91 -57t-125 -63q-58 -26 -134 -50q-64 -20 -117 -20q-43 0 -69 19t-41 49q-16 31 -20 65q-5 38 -5 65z" />
    <glyph glyph-name="V" unicode="V" horiz-adv-x="1132" 
d="M381 319q-2 75 1 160q4 137 7 197l8 205q2 40 7 184q4 105 3 132q-2 50 -10 50q-13 0 -37 -30q-19 -24 -51 -70q-8 -12 -16.5 -24.5t-18.5 -27.5t-15 -23q-24 -36 -34 -46h-22q-10 0 -31 6q-19 5 -42 17q-29 15 -38 21q-16 12 -16 22q0 25 32 66q34 43 76 87q28 29 91 96
q46 49 77 97q12 18 35 24t43 6q64 0 83 -43q19 -42 19 -100q0 -66 -14 -125t-14 -129q0 -10 -10 -299q0 -19 -1 -57.5t-2 -57.5q-1 -57 -3 -105t0 -84q1 -24 4 -48q3 -21 5 -42q3 -33 9 -74q2 -11 14 -88q6 -37 21 -84q12 -38 27 -63q15 -26 34 -26q23 0 61 38q31 31 76 88
q40 51 71 98q35 54 44 69l674 1173q19 26 48 58q30 33 75 71q42 36 82 61t69 25q66 -2 108 -19q44 -18 42 -71q-4 -20 -26 -33q-22 -12 -52 -20q-20 -5 -64 -17q-29 -8 -59 -28q-32 -22 -73 -66q-40 -43 -94 -115q-56 -75 -124 -181q-65 -101 -163 -263q-97 -160 -210 -358
q-34 -61 -76.5 -135.5t-98 -173t-91.5 -162.5q-40 -70 -47 -82q-21 -38 -55 -79q-28 -34 -70 -58q-40 -23 -88 -23q-68 1 -104 54q-34 50 -49 124t-18 156t-9 145z" />
    <glyph glyph-name="W" unicode="W" horiz-adv-x="2070" 
d="M1059 111q0 23 2 53q1 17 8 55q12 58 17 82q4 17 13.5 59.5t14.5 66.5q15 66 27 126q12 58 18 82v45l-10 -10q-9 -15 -38 -67q-24 -43 -59 -101q-42 -70 -60 -102q-14 -24 -38 -66q-54 -89 -109 -151q-64 -72 -130 -134q-29 -29 -74 -41t-86 -12q-54 0 -95 37
q-42 38 -54 88q0 3 -0.5 8.5t-1 15.5t-0.5 18q-1 21 -1 42q0 16 5 44q8 46 14 72q5 21 29 116q4 17 49 180q35 126 75 265q17 59 57 191t52 174q0 10 -16 -3q-18 -15 -41 -42l-213 -248q-7 -10 -27 -10h-29q-12 0 -34 6q-23 6 -44 18q-28 16 -37 25q-16 16 -16 31
q0 36 27 66q29 33 53 51q129 96 203 153q98 76 186 174q25 19 38 23q12 4 36 4q64 0 89 -42q26 -43 26 -99q0 -9 -25 -75t-58 -146q-17 -41 -72 -180q-39 -98 -62 -173q-46 -143 -72 -223q-37 -112 -37 -231q0 -21 1 -39q2 -36 5 -54q4 -26 12 -46q7 -19 21 -19q16 0 32 8
q12 6 25 19q62 58 133 131q61 63 114 139q56 81 107 183q45 91 111 263q25 65 41 124q18 67 37 108q21 47 51 77q29 29 84 29q54 0 81 -37q28 -39 28 -88q0 -4 -10 -17t-24 -30q-9 -11 -27 -35q-13 -18 -19 -32q-26 -69 -52 -159q-35 -124 -53 -201q-21 -94 -38 -213
q-15 -108 -15 -194q0 -85 22 -146q21 -58 70 -64q150 -23 267 29q121 54 211 151q92 100 157 228t109 267q41 128 63 263q21 127 21 219q0 50 -26 96q-26 45 -42 96q-11 35 -34 62t-23 61q0 39 41 60q39 20 94 20q42 0 66 -18t36 -47q13 -31 16 -63q3 -35 3 -66v-48
q0 -39 -1 -60t-1 -59v-42q0 -88 -24 -218q-26 -141 -72 -275q-52 -151 -128 -289q-81 -146 -190 -260q-110 -115 -255 -187q-144 -72 -327 -72q-62 0 -102 20q-39 19 -60 51q-22 32 -29 74q-7 39 -7 85z" />
    <glyph glyph-name="X" unicode="X" horiz-adv-x="1710" 
d="M1581 1407l8 16q7 13 14 25t13 23q6 12 10 16q5 8 25 18q28 14 44 20q24 9 45 15t29 6q21 0 33 -9q14 -11 21 -24q9 -17 11 -30q3 -17 3 -31q0 -16 -3 -20q-5 -8 -15 -25q-20 -33 -42 -52q-18 -16 -45 -29q-8 -4 -24 -11.5t-24 -11.5q-20 -10 -50 -35
q-138 -124 -251 -249q-94 -104 -232 -263q-14 -14 -26 -24q-18 -15 -19 -15h-12q0 13 7 24q3 5 7.5 13.5t5.5 9.5q36 46 87 105q41 47 71 110zM907 502l4 41q2 21 1 32q-2 17 -3 27q-39 131 -82 294q-36 136 -65 300q0 2 -3 10q-4 10 -5 13q0 6 -9 6q-18 0 -26 -17l-16 -16
q-4 -4 -7.5 -8t-8 -9.5t-7.5 -8.5l-25 -26q-3 -3 -5.5 -6t-4 -5t-3.5 -3l-1 -2q-2 -2 -5.5 -4.5t-9.5 -8t-11 -9.5q-32 -27 -43 -36q-16 -13 -44 -39q-5 -5 -12 -11.5t-11 -10.5t-7 -6q-15 -8 -27 -14q-18 -8 -31 -8q-22 0 -33 10q-11 9 -19 26q-5 10 -11 30t-10 28
q0 3 -13 16q-12 12 -12 15q-2 2 -2 4v4v4q0 2 2 2q7 6 28 25q28 26 42 38t42 38q20 18 27 24q27 24 50 52q5 6 24.5 29.5t29.5 36.5q11 14 55 63q25 28 52 48l8 4q8 3 15 5q20 7 40 11q28 6 40 9q16 4 24 4q33 0 49 -23q17 -25 27 -46q4 -54 5 -74q2 -31 8 -112
q6 -84 8 -111q1 -21 3.5 -47t2.5 -27q0 -2 0.5 -5t1 -9t0.5 -10q1 -10 5 -37q4 -28 5 -36q1 -10 4 -26q0 -2 1 -5.5t2.5 -10.5t2.5 -12q9 -42 10 -46q1 -3 5.5 -20.5t6.5 -26.5q1 -5 3 -13t3 -13t1 -9q6 -21 23 -64q15 -37 44 -54q0 -2 2 -18q0 -4 2 -11.5t2 -11.5
q2 -16 3 -23l2 -14q0 -2 3 -11q1 -3 3 -8t2 -6q16 -36 62 -117q37 -66 102 -149q56 -73 124 -128q66 -54 130 -54q32 0 65 5t66 5h53q27 -21 27 -51q0 -31 -17 -57t-43 -45t-60 -29q-36 -11 -67 -11q-99 0 -179 50q-78 49 -140 121q-63 74 -109 154q-68 119 -82 144
q-8 15 -22 45q-11 23 -29 46q-7 8 -14 7q-8 -2 -19 3zM104 -532q0 17 2 27q1 7 17 26q131 183 252 336q140 177 216 268q68 82 160 189q75 87 87 100q4 4 10 9.5t8 7.5q7 7 21 7q0 -16 -15 -37q-118 -141 -221 -308q-24 -39 -197 -322q-1 -1 -12.5 -20.5t-18.5 -29.5
q-12 -16 -34 -48q-3 -5 -13.5 -20t-15.5 -22q-14 -21 -18 -26q-19 -30 -23 -41t-4 -35q0 -18 4 -25t4 -22q0 -20 -10 -37q-11 -18 -29 -35q-16 -15 -42 -26q-25 -11 -50 -11q-28 0 -44 8q-15 7 -23 22q-9 16 -10 30q-1 11 -1 35z" />
    <glyph glyph-name="Y" unicode="Y" horiz-adv-x="1155" 
d="M16 -582q0 66 28 141q28 74 65 126l557 907l20 41v8q0 2 -30 8q-3 1 -28 6t-41 8q-49 9 -79 16q-36 8 -57 17q-89 39 -166 128q-80 92 -143 206q-59 107 -99 236q-37 120 -37 217q0 23 3 45t32 22q17 0 39 -6t37 -6h4q2 0 4 2l47 47q18 0 22 -16q5 -18 5 -27
q0 -18 -7 -32q-8 -16 -8 -33q0 -19 15 -35q14 -15 14 -33q0 -16 -5 -38t-5 -42q0 -84 40 -174q42 -95 105 -171q65 -78 149 -130q83 -51 169 -51q8 0 40 2q14 1 47 7q24 4 44 16q19 11 30 30l293 508q33 57 79 105q43 45 114 45q66 0 90 -38t24 -104q0 -99 -26 -183
q-27 -88 -75 -164q-47 -75 -115 -140q-70 -67 -144 -111q-33 -20 -71 -36q-24 -10 -70 -30q-36 -16 -68 -36q-33 -21 -59 -53q-58 -98 -146 -242q-68 -112 -156 -260q-91 -153 -142 -246q-67 -121 -95 -199q-19 -34 -32 -70q-15 -40 -15 -77q0 -16 18 -16h11q7 6 26.5 23
t28.5 26q14 11 42 37q16 15 28 22q2 1 4.5 3t7 5t8.5 6q20 14 30 20q17 10 29 15q14 6 21 4q15 -7 4 -40q-10 -30 -38 -75q-31 -50 -66 -93q-39 -48 -78 -90q-36 -39 -75 -68q-36 -27 -56 -27q-64 0 -103 36t-39 101zM1008 936q0 -10 8 -10q10 0 26 10q19 12 25 18
q68 62 116 131t48 168q-15 0 -50 -42q-29 -36 -70 -95q-27 -39 -65 -106q-31 -54 -38 -74zM31 1477q0 -3 2 -17q0 -2 5 -21q3 -13 6 -20q3 -8 7 -8t7 8q5 13 7 20q2 9 4 21q1 7 1 17q0 26 -19 26q-20 0 -20 -26z" />
    <glyph glyph-name="Z" unicode="Z" horiz-adv-x="2476" 
d="M778 150q-23 0 -49 -13q-28 -14 -48 -29q-16 -12 -44 -36q-31 -27 -37 -31q-60 -42 -112 -70q-53 -28 -126 -28q-55 0 -98 23q-45 24 -77 62q-30 36 -49 88q-17 47 -17 103q0 49 18 86q18 38 50 62q31 24 74 36q45 13 87 13l28 -4q18 -3 73 -14q40 -8 104 -24
q48 -12 125 -40q23 0 41 3t39 15q60 51 158 142q92 86 196 187q93 90 214 213q99 100 212 220q54 46 81 68q42 34 79 57q0 8 8 8q4 10 -8 18q-11 7 -19 9q-59 7 -103 15q-64 12 -156 24q-61 8 -209 23q-119 12 -263 18q-67 2 -107 -8q-54 -13 -82 -22q-25 -8 -75 -20
q-40 -10 -84 -4q-26 1 -39 16q-13 14 -17 33q-5 23 -4 45q1 17 1 56q0 42 23 71t67 29q256 -51 467 -82q75 -12 207 -29q108 -13 216 -24t211 -15q114 -5 195 -1h320q19 0 32 -13q14 -14 19 -28q7 -18 8 -36q2 -26 2 -32q0 -9 -15 -21q-16 -13 -20 -22q-10 -14 -17 -30
q-9 -19 -16 -30q-10 -15 -24 -22q-16 -8 -35 -8q-27 0 -60 5t-61 5q-79 0 -155 -21t-146 -59q-71 -39 -132 -85q-63 -48 -116 -101l-612 -612q-10 -7 -10 -27q0 -13 8 -18q5 -3 29 -8q112 -38 225 -84q187 -77 225 -92q93 -36 225 -77q108 -34 220 -43q109 -9 214 12
q106 21 206 87q52 34 78 68q27 34 35 61t10 52q1 21 10 40q7 16 29 24q18 7 71 5q60 0 64 -78q2 -99 -33 -165q-34 -65 -92 -109q-56 -43 -133 -66q-79 -24 -150 -32q-80 -9 -147 -8q-74 2 -125 3q-86 4 -171 18q-85 13 -169 42l-725 253h-7q-5 0 -6 1q-2 2 -4 2zM334 205
q0 -31 28 -40q29 -9 52 -9q1 0 27 2q16 1 40 8q19 5 35 15q14 8 14 24q0 12 -17 18q-18 6 -40 9q-30 4 -44 5t-30 1q-10 0 -42 -4q-23 -3 -23 -29z" />
    <glyph glyph-name="bracketleft" unicode="[" horiz-adv-x="724" 
d="M631 1356h2v-2h-2q33 -6 33 -43q0 -31 -17 -62q-17 -30 -42 -54q-24 -23 -58 -38q-31 -14 -66 -14q-43 0 -84 7q-44 8 -86 9q-34 -204 -46 -420q-10 -177 -17 -415q0 -4 -1.5 -40.5t-2.5 -60.5q-2 -80 -2 -127q0 -63 3 -126q3 -56 11 -113q53 -10 83 -13q37 -4 85 -4
q16 0 48 2q24 2 48 6q22 15 41 15q27 0 27 -35q0 -27 -19 -70q-17 -38 -53 -77q-28 -23 -61 -32q-34 -9 -74 -9q-68 0 -133 16q-71 17 -115 33q-20 16 -20 44v54q0 117 12 235q12 120 18 228q13 194 14 215q2 56 11 215q3 88 5 264q2 139 17 264q16 42 37 67q23 27 60 48
q69 25 139 25q80 0 139 4q12 0 32 2t34 2z" />
    <glyph glyph-name="backslash" unicode="\" horiz-adv-x="739" 
d="M356 678q14 -24 23 -42q5 -10 35 -64q32 -58 59 -103q12 -20 43.5 -75.5t52.5 -90.5q33 -47 77 -88q37 -35 79 -73q37 -34 61 -64q25 -31 25 -62q0 -67 -19 -90q-20 -24 -36 -24q-35 0 -74 46q-41 48 -83 123q-41 73 -93 176q-32 64 -102 206t-108 212q-60 110 -116 193
q-35 52 -78 92q-14 13 -40.5 38.5t-39.5 37.5q-36 33 -64 66q-26 31 -26 63q0 65 20 90t36 25q18 0 39 -15q25 -18 39 -33q12 -13 32 -39q15 -19 21 -30q21 -42 38 -75q29 -56 57 -115q11 -24 34 -71.5t34 -69.5q48 -99 72 -146z" />
    <glyph glyph-name="bracketright" unicode="]" horiz-adv-x="722" 
d="M137 -360l-2 2h2q-33 6 -33 43q0 14 9 34q23 57 67 95q45 39 109 39q38 0 84 -8q44 -8 86 -9q31 199 44 420q10 176 17 416q0 43 3 106t3 133q0 61 -3 121q-3 56 -11 107q-43 8 -81 11q-42 3 -85 3q-33 0 -49 -1q-33 -2 -49 -5q-25 -14 -41 -14q-27 0 -27 34q0 28 20 71
t54 77q29 24 60 32q34 9 75 9q61 0 132 -17q79 -19 116 -32q18 -21 18 -45v-52q0 -126 -11 -235q-10 -103 -19 -230q-13 -194 -14 -215q-5 -123 -9 -215q-4 -135 -6 -266q-2 -132 -18 -262q-16 -42 -37 -67q-23 -27 -60 -48q-66 -24 -138 -24q-79 0 -138 -4q-10 0 -34 -2
t-34 -2z" />
    <glyph glyph-name="asciicircum" unicode="^" horiz-adv-x="1095" 
d="M242 205q-52 -43 -84 -51q-30 -8 -45 7t-14 47q2 35 13 70q14 43 29 76q18 39 41 68q55 50 119 124q78 91 126 146q61 70 129 136q67 65 126 94q20 0 39 -4q27 -10 51 -51q25 -41 45 -94q16 -41 40 -115q24 -75 36 -112q14 -46 32 -88q15 -36 29 -40q27 -7 40 -37
q12 -28 10 -64q-1 -33 -17 -70q-17 -40 -35 -61q-22 -25 -47 -32q-28 -8 -51 14q-29 65 -54 131q-53 141 -55 147q-8 23 -25.5 72.5t-26.5 75.5q-19 52 -50 131l-4 6q-14 -6 -46 -43q-20 -23 -67 -85q-28 -37 -79 -108q-17 -23 -47 -66.5t-33 -47.5q-39 -55 -72 -102
q-47 -67 -53 -74z" />
    <glyph glyph-name="underscore" unicode="_" horiz-adv-x="1452" 
d="M174 -229q-51 5 -71 33q-20 29 -25 65q-8 42 4 72t53 41q64 2 133 -3q24 -2 141 -14q22 -2 69.5 -7.5t72.5 -8.5q73 -8 139 -12q85 -5 163 -2q58 2 163 12q75 7 153 23q77 16 138 36q46 -12 65 -43q19 -32 19 -65q0 -34 -14 -65t-31 -38q-118 -8 -234 5q-122 14 -240 18
q-188 12 -369 3q-180 -9 -329 -50z" />
    <glyph glyph-name="grave" unicode="`" horiz-adv-x="57" 
d="M-76 1573q-10 27 -7 71q3 41 32 58q21 7 56 -22q40 -34 74 -74q35 -42 72 -95q31 -44 48 -77q8 -17 2 -24t-13 -9q-23 -11 -65 10q-44 21 -82 49q-29 24 -63 45t-46 49l-1 2q-1 1 -2 3t-2 3q-3 4 -3 11z" />
    <glyph glyph-name="a" unicode="a" 
d="M23 174q-3 15 -3 29q0 52 22 110q21 55 44 103q46 82 102 144q60 66 134 116q75 51 160 77q87 27 186 27h30q9 0 31 -2q20 -1 64 -8q37 -6 75 -21q37 -15 65 -41t28 -67q0 -4 -7 -4q-17 0 -34 10t-35 10q-14 0 -21 -7q-9 -9 -12 -14q-4 -7 -7 -14q-3 -8 -5 -8l-52 -22
l3 -24t3 -23q4 -39 5 -49q-2 -7 -5 -12q-5 -8 -6 -11v2q-20 -41 -43 -117q-20 -66 -20 -133q0 -59 21 -79q20 -19 94 -19q28 0 62 7q38 8 71 18q39 12 63 22q26 11 45 23l37 24q16 10 35 15q17 4 37 6q21 0 39 -8q16 -7 20 -29q0 -32 -55 -66q-57 -36 -132 -62
q-84 -30 -159 -46q-87 -19 -137 -19q-46 0 -76 18q-32 19 -52 46q-23 31 -35 65q-10 28 -23 76l4 59q-45 -34 -88 -80q-45 -48 -95 -95q-45 -43 -100 -78q-51 -33 -106 -33q-45 0 -74 16q-30 16 -51 42t-33 58q-13 35 -14 66v2zM172 172q5 -13 13 -14q12 -2 20 -2
q22 0 33 -1q12 -1 36 4q21 5 45 18q27 15 60 44q32 30 47 44q20 18 46 48q7 8 15.5 17.5t19.5 22.5t18 21q52 60 71 83l12 18q12 23 17 42q7 23 12 38q6 17 12 27t17 10q8 0 16 -2q12 0 24 2q9 2 9 18q0 24 -33 45t-57 21q-79 0 -168 -36t-159 -96t-114 -140
q-42 -76 -34 -162q1 -16 12 -34q10 -17 10 -34v-2z" />
    <glyph glyph-name="b" unicode="b" horiz-adv-x="729" 
d="M-51 147q-4 16 4 26q7 8 21 13q12 4 29 4h28h8l6 -2t5.5 -2t3.5 -1q3 -1 9 -1q9 0 11 5q2 7 6 12l369 1071q0 9 14 37q6 11 18 37t16 34q6 13 19.5 41t20.5 43q13 27 32 72q21 40 52 59q31 18 79 17q27 0 50 -28q21 -25 26 -50q2 -16 2 -32q0 -20 -3 -38q-3 -17 -12 -31
t-28 -14q-11 0 -24 11l-9 4q-6 2 -8 2q-21 0 -39 -13q-16 -12 -28 -28q0 -1 -2 -5t-6 -11t-7 -14q-18 -38 -27 -59q-5 -12 -15.5 -35t-15.5 -34q-19 -43 -22 -53q-4 -10 -12.5 -35t-13.5 -40q-1 -4 -14 -40t-20 -56q-12 -33 -36 -103q-14 -40 -33 -94q-14 -39 -22 -68
l-8 -27q0 -1 1.5 0l4.5 3t8 6q14 11 31 11q62 0 112 -38q47 -35 86 -92q38 -54 60 -114q24 -64 31 -108q20 -108 -8 -190q-27 -78 -90 -126q-64 -49 -150 -69q-83 -20 -187 -18q-37 0 -94 5q-51 5 -99 21t-84 48q-35 31 -46 87zM303 115q103 -12 159 2q59 15 88 50
q30 36 33 88q3 50 -8 118q-7 29 -20 63q-16 40 -35 70q-22 35 -47 54q-29 22 -55 18q-61 -10 -97 -66q-37 -56 -56 -128q-19 -71 -27 -145l-7.5 -65t-5.5 -51z" />
    <glyph glyph-name="c" unicode="c" horiz-adv-x="1003" 
d="M47 381q12 61 45 120q34 60 79 108q50 53 102 90q60 43 116 65q36 14 75 16q50 2 75 2q37 0 59 -22q23 -23 33 -55q11 -33 12 -70q2 -39 -4 -66q-1 -6 -11 -40q-8 -27 -23 -60q-15 -32 -33 -55q-20 -25 -40 -25l-16 8q-13 6 -36 20q-5 3 -36 20q-16 9 -16 14q-4 18 4 54
q13 60 14 65q6 34 5 55q-1 22 -29 22q-30 0 -67 -21q-26 -14 -74 -53q-40 -32 -65 -64q-28 -35 -32 -58q-15 -76 10 -144t79 -112q58 -47 144 -71q87 -24 197 -18q39 1 89 19q46 16 94 38q4 2 40 18.5t55 24.5q55 24 91 34q3 3 19 4q24 2 26 2q22 2 41 -2q23 -4 18 -33
q-6 -35 -54 -69t-110 -61q-71 -31 -124 -46q-68 -20 -94 -21q-8 0 -20 -1q-18 -1 -39 -3q-7 0 -21.5 -1.5t-22.5 -2.5q-30 -2 -35 -2q-62 -2 -115 2q-60 4 -126 20q-63 15 -120 42q-59 28 -97 69q-43 46 -60 103q-18 60 -2 141z" />
    <glyph glyph-name="d" unicode="d" horiz-adv-x="960" 
d="M530 8q-36 -2 -55 -2h-57q-68 0 -145 8q-68 7 -132 36q-57 26 -95 81q-36 53 -32 141q6 99 63 171q61 76 135 120q82 48 163 71q80 23 143 23q26 0 39 -4q16 -5 24 -10q3 -2 15 -11q7 -5 14 -5q11 0 23 21q11 19 16 38q0 1 21 69q14 47 45 142q36 112 58 178
q8 23 29 84.5t31 93.5q6 20 16 51t17.5 53t12.5 39q18 59 22 68q17 81 56 117q40 37 126 37q27 0 46 -21t18 -47q-1 -21 -11 -29q-12 -10 -26 -24q-40 -40 -85 -95q-37 -45 -76 -117q-32 -59 -68 -155t-65 -206q-32 -121 -62 -276q-39 -201 -62 -361q-2 -11 -1 -23
q2 -17 5 -27q5 -14 12 -23q8 -9 19 -9q30 -2 67 13q25 10 75 34t74 35q35 16 63 16q16 0 25 -12t9 -27q-1 -26 -12 -40q-10 -14 -27 -42q-12 -23 -55 -35q-10 -3 -91 -23q-54 -13 -91 -25q-44 -14 -55 -33q0 -14 3 -44q3 -33 -1 -61q-5 -30 -20 -55q-16 -26 -54 -27
q-45 -5 -60 10q-16 16 -20 36q-5 21 -6 45q-1 22 -21 38zM137 287q-1 -37 18 -63q19 -25 51 -43q24 -13 69 -28q36 -12 73 -18q38 -7 62 -8q7 0 15 -0.5t12.5 -1t6.5 -0.5q30 0 59 23t40 53l8 48q2 11 7 41q2 13 6 41q4 26 5 50q2 26 -8 41q-11 18 -12 20q-9 17 -25 36
q-14 17 -28 25q-18 10 -43 14q-35 6 -68 7q-56 2 -98 -21q-45 -24 -78 -60q-34 -37 -51 -78q-20 -48 -21 -78z" />
    <glyph glyph-name="e" unicode="e" horiz-adv-x="1009" 
d="M41 260q0 97 52 182q55 89 131 151q78 63 172 101q92 37 175 37q56 0 113 -14q65 -16 115 -43q51 -28 90 -73q37 -43 37 -101q0 -85 -44 -135t-113 -74q-71 -25 -152 -32q-77 -7 -160 -7q-60 0 -91 4q-37 5 -53 14q-18 11 -24 28q-6 18 -6 42q0 36 28 43q30 8 72 8
q34 0 64 -18q31 -19 65 -23q47 -6 98 1q57 8 100 22q47 15 76 34q31 20 31 39q0 25 -33 49q-34 24 -75 43q-42 19 -86 31q-47 13 -64 13q-81 0 -159 -13q-74 -12 -124 -46q-51 -34 -76 -94q-26 -62 -16 -159q7 -73 56 -117q47 -43 115 -59q65 -16 154 -11q82 4 166 23
q65 15 152 47q72 27 117 54q8 5 34 24q35 26 53 37q30 18 60 33q28 14 52 14q12 0 15 -10t0 -25q-3 -17 -10 -33q-10 -24 -13 -30q-12 -20 -27 -31q-18 -13 -49 -30q-49 -30 -141 -65q-94 -36 -207 -63q-112 -27 -232 -39q-119 -12 -216 9q-98 21 -160 82t-62 180z" />
    <glyph glyph-name="f" unicode="f" horiz-adv-x="720" 
d="M-92 -465q20 56 37 94q17 39 32 95q14 52 30 112l36 144q28 114 34 142q16 73 25 107q-8 13 -19 20q-9 6 -23 11q-11 4 -22 11q-12 7 -18 20q0 3 -4 18q-3 12 -7 36q-3 19 -6 36l-3 16q6 25 30 32q25 8 52 12q23 4 55 16q27 11 39 43q20 52 46 148t60 200q40 124 78 216
q46 111 105 197q60 87 136 142q75 55 173 53q75 -2 111 -19q37 -18 78 -63q10 -12 4 -33q-4 -11 -13 -16q-7 -4 -20 -6q-8 -1 -26 -3q-13 -1 -25 -9q-4 -4 -17 -12q-16 -10 -25 -15q-4 -2 -26 -16l-18 -13q-34 1 -70 7q-45 7 -66 8q-35 0 -76 -52q-39 -49 -79 -131
q-40 -81 -74 -175q-36 -98 -62 -181q-33 -106 -46 -152q-21 -78 -23 -86l-8 -32q-4 -16 -6 -29q-2 -15 -1 -19q2 -8 9 -8q13 1 56 6.5t63 7.5q55 5 96 16q42 12 77 36q33 23 58 72q3 2 15.5 9.5t19.5 12.5q18 12 35 12q55 -1 74 -20t8 -76q-7 -13 -21 -32q-6 -7 -16.5 -20
t-14.5 -19q-19 -24 -32 -36q-18 -17 -27 -18l-395 -57q-29 -5 -44 -21q-17 -18 -28 -67q-5 -13 -16 -71q-2 -9 -10.5 -53t-14.5 -73q-14 -67 -30 -160q-16 -91 -33 -172q-3 -27 -5 -75q-1 -36 -14 -78q-6 -21 -17 -41q-12 -21 -32 -48q-17 -23 -39 -40t-41 -17q-29 1 -47 16
q-15 12 -20 35q-4 20 -1 49q3 28 9 56z" />
    <glyph glyph-name="g" unicode="g" horiz-adv-x="837" 
d="M1231 -10q10 -1 10 -13q0 -17 -11 -29q-13 -15 -29 -24q-18 -11 -37 -15q-22 -5 -34 -5q-16 0 -50 2t-52 2q-101 0 -180 -4q-31 -2 -91 -4.5t-89 -3.5q-60 -141 -144 -255q-85 -115 -198 -194q-114 -79 -263 -122q-147 -42 -331 -42q-93 0 -185 7q-98 7 -179 30
q-79 22 -133 68q-53 45 -48 123q1 48 30 88q26 37 63 61q39 26 74 40q10 4 64 28l90 34q84 32 174 51q98 20 173 40q128 28 246 48q126 21 247 36l225 24l9 25h-2l6 26q2 14 3 20t1 19q0 23 -17 23q-15 0 -33 -9q-14 -7 -35 -21q-15 -10 -35 -20q-22 -11 -34 -12
q-10 0 -19 -1t-30 -1t-31 -1t-20 -1q-51 0 -108 6q-53 6 -104 28q-49 21 -79 62q-31 42 -31 113q0 81 33 143t83 107q51 46 109 76q66 34 109 49q88 32 94 35q41 16 107 39q49 17 100 30q50 13 78 13q20 0 29 -9q8 -8 11 -21t3 -31t6 -36q7 -36 23 -86q14 -43 14 -71
q0 -50 -14 -116q-19 -89 -32 -137q-5 -18 -15.5 -57.5t-15.5 -57.5q-14 -48 -9 -48q0 -5 -6 -23q-4 -12 -12 -34q127 0 260 3q180 4 262 5zM287 -453q87 59 155 153q69 95 107 189q-134 -12 -243 -30q-97 -16 -208 -40q-98 -21 -182 -45q-86 -24 -168 -48q-24 -7 -98 -32
q-56 -19 -119 -49q-56 -26 -99 -62q-42 -35 -42 -70q0 -31 42 -57t100 -42q55 -16 123 -25q72 -10 109 -10q135 0 270 44q133 43 253 124zM184 311q-2 -8 -2 -13v-13q0 -39 21 -74q22 -37 47 -60q28 -27 54 -41q29 -16 40 -16q38 0 91 18q56 19 102 57q50 41 85 107
q36 68 42 166q0 37 -23 55q-20 16 -52 24q-28 7 -59 7h-38q-20 0 -66 -18q-43 -17 -98 -49q-48 -28 -93 -70q-44 -41 -51 -80z" />
    <glyph glyph-name="h" unicode="h" horiz-adv-x="964" 
d="M213 426v-22q0 -19 14 -29q15 -11 21 1q5 11 14 9q44 33 72 78q26 41 59 84q29 38 71 66t103 28q35 0 47 -39q14 -46 18 -96q5 -59 12 -125q8 -68 31 -124q23 -55 74 -92q50 -37 142 -32q18 0 37 8q7 3 19 9l16 8q22 10 34 15q17 7 37 7q50 0 60 -7t10 -32q0 -49 -29 -80
q-29 -30 -70 -48q-38 -16 -90 -23q-47 -6 -84 -6q-76 0 -126 40q-52 41 -85 99q-35 61 -54 127q-14 50 -30 124q-14 64 -18 90q-7 30 -14 23l-98 -124l-267 -457q-22 -30 -47 -57q-28 -31 -47 -31q-33 0 -49 20q-18 23 -22 49q-5 31 -2 60q2 25 10 53q95 385 154 611
q61 234 107 403q56 202 62 224q22 74 23 81l4 82q5 44 15 70q13 33 40 55q12 -6 31 -6q25 2 47 12q23 10 39 33q37 -16 53 -38q15 -20 10 -71q-2 -25 -13 -42q-12 -18 -27 -33l-30 -30q-17 -17 -24 -36l-44 -110q-15 -36 -31 -81q-5 -15 -14.5 -45t-12.5 -40
q-13 -39 -34 -123q-4 -15 -20.5 -81.5t-28.5 -111.5q-30 -117 -75 -297z" />
    <glyph glyph-name="i" unicode="i" horiz-adv-x="532" 
d="M385 1192q1 15 26 27q26 13 55 20q42 10 63 13q35 5 51 5q44 0 58 -6q12 -6 14 -15q1 -3 1.5 -10.5t0.5 -11.5q1 -12 26 -24q-17 -10 -40 -31q-28 -26 -41 -37q-19 -17 -45 -31q-25 -14 -54 -14q-27 0 -41 7q-16 8 -23 19q-8 13 -12 23l-8 25q-4 15 -19 19q-14 4 -12 22z
M41 229q1 10 11 57q6 28 25 101q15 57 33 120q22 78 36 115q21 56 37 87q18 34 32 34q4 0 9 -8t9 -8q7 0 12 5q7 7 11 12q7 9 15 13q10 5 24 5q12 0 27 -9q7 -5 25 -22q11 -11 14 -24t-5 -19q-37 -27 -77 -90q-42 -66 -70 -132q-29 -69 -51 -137t-23 -104q-2 -17 4 -32
q5 -13 19 -31q11 -14 27 -25q14 -10 32 -10q57 -1 104 26t88 61t85 61q45 28 92 28q20 0 26 -20q6 -22 2 -37q-17 -51 -68 -96q-54 -47 -115 -84q-64 -38 -127 -60t-105 -22q-53 0 -85 21q-31 21 -48 56q-18 37 -22 79q-5 44 -3 89z" />
    <glyph glyph-name="j" unicode="j" horiz-adv-x="346" 
d="M367 975q-38 0 -66 17q-31 19 -31 59q2 24 -7 38q-8 14 -7 35l2 12q1 6 7 23q4 11 11 23q6 10 15 10h88q10 16 27 16q8 0 19 -7t20 -16t17 -20q8 -10 11 -14h-2q0 -2 1 -3t1 -5t-4 -8t-4 -11q0 -6 4 -9t4 -7q-1 -15 -16 -16q-14 -1 -19 -13q-1 -5 -8 -31q-5 -22 -11 -34
q-7 -15 -20 -28q-11 -11 -32 -11zM-707 -330v22q0 16 11 27q10 10 24 15q11 4 35 10q17 4 34 6q20 2 21 2q29 0 53 -15q21 -13 42 -34q20 -20 70 -56q35 -25 104 -68q45 -28 105 -57q49 -24 79 -24q42 0 83 71t75 181q36 115 65 248q41 189 57 270q25 129 45 248
q24 141 33 180q3 10 9 28q5 14 20 21q7 -7 15 -13q14 -10 16 -11l4 -2q10 0 15 8q9 15 10 17q5 10 13 18t19 8q20 0 27 -12q8 -13 11 -28t3 -30v-20l-260 -1032q-10 -43 -29 -100q-18 -54 -48 -102q-32 -51 -72 -80q-44 -32 -99 -32q-15 0 -49 15q-3 1 -33 14t-48 21
q-59 27 -100 46q-49 23 -107 48q-60 25 -97 38q-42 14 -74 19q-47 5 -63 43q-18 41 -19 92z" />
    <glyph glyph-name="k" unicode="k" horiz-adv-x="804" 
d="M274 442q-16 -4 -25 -41q-12 -48 -15 -86q-6 -66 -8 -100q-1 -13 -2 -31t-2 -30.5t-1 -22.5q-4 -8 -10.5 -24.5t-10.5 -24.5q-13 -29 -29 -49q-17 -21 -39 -37q-20 -14 -48 -14q-40 0 -52 34t-12 78q0 45 12 93q17 68 27 97q19 55 37 95q17 38 37 94l258 1014q1 6 6 27
q4 17 13 47q9 27 19 47q11 21 30 32q21 17 38 21t31 0q15 -4 31 -12q4 0 9 -10q8 -16 9 -20q4 -17 5 -23q0 -3 0.5 -5.5t1 -4t0.5 -3v-2.5q0 -12 -5 -34q-2 -11 -14 -36q-72 -158 -147 -353q-68 -177 -113 -361q-3 -12 -6 -23t-6 -20l-1 -2q0 -2 -0.5 -6t-0.5 -8
q-2 -18 -3 -29q-2 -17 -3 -30q0 -4 -0.5 -7.5t-0.5 -5.5l-1 -2l22 24q60 57 88 79q38 31 79 55q40 24 87 42q54 21 113 37q40 0 70 -33t30 -73q0 -59 -33 -115q-31 -52 -80 -98q-16 -12 -49 -27q-37 -16 -71 -27l-65 -21l-28 -9q2 -3 13.5 -17.5t36.5 -45t51 -64.5
q19 -24 66 -84t98 -125t102 -131q11 -19 29 -28q24 -12 36 -17q11 -5 29 -18q13 -10 13 -27q0 -20 -15 -44q-14 -23 -34 -44q-17 -18 -42 -35q-23 -15 -41 -15q-32 0 -50 21q-16 19 -27 50t-18 61q-9 36 -19 57q-21 40 -75 124q-49 76 -110 149q-66 79 -117 125
q-58 52 -98 52zM555 719q-4 -1 -32 -19q-52 -34 -54 -35q-29 -20 -52 -40q-24 -21 -28 -31l-10 -31q8 1 42 18q32 16 61 34q36 23 62 43q31 25 46 44l-10 15l-2 2h-23z" />
    <glyph glyph-name="l" unicode="l" horiz-adv-x="514" 
d="M541 1384q-83 -171 -109 -227q-57 -123 -108 -252q-59 -148 -93 -259q-41 -131 -57 -253q-4 -31 -4 -84q0 -49 12 -95q12 -45 38 -79q26 -33 73 -33q31 0 71 24q37 22 82 53q39 27 83 53q41 24 69 24q19 0 33 -20q15 -20 10 -39q-6 -43 -59 -84t-122 -74
q-67 -32 -136 -52t-103 -20q-68 0 -108 29q-39 28 -57 74q-16 41 -18 101q-1 50 7 112q17 129 59 277q38 134 94 290q67 185 108 287q49 122 106 268l12 82q11 39 22 68q12 32 41 49q5 -6 13 -7q3 -1 8 -2.5t6 -1.5q23 -2 44 6q21 7 36 29q35 -23 44 -45q9 -23 3 -70
q-5 -25 -16 -39t-28 -29q-30 -27 -31 -28q-14 -14 -25 -33z" />
    <glyph glyph-name="m" unicode="m" horiz-adv-x="1427" 
d="M119 834q-31 25 -16 52t50 47t72 21q41 2 58 -26q6 -10 10 -47q5 -38 6 -86q2 -66 2 -104v-101v-80q0 -31 2 -39q21 43 61 95q41 53 80 95t74 69q33 26 41 15q11 -16 16 -49q5 -37 5 -69q0 -49 -1 -72q-1 -27 1 -53q2 -24 1 -49q-1 -22 -1 -67q0 -34 3 -59q3 -26 9 -26
l8 8l8 8q53 45 103 116q55 77 106 141q55 68 119 120q63 51 139 51q19 0 28 -9t13 -23q4 -13 4 -32v-32q0 -38 -8 -80q-8 -41 -19 -77q-13 -44 -20 -79q-8 -43 -8 -81v-59q0 -32 5 -74q4 -35 19 -66q14 -30 41 -31q33 -2 79 22q59 31 94 53q16 10 46 29t43 27q41 27 68 31
t34 -9t7 -36q0 -48 -40 -91q-45 -48 -96 -79q-56 -34 -119 -55t-105 -21q-62 0 -101 30q-38 29 -61 74q-23 44 -32 97q-9 52 -9 102q0 41 5 88t5 85q0 7 -1 15q-1 12 -4 22q-3 14 -7 21q-4 9 -8 9q-2 0 -17 -12q-13 -10 -20 -23l-240 -309q-11 -13 -24 -41q-10 -22 -23 -41
t-27 -32t-40 -13q-31 0 -45 13q-15 14 -18 34q-3 18 -1 47q2 36 2 51q0 60 3 117t3 121q0 20 1 36q1 23 -9 23q-36 8 -53 -12q-20 -24 -31 -56q-5 -15 -23 -78q-12 -41 -30 -79q-1 -11 -15 -52q-13 -40 -33 -84q-20 -45 -46 -78q-27 -34 -54 -34q-37 0 -60 10q-22 9 -33 26
q-12 17 -13 44q-2 36 -2 62q0 18 9 34q3 5 22 34q12 19 25 34q15 18 22 35q5 14 13 57q5 30 11 94q3 35 5 114q2 61 -6 115q-8 57 -22 98q-15 45 -40 63z" />
    <glyph glyph-name="n" unicode="n" horiz-adv-x="960" 
d="M55 127q0 11 -9 33t-9 24l129 514q1 7 10 21q8 12 17 12t14 -8t14 -8q11 0 17 7q8 10 12 16q8 12 14 18q8 8 23 8q11 0 19 -11q12 -16 16 -26q5 -13 7 -28q1 -13 -3 -17q-17 -17 -38 -75q-26 -72 -40 -124q-20 -69 -43 -168q0 -3 -1 -6t-1 -6q0 -8 1 -12q2 -7 9 -8
q43 33 81 96q36 61 80 125q40 59 90 107q47 46 111 46q28 0 40 -39q11 -37 19 -97q2 -15 7.5 -58t8.5 -69q8 -65 34 -127q23 -56 70 -97q45 -39 125 -39q18 0 36 9q12 6 38 22q17 11 38 21q20 10 37 10q44 0 54 -8t10 -29q0 -46 -26 -77q-24 -28 -65 -47q-38 -18 -81 -25
q-41 -7 -80 -7q-76 0 -127 42q-52 43 -86 103q-36 64 -55 133q-14 50 -30 129q-12 59 -18 93t-12 24l-98 -145l-209 -297l-72 -72q-5 -6 -16 -7q-7 -1 -21 -1q-31 0 -41 10t-10 28q0 15 5 40t5 47z" />
    <glyph glyph-name="o" unicode="o" horiz-adv-x="608" 
d="M29 231q7 63 39 130q28 58 65 123q40 70 68 123q33 63 45 130q20 22 29 28q13 9 36 9q80 0 136 -34q58 -35 92 -88q35 -55 47 -123q12 -71 2 -138q-10 -72 -46 -143q-35 -71 -89 -129q-52 -57 -123 -92q-70 -35 -148 -35q-53 0 -84 20q-32 20 -50 55q-16 31 -21 76
q-4 41 2 88zM174 213q5 -20 11 -31q7 -13 22 -24q61 -2 106 16q48 19 82 51q37 35 57 77q22 45 29 93q2 16 3 43q2 29 -3 58q-5 31 -15 49q-11 20 -36 20q-9 0 -19 -1t-18 -1q-41 0 -81 -27q-38 -25 -71 -76q-34 -51 -51 -112q-18 -61 -16 -135z" />
    <glyph glyph-name="p" unicode="p" horiz-adv-x="903" 
d="M-129 -709v27q48 243 70 367q8 48 24 142q20 116 22 131q9 60 12 105q3 41 1 66v1q1 2 1.5 5t0.5 5q2 10 6 14q7 18 52 137q23 60 56 130q33 68 69 121q40 57 96 109q2 2 11 8q2 2 5 4t5 3.5t3 1.5q32 19 63 32q26 11 50 39q14 17 22 49q7 27 19 62q12 34 27 53
q18 23 49 23q17 0 30 -5t13 -28q0 -41 -21 -77q-20 -34 -20 -77q0 -7 2 -17q1 -7 14 -13q39 -15 99 -42q59 -27 118 -70q55 -40 97 -95q40 -52 40 -119q0 -74 -36 -125q-37 -53 -92 -86t-126 -55q-69 -21 -138 -33q-75 -13 -127 -17q-41 -3 -91 -10q-30 -11 -41 -41
q-31 -99 -50 -167q-30 -108 -48 -176q-26 -100 -39 -153q-20 -83 -23 -98q-1 -10 -10 -78q-7 -53 -19 -93q-14 -44 -37 -76q-24 -33 -61 -33q-33 0 -52 12t-30 33q-10 20 -13 47t-3 57zM129 23q-12 -7 -23 -28q-10 -18 -16 -46q-4 -18 -10 -56q-4 -25 -4 -53q0 -1 2 -33
t2 -34q10 29 18 53l21 65q6 18 17 63q7 28 7 46q0 4 -2 12q-2 7 -12 11zM336 541q-10 0 -27 -23q-16 -21 -34 -58q-11 -22 -35 -78q-18 -42 -33 -81q-14 -35 -24 -70q-9 -30 -9 -43q35 0 51 37q3 10 25 69q7 19 20.5 54t17.5 45q6 17 17.5 47t16.5 43l14 39v19zM328 217
q0 -9 -8 -28q-7 -17 8 -17q7 0 51 2q18 1 68 5q29 2 68 8q23 3 50 10t51 16q30 11 54 29q23 17 42 46q17 26 19 70q0 32 -20 73q-22 46 -55 86q-37 45 -72 72q-38 29 -76 29q-13 0 -31 -8q-16 -7 -22 -24l-125 -353q-2 0 -2 -6v-10z" />
    <glyph glyph-name="q" unicode="q" horiz-adv-x="849" 
d="M195 -643q-4 29 11 98q12 55 43 156q24 79 63 186q27 74 71 189l-2 20q-40 0 -69 -11t-70 -11q-45 0 -78 18q-30 16 -56 49q-23 29 -36 69q-14 42 -19 79q-15 114 38 223t140 193q89 85 198 138q108 52 212 52q23 0 51 -6t33 -35q0 -9 -13 -22q-5 -5 -16 -15t-14 -12
q-13 -12 -32 -27q-13 -11 -19 -20v1l6 -2q4 -1 11 0q8 2 14 9q22 -10 43 -25q16 -11 25 -27q9 -15 12 -35q1 -5 3.5 -22t4.5 -28q-28 -98 -77 -185q-47 -84 -85 -184q-71 -181 -74 -190q-40 -106 -71 -196q-31 -91 -51 -167q-19 -73 -15 -106q5 -17 16 -17q9 0 22 7
q12 7 25 18q4 4 12 10t11 9q7 6 14 13q45 50 90 119q38 59 84 139q16 27 45 76.5t37 62.5q42 71 84 122q16 18 39 49q15 20 40 45q19 19 49 34q26 13 65 13q13 0 31 -3q19 -3 31 -10q13 -7 21 -20q7 -12 1 -31q-4 -14 -29 -30q-22 -14 -59 -25l-33 -11q-15 -4 -32 -16
q-19 -12 -38 -29q-18 -16 -49 -48q-15 -16 -39 -51q-29 -42 -55 -82q-33 -51 -65 -104l-66 -111q-65 -109 -168 -289q-14 -20 -29 -40q-20 -25 -37 -40q-21 -18 -45 -30q-22 -11 -49 -11q-59 0 -80 37q-20 35 -26 90zM215 242q5 -30 15 -39q11 -10 40 -10q111 0 167 37
q55 36 80 96q23 56 25 127q1 46 1 135v0v0v1v10q0 13 -8 13q-69 0 -131 -25q-60 -24 -108 -74q-46 -48 -69 -117q-22 -69 -12 -154z" />
    <glyph glyph-name="r" unicode="r" horiz-adv-x="704" 
d="M10 55q-10 15 -9 50q2 37 24 98q58 168 91 272q46 144 83 281q12 48 32 65q23 19 80 15q4 0 28 -2q12 -1 34 -9q17 -6 28 -20q13 -16 13 -39q0 -14 -26 -22q-29 -8 -56 -33q-26 -26 -48 -58t-32 -55q-9 -19 -11 -34q-1 -9 -3 -23q5 -5 22 -1q16 4 36 15q26 14 38 22
q9 6 31 17q61 37 125 64q103 43 124 51q52 18 93 39q44 22 86 22q5 0 24 -8t25 -19q30 -63 -11 -92q-18 -13 -51 -21q-32 -8 -59 -18q-39 -12 -128 -32q-78 -18 -143 -40q-72 -25 -132 -59q-61 -35 -91 -88q-42 -74 -46 -129q-5 -63 -5 -112q0 -18 3 -44q3 -23 1 -49
q-1 -22 -12 -40q-10 -17 -35 -19q-29 -5 -63 7q-38 13 -60 48z" />
    <glyph glyph-name="s" unicode="s" horiz-adv-x="841" 
d="M29 176v47q6 25 29 45t52 33q24 11 52 16q23 4 35 -4q22 -21 22 -44q0 -24 -10 -44q-12 -24 -37 -49q0 -28 50 -48q48 -19 115 -33q59 -12 122 -19q57 -6 73 -6q14 0 30 11q18 12 33 27q17 17 26 30q10 14 10 24q0 7 -25 35q-18 21 -76 63q-44 33 -131 80q-76 41 -188 82
q-61 21 -84 43q-25 23 -25 51q0 33 35 66q34 32 89 63q60 33 119 58q82 34 124 48q43 14 105 30q46 12 65 12h24q9 0 31 -2q12 -1 30 -7q13 -4 13 -12q0 -10 -2 -44q-1 -23 -8 -48q-6 -23 -19 -39q-14 -17 -36 -18q-27 -2 -77 7q-56 10 -107 11q-57 2 -96 -11
q-41 -13 -46 -59q0 -10 2 -12q45 -68 124 -120q80 -53 156 -99q75 -45 133 -93q56 -46 56 -100q0 -57 -17 -91q-18 -36 -48 -57q-31 -22 -72 -31q-40 -9 -88 -9q-3 0 -9 0.5t-16.5 1t-19.5 0.5q-36 2 -85 6l-110 10q-12 1 -114 15q-48 6 -86 15q-40 9 -67 30q-28 22 -42 53
t-14 86z" />
    <glyph glyph-name="t" unicode="t" horiz-adv-x="710" 
d="M41 371q0 81 17 158q19 86 40 157q0 5 1 6t1 4q0 15 -8 28q-7 11 -18 19t-19 16t-8 19q0 12 1 17t1 14l-4 27q-4 9 -4 18q0 48 12 60t45 12q74 0 122 63t95 160q22 65 65 103t89 65q1 1 20 9q21 9 23 11q32 -1 52 -27t20 -55q0 -10 -14 -12q-5 -1 -13 -2.5t-12 -1.5
q-5 -8 -20 -27q-18 -22 -28 -34q-20 -24 -29 -35q-12 -14 -19 -27l-5 -4l-4 -4q-2 0 -23 -23q-26 -28 -46 -54q-27 -35 -45 -65q-21 -35 -21 -55q0 -16 1 -25q2 -15 13 -16q55 -6 115 0q55 6 118 20q55 13 113 32q69 23 99 34q36 14 54 -1t18 -48q-3 -5 -16 -25
q-3 -5 -11 -19t-13 -22q-13 -21 -29 -38q-16 -18 -30 -19l-467 -34q-25 -1 -50 -40q-23 -35 -40 -89q-14 -43 -26 -107q-11 -58 -11 -94q0 -52 13 -107q12 -50 38 -90q25 -38 68 -62q44 -24 105 -24q23 0 68 8q39 7 84 23q44 16 80 33q37 18 58 39q37 37 69 60q26 19 75 19
q8 0 14 -8q6 -7 9 -20q2 -7 4 -25q1 -8 1 -20q0 -38 -51 -81q-53 -45 -122 -82q-74 -40 -145 -65q-72 -26 -124 -26q-82 0 -146 30q-68 31 -109 80q-43 50 -67 120q-24 69 -24 149z" />
    <glyph glyph-name="u" unicode="u" horiz-adv-x="1114" 
d="M721 78q0 43 1 57q1 7 1.5 23.5t0.5 24.5q1 25 3 73q1 44 6 127q0 10 -12 10q-14 0 -32 -17q-22 -20 -41 -42q-31 -35 -43 -50q-7 -9 -18.5 -22t-15.5 -18q-35 -40 -72 -84q-36 -42 -77 -78q-40 -36 -78 -56q-41 -22 -76 -22q-38 0 -63 23q-25 24 -38 56q-15 38 -19 73
q-5 43 -5 71q0 47 17 127q16 76 16 160l-2 4q-4 0 -14 -16q-7 -11 -23 -35q-2 -3 -10 -16t-13 -19q-12 -16 -20 -16q-22 0 -34 27t-7 46q1 8 12 24q12 18 19 26l129 235q9 12 27 29q15 14 34 14q32 0 58 -20t26 -56q-1 -9 -5 -18t-5 -16q-31 -82 -66 -199q-30 -100 -30 -213
v-37q0 -34 12 -52t45 -18q28 0 67 25q36 23 81 65q38 35 86 90q38 43 81 100q38 51 65 95q30 49 40 78l23 43q7 14 23 23q17 10 28 10q33 0 66 -19q32 -18 36 -55q-32 -128 -56 -239q-26 -122 -26 -244v-62q0 -113 40 -156q41 -44 134 -44q138 0 267 69v-2l6 6q5 5 15 9
q18 7 20 8h6q13 0 21 -12q7 -11 7 -25q0 -49 -47 -85q-49 -38 -111 -61q-65 -24 -132 -36q-73 -13 -109 -13q-67 0 -111 29q-43 28 -67 75q-26 51 -33 103q-8 61 -8 115z" />
    <glyph glyph-name="v" unicode="v" horiz-adv-x="796" 
d="M63 178q12 138 27 247q16 115 37 191q23 83 56 124q35 44 85 44q10 0 23 -8t20 -18q10 -14 12 -22q3 -10 -6 -17q-23 -17 -48 -64q-22 -41 -44 -104q-19 -54 -35 -125q-13 -56 -18 -123q-5 -70 23 -117q27 -47 47 -47q111 34 191 89q85 58 138 122q56 67 80 132
q24 67 17 122q-6 39 -7 51q-1 15 -7 43q-2 12 -13 41q-6 17 -27 45q-4 5 -13 17t-15 18q-12 14 -26 34q-10 16 -17 37q-6 18 -4 46q4 34 34 46q28 11 62 11q18 0 33 -11q11 -8 30 -27q13 -13 26 -31q5 -6 11 -15.5t8 -11.5q24 -31 41 -68q14 -32 19 -67q4 -33 1 -73
q-5 -65 -7 -83q-6 -66 -31 -139q-23 -67 -65 -132q-41 -64 -94 -114t-122 -84q-2 -1 -7.5 -3.5t-14.5 -6.5l-18 -8q-10 -5 -32 -15t-34 -16q-9 -4 -32 -14.5t-34 -16.5q-8 -4 -17 -8t-14.5 -6.5t-7.5 -3.5q-26 -11 -59 -34q-30 -21 -63 -21q-42 0 -61 18q-18 17 -26 48
q-7 30 -6 64q1 12 2.5 33.5t1.5 30.5z" />
    <glyph glyph-name="w" unicode="w" horiz-adv-x="997" 
d="M373 139l-4 4h-4q-5 0 -9 -4q-51 -34 -92 -68q-44 -36 -88 -36q-52 0 -92 38q-38 37 -43 93q-2 40 5 80q7 43 20 80l141 391q11 29 37 44q24 13 47 38q11 0 15 -2q3 -1 3 -11q0 -12 -1 -17t-1 -15q0 -3 2 -11q1 -6 8 -6q8 0 12 4t13 4q14 0 18 -10v-1q-1 -2 -1.5 -4
t-0.5 -4t-0.5 -4t-1.5 -4v-1q0 -4 2 -10q0 -9 4 -9q2 -5 -4 -19q-6 -15 -4 -22q-86 -79 -141 -186q-55 -106 -55 -248q0 -12 2 -20q1 -6 16 -10q28 0 68 24q46 27 82 58q43 37 73 68q35 37 45 54q10 15 24 58q15 46 26 82q5 17 15 52t15 52q22 0 38 8t36 8q27 0 30 -10
q3 -11 19 -18q8 -8 17 -10q3 -1 15 -8q6 -4 11 -15t6 -37q4 -20 -8 -49q-11 -27 -29 -43q-87 -69 -128 -139t-35 -162q0 -5 10 -9q1 -1 9.5 -5t14.5 -6q25 -8 27 -8q12 -3 16 -3q55 -10 124 33t124 121t87 180q32 104 16 211q-5 19 -25 35t-45 16q-17 0 -29 -12
q-4 -4 -8 -8.5t-9 -10t-8 -9.5q-9 -10 -27 -26q-14 -12 -30 -8q-9 0 -38 20t-33 56q5 36 21 62q19 32 44 54q26 23 58 39q30 15 61 15q39 0 68 -20q31 -22 52 -53q23 -34 35 -68q14 -38 15 -70q8 -104 -9 -194q-19 -99 -58 -181q-41 -84 -100 -154q-61 -72 -140 -118
q-14 -8 -89 -49q-50 -27 -98 -27q-58 0 -105 36t-54 134z" />
    <glyph glyph-name="x" unicode="x" horiz-adv-x="811" 
d="M-279 -342q0 22 8 48t23 42l516 569v5q0 3 1 4t1 4q0 20 -10 37q-12 21 -23 34q-18 22 -27 32q-17 18 -22 26q-26 33 -40 78q-13 42 -13 88q0 15 1 22q1 10 11 10q15 0 24 -12t26 -12q16 0 32 25q17 26 17 42q0 10 -5 17t-5 16q19 0 40 -41q19 -36 42 -91q20 -47 46 -91
q24 -41 52 -41h4q2 0 2 2q29 35 113 135q34 40 100 116q18 20 94 105q7 10 23 15q13 4 29 4q21 0 32 -1t31 -1q18 0 26 -22q9 -25 9 -38q0 -34 -23 -69q-22 -34 -51 -49q-36 -17 -74 -45q-37 -27 -79 -66q-27 -25 -80 -78q-16 -16 -42 -44t-34 -36q0 -20 19 -43
q24 -29 46 -49q29 -26 55 -45q20 -14 48 -31q19 -10 42 -19q22 -8 34 -17q16 -11 25 -29t9 -51q0 -9 -16 -18q-5 -3 -13.5 -7.5t-11.5 -5.5v-21q0 -23 -6 -41t-35 -18q-27 0 -49 14q-29 18 -43 31q-15 13 -56 47q-4 3 -80 68q-13 11 -37 31t-35 30q-32 27 -34 27q-4 0 -9 -1
q-8 -2 -27 -11q-127 -128 -255 -277q-120 -139 -233 -295q-1 -1 -4.5 -5t-6.5 -7q-11 -11 -18 -16q-4 -2 -10 -7.5t-10 -8.5q-10 -7 -18 -7q-17 0 -31 13q-15 14 -15 30z" />
    <glyph glyph-name="y" unicode="y" horiz-adv-x="854" 
d="M1206 -55q21 -6 16 -27q-4 -19 -16 -31q-11 -14 -21 -19q-11 -5 -21 -4q-13 2 -25 4q-19 4 -37 5q-118 7 -240 12q-123 5 -237 -10q-43 -108 -99 -203q-50 -85 -119 -155q-66 -68 -150 -115q-88 -50 -183 -78q-64 -23 -144 -32q-76 -9 -162 -7q-80 1 -164 17
q-85 16 -145 43q-11 6 -26 12.5t-19 8.5q-12 6 -41 30q-30 29 -47 80q-12 47 7 87q18 38 54 72q37 36 72 57t64 36l78 34q82 34 148 51q102 26 153 40q49 11 98 21q60 12 91 17q12 2 44.5 7.5t50.5 8.5q50 7 111 15q98 14 225 25q6 24 18 53q9 22 15 55q0 5 -1 6t-1 7
q-8 17 -43 2q-36 -18 -61 -28q-50 -20 -76 -28q-36 -11 -74 -21q-37 -10 -59 -11q-62 -4 -102 18q-38 21 -63 60t-32 87q-8 54 -4 99q1 41 14 91q11 45 27 97q4 12 13.5 45.5t15.5 51.5q14 44 22 92q1 4 2.5 15t2.5 16q3 20 9 39q5 15 16 36q10 18 27 25q2 2 10 2h13
q17 5 37 17q22 13 33 15q15 4 27 -3q13 -8 18 -20q6 -14 9 -28q3 -15 3 -26q2 -5 -3 -18q-3 -10 -12 -29l-16 -32q-9 -17 -14 -24q-5 -10 -23 -30q-9 -9 -27 -34q-18 -24 -26 -36q-13 -19 -14 -35q-5 -21 -12 -51q-5 -20 -13 -64q-4 -22 -10 -64q-4 -32 -6 -54q-2 -35 1 -62
q3 -30 15 -54q11 -23 36 -38q23 -14 62 -10q37 2 66 19q20 12 66 32q104 40 145 92t50 108t3 118q-6 64 4 128q0 11 3 26q2 10 10 32q4 11 14 29q8 14 20 20q8 3 26 4q22 2 26 6l20 10q9 6 19 7q23 2 44 -22q22 -25 23 -44q0 -9 -2 -13l-8 -16q-24 -61 -35 -116
q-9 -46 -22 -121q4 -4 4 -10q-3 -18 -9 -52t-7 -40q-10 -58 -17 -85l-14 -71q-12 -46 -25 -84q-11 -31 -25 -78q145 8 279 -2q129 -10 272 -8zM276 -453q88 59 134 128q47 72 86 176q-98 -6 -187 -21q-109 -18 -171 -32q-110 -24 -165 -38q-32 -8 -92.5 -22.5t-75.5 -18.5
q-3 -1 -17.5 -4.5t-24.5 -6.5q-39 -11 -54 -17q-26 -9 -58 -24q-35 -16 -52 -27q-58 -35 -76 -71t-9 -67q9 -30 41 -56q31 -25 74 -40q51 -18 131 -24q77 -6 146 2q92 10 189 57q98 47 181 106z" />
    <glyph glyph-name="z" unicode="z" horiz-adv-x="1067" 
d="M676 -133q-62 23 -106 46q-46 24 -98 46q-56 24 -120 41q-71 19 -172 29q-103 11 -143 39q-41 29 -41 100q0 40 20 63q21 24 50 39q3 0 18 3q6 1 16.5 4.5t14.5 4.5q28 7 30 8q15 3 19 3q28 12 100 42q18 8 38.5 16.5t46 19.5t40.5 18q60 27 135 65q20 10 41.5 21
t45.5 22.5t35 17.5q49 24 87 47q33 20 33 24q0 12 -33 13q-33 2 -83 -3q-19 -2 -59 -4.5t-51 -3.5q-38 -3 -115 -5q-51 -1 -94 5q-41 6 -52 26q0 1 -2 17q-1 4 -1.5 12.5t-0.5 12.5l-2 27q-1 9 -1 19q0 38 27 47t47 9h21q63 -11 187 -33q90 -16 191 -16q48 0 104 8t105 8
q39 0 51 -29q11 -26 11 -69q0 -3 -10 -19q-4 -6 -12 -18.5t-12 -18.5q-14 -21 -30 -39t-28 -22q-4 -3 -28 -8q-26 -6 -30 -8l-477 -203l-184 -88q-8 -2 -8 -15q0 -20 14 -24q93 -26 207 -70q152 -59 209 -79q110 -39 207 -65q106 -28 198 -28h78q39 0 72 4q18 2 81 13
q43 7 105 24q25 0 35 -7t10 -30q0 -31 -55 -55q-56 -24 -132 -42q-79 -19 -160 -26q-88 -8 -136 -8q-40 0 -69 7q-34 8 -60 19q-11 4 -31 12t-28 11q-38 15 -66 23z" />
    <glyph glyph-name="braceleft" unicode="{" horiz-adv-x="724" 
d="M678 1337q12 -16 12 -41q0 -22 -12 -45t-32 -41q-17 -16 -42 -29q-22 -12 -43 -12q-10 2 -15 2t-11 2l-20 4q-5 1 -9 1h-45q-13 0 -18 -1q-2 -1 -7 -2t-8 -2q-11 -159 -28 -285q-14 -107 -40 -182q-24 -71 -63 -110q-41 -41 -100 -70l16 -12q17 -12 18 -12
q79 -38 101 -87q22 -48 22 -122q0 -25 -1 -39t-1 -43v-18q0 -22 -2 -62t-2 -61q0 -44 5 -92q4 -42 20 -89q7 -18 38 -39q28 -20 65 -35q40 -17 72 -26q34 -10 58 -10q31 0 40 -13q9 -14 9 -26q0 -21 -12 -36q-14 -17 -30 -28q-22 -15 -36 -20q-17 -7 -32 -14
q-151 12 -230 63t-79 176q0 63 13 151t13 181q0 63 -14 101q-15 41 -40 66q-26 26 -62 41q-40 17 -76 30q-9 0 -12 8q-3 7 -3 12q0 17 19 39t30 29h5l2 2q37 14 67 20q33 7 63 24q27 15 45 44q17 27 17 82v43v53q0 30 -2 98t-2 101q0 66 11 122q12 63 43 110q33 50 91 79
q62 31 158 31q34 0 76 -11z" />
    <glyph glyph-name="bar" unicode="|" horiz-adv-x="487" 
d="M186 1300q10 84 84 129q31 22 56 17q23 -4 28 -39q-23 -208 -51 -427q-27 -211 -22 -427q3 -71 5 -216q2 -119 17 -220q2 -31 -18 -66t-48 -62q-27 -26 -57 -32q-29 -6 -41 31q-2 98 5 175q7 85 18 175q7 59 19 175q11 104 12 175q8 163 1 306q-8 163 -8 306z" />
    <glyph glyph-name="braceright" unicode="}" horiz-adv-x="718" 
d="M53 -346q-7 8 -8 19q-2 16 -2 22q0 23 12 45q11 21 31 41q17 17 41 30q21 11 43 11q5 0 10 -1q3 -1 9 -1.5t9 -0.5t8.5 -0.5t8.5 -1.5q9 -2 10 -3h45q14 0 33 4q11 160 23 291q11 121 29 188q19 72 55 116q34 42 98 72q-4 0 -8 4q-55 27 -81 65q-27 39 -34 84
q-7 46 -6 100q0 16 1.5 54.5t2.5 59.5q2 67 -1 123q-3 64 -24 127q-16 36 -62 48q-38 10 -95 15q-49 4 -88 12q-39 7 -39 35q0 20 13 40q16 24 31 41q21 23 37 35q24 19 31 22q71 -6 135 -22q57 -15 98 -45q39 -29 59 -75q20 -47 16 -110q0 -54 -11 -137q-9 -66 -14 -160
q-2 -75 11 -116q14 -46 40 -72q28 -28 64 -44q25 -11 84 -30q4 -1 6 -9t2 -12q0 -7 -6 -19q-4 -8 -16 -22l-17 -17q-7 -7 -14 -9h-2q-42 -15 -91 -35q-43 -17 -84 -47q-16 -73 -18 -146q-2 -71 1 -131t1 -133q0 -61 -13 -116q-14 -58 -47 -100q-37 -47 -92 -72
q-58 -27 -149 -27q-37 0 -76 10z" />
    <glyph glyph-name="asciitilde" unicode="~" horiz-adv-x="991" 
d="M203 369q-61 -58 -84 -58q-27 0 -27 45q0 54 31 104q28 45 75 84q42 35 93 55t86 20q57 0 105 -15q54 -17 86 -31q9 -4 33.5 -14t36.5 -16q32 -15 56 -15q51 0 82 14q32 14 51 28q8 6 21 16t17 13q17 13 42 13q29 0 29 -32q0 -43 -21 -85q-22 -44 -53 -75
q-30 -30 -74 -53q-40 -21 -79 -21q-44 0 -87 20q-42 20 -81 42t-78 42q-38 19 -78 19q-57 0 -102 -31q-43 -29 -66 -59z" />
    <glyph glyph-name="uni00A0" unicode="&#xa0;" horiz-adv-x="778" 
 />
    <glyph glyph-name="exclamdown" unicode="&#xa1;" horiz-adv-x="376" 
d="M63 225q40 6 64 -7q25 -14 35 -36q10 -21 10 -49q0 -25 -8 -51q-7 -21 -35 -43q-27 -21 -56 -24t-56 19q-24 20 -29 87q0 33 12 57q11 19 27 29q18 12 36 18zM227 1446q18 53 56 73q36 19 71 11t58 -43q22 -33 14 -90q-103 -233 -151 -464q-50 -237 -54 -484q0 21 1 32
q1 10 2 11q1 0 3 -3q6 -18 3 -38q-3 -21 -3 -41q-8 -56 -41 -80q-34 -25 -69 -22q-37 3 -66 33q-28 29 -28 85q37 151 75 264q42 125 70 264q24 131 31 246q8 128 28 246z" />
    <glyph glyph-name="cent" unicode="&#xa2;" horiz-adv-x="1003" 
d="M342 1010q10 84 84 129q30 21 55 16t29 -39q-23 -208 -51 -427q-27 -218 -23 -427q3 -71 5 -216q2 -112 18 -220q2 -29 -19 -66q-20 -35 -48 -62q-28 -26 -56 -32q-29 -6 -41 31q-2 98 5 175q10 116 17 175q15 125 20 175q10 93 11 175q8 163 1 306t-7 307zM47 381
q12 61 45 120q34 60 79 108q50 53 102 90q60 43 116 65q36 14 75 16q50 2 75 2q37 0 59 -22q23 -23 33 -55q11 -33 12 -70q2 -39 -4 -66q-1 -6 -11 -40q-8 -27 -23 -60q-15 -32 -33 -55q-20 -25 -40 -25l-15 9q-25 15 -34 21q-15 10 -35 20q-16 8 -20 12q-20 7 -22 33
q-3 43 -2 53q1 23 -4 47q-4 20 -31 20q-30 0 -57 -18t-51 -45q-21 -24 -41 -57q-16 -26 -21 -54q-15 -75 7 -140q20 -61 75 -106q50 -41 138 -63q85 -21 195 -15q39 1 89 19q46 16 94 38q4 2 40 18.5t55 24.5q55 24 91 34q3 3 20 4q24 2 25 2q18 2 42 -3q23 -4 17 -32
q-11 -54 -58 -89q-49 -36 -109 -60q-50 -20 -122 -34q-63 -13 -93 -14q-8 0 -20 -1q-18 -1 -39 -3q-7 0 -21.5 -1.5t-22.5 -2.5q-30 -2 -35 -2q-62 -2 -115 2q-60 4 -126 20q-63 15 -120 42q-59 28 -97 69q-43 46 -60 103q-18 60 -2 141z" />
    <glyph glyph-name="sterling" unicode="&#xa3;" horiz-adv-x="1388" 
d="M1026 981q68 24 78 -37q8 -51 -1 -81q-8 -29 -31 -52q-19 -19 -52 -32q-25 -10 -64 -17q-36 0 -41 39q-5 24 -3 56q1 21 3 67q3 69 3 70q0 31 -7 71l-6 45q-3 15 -14 72q-6 31 -22 66q-13 30 -34 49q-22 21 -55 22q-29 0 -57 -23q-26 -22 -47 -59q-20 -36 -34 -84
q-13 -44 -19 -96q0 -2 -2 -25t-3 -40q0 -13 -5 -97q-4 -72 -5 -121q0 -22 -1.5 -66t-2.5 -67h23q58 0 131 5t131 5q36 0 51 -11q17 -12 21 -40q4 -22 -4 -54q-9 -34 -21 -54q-16 -25 -34 -42q-20 -18 -38 -18q-65 35 -134 61q-63 23 -130 31l-4 -225q127 -22 239 -63
q155 -57 216 -80q41 -18 61 -23q24 -6 46 -6q14 0 44 2t55 2q20 0 28 -11t13 -30q10 -56 -5 -94q-14 -35 -40 -58t-51 -31q-27 -9 -39 -9q-37 0 -70 29q-38 33 -100 71q-54 32 -95 60t-91 54q-42 22 -100 40q-52 16 -123 18q-4 -4 -9 -21q-6 -22 -10 -34q-6 -18 -15 -33
q-8 -14 -28 -14q-19 0 -26 11q-10 16 -13 27q-4 16 -6 35t-6 31q-85 -4 -160 -35q-73 -30 -129 -90q-42 -31 -65 -31q-40 2 -47 45q-12 72 28 120q39 47 105 78q63 30 135 42t121 12h14q6 72 11 105q9 65 14 104q-104 -17 -195 -78q-43 4 -47 41q-1 20 3 47q5 30 16 52
q14 28 25 45q13 20 26 28q20 7 39 8q14 1 38 1q31 0 55 -4q18 -3 56 -9q9 68 14 116l13 121q4 45 14 119q7 55 23 111q22 84 34 118q24 68 46 111q26 51 59 82q32 31 71 31q40 0 78 -27q36 -26 67 -74q30 -47 51 -105q22 -62 32 -119q6 -45 9 -83q3 -36 1 -73z" />
    <glyph glyph-name="currency" unicode="&#xa4;" horiz-adv-x="1036" 
d="M518 455q117 0 180 83q64 84 64 210q0 59 -17 115q-16 52 -47 94q-30 41 -76 63q-45 22 -104 22q-60 0 -104 -22q-46 -23 -77 -63q-32 -41 -48 -94q-17 -56 -17 -115q0 -63 17 -117q17 -53 48 -92q32 -39 77 -62q44 -22 104 -22zM39 344l141 145q-78 112 -78 259
q0 145 78 253l-141 146l92 88l137 -141q47 36 112 59q64 23 138 23q73 0 137 -23q66 -24 113 -59l137 141l92 -88l-141 -146q76 -110 76 -253q0 -72 -21 -138q-22 -69 -57 -118l143 -148l-92 -88l-139 141q-99 -75 -248 -75t-248 75l-139 -141z" />
    <glyph glyph-name="yen" unicode="&#xa5;" horiz-adv-x="1155" 
d="M238 109q-32 2 -39 19q-8 19 -4 40q5 27 15 45q15 28 21 35q15 15 23 21q11 8 25 14q49 10 100 7q44 -3 99 -11q12 -2 101 -18q43 -8 103 -13q12 -2 45 -3q33 -2 68 0q35 1 63 3q30 2 31 6q34 1 83 7q37 4 77 26q33 6 44 -7q12 -13 10 -35q-2 -24 -11 -45t-21 -38
q-7 -16 -17 -24q-2 -2 -26 -17l-24 -9q-16 -6 -25 -6q-37 -4 -85 3q-47 7 -84 16q-33 8 -85 19t-86 12q-87 4 -206 -1q-104 -4 -195 -46zM379 340q-32 2 -39 19q-8 19 -4 40q5 24 16 45q12 22 23 35q12 18 19 22q2 1 6.5 3.5t9.5 5t10 4.5q49 10 101 7q46 -3 100 -11
q33 -5 99 -17q54 -10 103 -14q16 -2 41 -2q18 0 62 2q22 1 62 3q20 1 42 1q48 5 83 9q40 5 77 26q33 6 44 -7q12 -13 10 -35q-2 -23 -10 -45q-8 -20 -20 -38q-12 -16 -19 -22q-21 -17 -24 -19q-15 -4 -26 -10q-12 -6 -25 -6q-48 -2 -85 5q-56 10 -84 16l-84 19
q-45 10 -85 11q-50 1 -102 3q-53 2 -106 -3q-62 -5 -102 -15q-54 -13 -93 -32zM188 -582q0 66 28 141q28 74 65 126l557 907l20 41v8q0 2 -30 8q-3 1 -28 6t-41 8q-49 9 -79 16q-36 8 -57 17q-89 39 -166 128q-80 92 -143 206q-59 107 -99 236q-37 120 -37 217q0 23 3 45
t32 22q17 0 39 -6q23 -6 37 -6h4q2 0 4 2l47 47q18 0 22 -16q5 -18 5 -27q0 -18 -7 -32q-8 -16 -8 -33q0 -19 15 -35q14 -15 14 -33q0 -16 -5 -38t-5 -42q0 -84 40 -174q42 -95 105 -171q65 -78 149 -130q82 -51 169 -51q8 0 40 2q14 1 47 7q24 4 44 16q19 11 30 30l293 508
q33 57 79 105q43 45 114 45q66 0 90 -38q25 -39 25 -104q0 -96 -27 -183q-27 -88 -75 -164q-47 -75 -115 -140q-70 -67 -144 -111q-33 -20 -71 -36q-24 -10 -70 -30q-36 -16 -68 -36q-33 -21 -59 -53q-58 -98 -146 -242q-68 -112 -156 -260q-91 -153 -142 -246
q-67 -121 -95 -199q-19 -34 -32 -70q-15 -40 -15 -77q0 -16 18 -16h11q7 6 26.5 23t28.5 26q14 11 42 37q16 15 28 22q2 1 4.5 3t7 5t8.5 6q20 14 30 20q15 9 30 15q14 6 20 4q15 -7 4 -40q-10 -30 -38 -75q-28 -46 -66 -92q-45 -56 -78 -91q-36 -39 -75 -68
q-36 -27 -56 -27q-64 0 -103 36t-39 101zM1180 936q0 -10 8 -10q10 0 26 10q19 12 25 18q68 62 116 131t48 168q-15 0 -50 -42q-29 -36 -70 -95q-27 -39 -65 -106q-31 -54 -38 -74zM203 1477q0 -3 2 -17q0 -2 5 -21q3 -13 6 -20q3 -8 7 -8t7 8q5 13 7 20q2 9 4 21q1 7 1 17
q0 26 -19 26q-20 0 -20 -26z" />
    <glyph glyph-name="brokenbar" unicode="&#xa6;" horiz-adv-x="428" 
d="M133 543q1 38 23 58q23 21 53 28q28 4 52 -14t30 -56q0 -173 -1 -258t-1 -258q-5 -13 -7 -24q-1 -6 -12 -23q-19 -13 -28 -18q-17 -8 -39 -10q-21 -2 -40 10q-20 12 -32 45q0 176 1 261t1 259zM135 1237q6 63 76 68q30 -1 55 -18q22 -15 27 -50q-4 -104 -4 -233
q0 -78 -2 -234q0 -16 -3 -21t-16 -16q-6 -9 -26 -17q-18 -8 -39 -6q-22 2 -40 14q-19 13 -30 44q0 79 2 231q2 114 0 238z" />
    <glyph glyph-name="section" unicode="&#xa7;" horiz-adv-x="1110" 
d="M1018 1004q-29 -42 -56 -61q-30 -21 -53 -21q-12 0 -12 22q2 16 3 20q1 3 -1 13q2 44 -25 75q-29 33 -65 53q-38 21 -80 33q-37 11 -65 11q-32 0 -84 -5q-42 -4 -91 -21q-43 -15 -73 -42q-31 -28 -37 -67q-5 -33 6 -56q10 -22 36 -40q28 -20 69 -34q57 -20 106 -34
q13 -3 45 -7t95 -17q70 -15 120 -29q64 -18 117 -47t88 -70t33 -94q0 -13 -2 -19q0 -2 -15 -41q-15 -40 -46 -91q-30 -50 -82 -105q-50 -53 -124 -86q23 -5 57 -17q31 -11 52 -25t37 -38q14 -20 12 -53q0 -55 -35 -99q-53 -67 -67 -84q-98 -110 -225 -155q-126 -45 -267 -45
q-40 0 -100 6q-63 6 -115 26q-55 21 -93 59t-34 99q1 20 12 47q9 22 26 50q13 21 37 40q22 17 48 17q24 0 31 -39q-2 -42 18 -67q23 -30 54 -46q36 -19 75 -29q40 -10 80 -15q39 -4 71 -6q21 -1 46 -1q41 0 108 8q61 7 120 32q55 23 90 64t18 109q-5 19 -25 28q-21 9 -33 21
q-3 1 -28.5 10t-37.5 13q-31 10 -68 18q-36 8 -79 12q-39 4 -100 4q-34 0 -80 3q-40 3 -97 13q-63 11 -101 23q-50 15 -89 39q-35 22 -62 60q-24 34 -22 82q1 57 38 118t91 111q55 50 125 90q64 36 142 59q-70 29 -119 66t-45 106q0 61 48 121q49 61 120 107q77 50 156 76
q84 28 157 28q39 0 87 -15q45 -14 90 -43q42 -27 71 -65t29 -82q-1 -14 -10 -39t-21 -42zM180 436q40 -46 91 -72q47 -24 107 -40q54 -14 116 -22q20 -2 59 -7t59 -8q28 25 89 44q59 18 117 39q57 21 105 56q45 34 56 96q-17 52 -50 85q-35 35 -78 57q-37 19 -97 38
q-35 11 -109 31q-11 -21 -41 -43q-27 -20 -51 -20q-30 0 -61 -7q-37 -8 -62 -15q-37 -10 -49 -14q-20 -7 -23 -7h-2l6 4q-32 -11 -59 -24q-26 -12 -52 -35q-24 -21 -42 -54q-19 -35 -29 -82z" />
    <glyph glyph-name="dieresis" unicode="&#xa8;" horiz-adv-x="92" 
d="M262 1640q2 -28 -12 -47q-13 -18 -36 -31q-22 -12 -46 -14q-26 -2 -43 8q-20 11 -28 29q-10 21 -11 23q-3 6 -9 17.5t-8 15.5q-9 19 -8 34q0 17 16 30q12 9 36 18q25 9 42 10q28 2 33 2q66 0 74 -95zM524 1651q2 -30 -12 -48q-14 -19 -36 -31q-20 -11 -46 -13t-45 8
q-20 17 -26 30q-8 18 -11 21q-8 16 -18 33q-10 15 -8 35q1 16 17 29q13 11 35 19q20 8 40 9q28 2 35 2q68 0 75 -94z" />
    <glyph glyph-name="copyright" unicode="&#xa9;" horiz-adv-x="1622" 
d="M836 1407q155 0 287 -58q135 -59 235 -159t154 -237q55 -139 49 -289q-5 -155 -67 -293q-63 -140 -168 -245q-106 -106 -246 -167t-302 -61q-160 0 -294 60q-132 59 -232 164q-100 104 -152 240q-53 139 -49 291q7 155 74 294q66 139 172 240q105 100 246 161
q137 59 293 59zM831 1282q-126 0 -246 -50q-117 -49 -207 -136q-91 -88 -144 -200q-53 -113 -58 -243q-6 -134 40 -247q47 -116 130 -200q82 -83 197 -134q111 -49 237 -49q138 0 255 52q119 52 205 139q86 86 138 202q52 117 58 237q4 128 -40 244t-126 201
q-82 86 -195 135q-111 49 -244 49zM299 596q0 89 32 168q29 73 82 143q48 64 113 118q59 49 127 88q62 35 121 54q60 19 96 19q18 0 37 -8q22 -9 39 -9q15 0 23 22q7 21 20 21q19 0 26 -9q7 -8 10 -24q3 -15 3 -36q0 -13 2 -43q0 -3 1 -6t1 -9q2 -5 9.5 -24.5t10.5 -29.5
q9 -25 9 -62q0 -41 -9 -85t-27 -81q-17 -36 -39 -61q-20 -23 -46 -23q-32 0 -47 38q-14 35 -14 91q0 48 13 93q5 18 14 48t12 39v14q0 23 -25 31q-26 8 -35 8h-65q-38 0 -66 -14q-41 -16 -100 -53q-66 -41 -124 -99q-65 -65 -105 -138q-44 -80 -44 -173q0 -52 17 -95
q15 -39 41 -76q21 -31 53 -59q30 -26 55 -42q85 -55 179 -90q93 -35 185 -30q90 4 175 56q82 50 149 166q2 5 8.5 17t9.5 19t8.5 19t7.5 17q8 17 14 27q8 12 14 12q9 0 13.5 -1.5t3.5 -5.5q-1 -5 -1 -24q0 -40 -11 -79q-12 -43 -28 -70q-32 -52 -57 -85q-30 -39 -88 -67
q-67 -30 -154 -45q-79 -14 -175 -9q-87 4 -174 32q-83 26 -152 81q-66 52 -107 133q-41 80 -41 191zM991 1004q-22 -6 -25 -31q-3 -24 -3 -53v-10q0 -3 2 -9l4 -12q20 20 20 41q0 4 2 74z" />
    <glyph glyph-name="ordfeminine" unicode="&#xaa;" horiz-adv-x="698" 
d="M43 1141q38 87 100 122t146 46q-2 2 -8.5 6t-9.5 7q-8 7 -15 7h-18q-19 0 -32 4q-16 5 -16 23q0 9 6 33q4 14 14 35q9 18 20 29t22 11h2q48 -16 78 -38q27 -20 52 -56q19 -27 50 -86q29 -55 72 -125l-2 2q2 -3 10 -16t13 -19q10 -14 24 -26v2l11 -3q12 -3 24 -9
q8 -4 22 -16q10 -9 10 -23q0 -18 -7 -33q-9 -19 -19 -32q-12 -15 -27 -24q-17 -10 -28 -10q-15 0 -33 16q-15 14 -33 38q-11 15 -31 45q-13 20 -22 39q-36 -49 -93 -75q-61 -28 -116 -44l2 2q-11 -3 -35 -9t-41 -6q-51 0 -82 26q-30 26 -30 69q0 25 8 49q7 22 12 39z
M362 1184q-2 2 -2 4v2h-24q-32 0 -69 -3q-39 -3 -70 -13q-33 -10 -56 -29q-22 -18 -22 -49q0 -37 45 -37q30 0 62 6q34 7 62 19q29 13 51 32q21 18 32 43q0 8 -2 10z" />
    <glyph glyph-name="guillemotleft" unicode="&#xab;" horiz-adv-x="708" 
d="M367 788q49 7 58 -14q9 -22 -3 -54q-11 -30 -38 -66q-25 -34 -46 -46q-12 -7 -29 -23q-20 -18 -42 -47q-12 -15 -39 -56q-17 -26 -19 -46l12 -49q8 -36 13 -56q8 -33 19 -57q12 -28 26 -47q14 -20 36 -30q18 -29 20 -57q2 -27 -11 -49t-35 -34q-23 -12 -53 -8
q-27 17 -33 29v-2q-15 18 -33 61q-21 50 -35 93q-12 36 -26 98q-11 48 -5 69q11 54 37 103q24 46 56 96v-2q29 59 67 107q39 50 98 83h-4zM606 782q52 8 61 -13t-3 -54q-12 -32 -39 -67q-24 -31 -50 -48q-4 -3 -26 -25q-25 -25 -42 -47q-28 -36 -40 -54q-18 -27 -18 -46
q0 -2 2 -8t2 -8q2 -11 7 -34t7 -30q6 -30 20 -67q12 -32 29 -59q17 -26 39 -38q21 -26 19 -52q-2 -27 -15 -46q-15 -21 -40 -33t-54 -12l-4 4q-17 21 -39 69q-24 52 -41 102q-22 66 -31 103q-12 51 -8 72q12 54 38 104q26 51 56 97v-2q31 53 68 105q35 48 98 83h-4z" />
    <glyph glyph-name="logicalnot" unicode="&#xac;" horiz-adv-x="1212" 
d="M92 678q-28 -6 -32 5q-4 12 0 29q4 16 17 37q6 10 17 29q28 44 73 87q42 40 95 63q73 6 139 2q51 -3 140 -13q52 -6 139 -17q60 -8 139 -13q80 -6 147 -2q63 4 146 4q13 -5 14 -12q0 -105 -3 -208q-3 -100 14 -208q8 -24 -2 -51q-12 -32 -31 -58q-25 -34 -44 -53
q-29 -29 -40 -39q-4 -4 -13 -11.5t-10 -8.5q-16 -14 -26 -19q-15 -8 -28 -9t-25 9q-8 26 -4 62q3 21 10 61q23 153 31 194q18 95 30 193q-108 19 -199 18q-80 -1 -198 -10q-125 -8 -248 -18q-128 -11 -248 -43z" />
    <glyph glyph-name="uni00AD" unicode="&#xad;" horiz-adv-x="761" 
d="M113 264q-45 12 -68 41q-22 28 -22 62q0 33 22 61q23 29 68 41q31 -7 144 -31q50 -11 149 -24q44 -4 87 6q16 4 46 10.5t43 9.5q21 12 39 16q22 5 43 -5q41 -17 59 -50q16 -29 11 -62q-5 -32 -32 -56q-28 -25 -71 -29q-3 0 -4 -1t-4 -1q-29 7 -48 20q-114 34 -231 27
q-114 -7 -231 -35z" />
    <glyph glyph-name="registered" unicode="&#xae;" horiz-adv-x="1613" 
d="M836 1407q155 0 287 -58q135 -59 235 -159t154 -237q55 -139 49 -289q-5 -155 -67 -293q-63 -140 -168 -245q-106 -106 -246 -167t-302 -61q-160 0 -294 60q-132 59 -232 164q-100 104 -152 240q-53 139 -49 291q7 155 74 294q66 139 172 240q105 100 246 161
q137 59 293 59zM831 1282q-126 0 -246 -50q-117 -49 -207 -136q-91 -88 -144 -200q-53 -113 -58 -243q-6 -134 40 -247q47 -116 130 -200q82 -83 197 -134q111 -49 237 -49q138 0 255 52q119 52 205 139q86 86 138 202q52 117 58 237q4 128 -40 244t-126 201
q-82 86 -195 135q-111 49 -244 49zM375 319q0 12 1 22t1 17l51 318v8q0 12 -15 18q-13 5 -35 17q-23 12 -35 27q-15 18 -15 53q0 29 22 41t45 12q15 0 29 -2l31 -6q14 1 22 14q11 17 15 28q5 13 10 29t10 25q39 64 76 107q36 42 71 59q18 16 25 36t25 38q25 0 32 -1
q11 -2 15 -4q4 -3 4 -13t4 -23q2 -5 12 -9q4 -2 12 -4.5t11 -3.5q4 -2 11.5 -4t11.5 -4q15 -6 18 -8q34 -27 53 -62q16 -29 16 -75q0 -69 -38 -125t-97 -90q-3 -1 -16.5 -8.5t-23.5 -12.5q-25 -12 -25 -14q-1 -1 3 -9q5 -9 11 -10q38 -26 100 -80q50 -44 116 -106
q58 -55 112 -109q65 -65 88 -90q8 -6 22.5 -16.5t16.5 -12.5q18 -14 18 -40q0 -15 -5 -15q-6 0 -13 -10q-11 -11 -15 -23q-5 -14 -22 -14q-15 0 -31 16t-27 34q-8 13 -22 41q-9 18 -19 34q-32 41 -54 66q-67 76 -70 79q-25 27 -72 74q-28 28 -58 56q-10 9 -39 34
q-20 17 -46 35q-25 17 -46 27t-43 10q-17 0 -22 -5q-3 -3 -8 -17l-82 -361q-1 -10 -8 -27q-4 -10 -16 -30q-8 -14 -21 -25q-11 -10 -27 -10q-21 0 -32 10t-16 27t-6 34q-1 12 -1 33zM489 686q-5 0 -13 -32q-6 -24 -11 -73q-2 -22 -7 -80q-3 -38 -3 -50q9 0 10 4q0 3 9 37
t21 75q4 12 20 75l9 34l-4 10h-31zM741 1040q-15 0 -29 -15q-13 -14 -24 -38q-9 -19 -19 -46l-8 -20t-8 -22q-5 -11 -9 -27l-5.5 -16.5t-4.5 -14.5q-8 -25 -8 -27q-3 -12 -3 -13v-25q33 0 69 13q40 14 68 37q30 24 50 56q19 31 19 68q0 41 -23 65q-24 25 -65 25zM524 825
q0 -10 8 -15t19 -5q9 0 16 14l51 154l-6 4q-7 -7 -27 -31q-14 -17 -29 -40q-11 -17 -22 -43q-10 -23 -10 -38z" />
    <glyph glyph-name="macron" unicode="&#xaf;" horiz-adv-x="131" 
d="M-129 1456q-43 0 -49 20t6 44t37 49t43 37q62 12 121 11q69 -2 125 -7q5 0 127 -15q73 -9 125 -10q41 -4 109 -4q55 0 127 5q45 3 128 13q62 7 115 23q37 6 47 -7t7 -34q-3 -22 -14 -41q-12 -21 -18 -27q-13 -9 -27 -14q-24 -8 -36 -11q-24 -6 -34 -8q-15 -3 -22 -3
q-100 -10 -211 -2q-131 9 -217 14q-45 3 -123 7q-72 3 -129 2q-69 -2 -125 -10q-60 -9 -112 -32z" />
    <glyph glyph-name="degree" unicode="&#xb0;" horiz-adv-x="684" 
d="M319 1133q-54 -2 -114 38q-25 23 -43 49q-20 29 -27 54q-7 33 -3 68q4 34 24 65q18 29 48 48q32 21 70 22q67 0 117 -37q51 -38 68 -107q12 -35 5 -70q-8 -37 -28 -66q-21 -30 -51 -48q-29 -18 -66 -16zM299 1229q19 0 36 11q19 12 30 28q12 16 18 35q6 18 0 34
q-6 27 -29 42t-51 14q-21 0 -40 -11t-30 -26q-13 -17 -17 -35q-5 -20 -1 -35q7 -27 32 -42q24 -15 52 -15z" />
    <glyph glyph-name="plusminus" unicode="&#xb1;" horiz-adv-x="841" 
d="M98 0q-24 0 -38 12q-13 11 -19 30q-6 18 -6 34q0 17 4 24q7 12 9 14q6 6 13 11q49 14 118 6q65 -8 130 -12q37 -3 108 -7q63 -3 108 -2q61 2 101 8q49 8 85 25q27 5 43 -10t22 -37q19 -54 -28 -78q-55 -10 -121 0q-67 11 -131 15q-32 1 -107 5q-49 3 -109 1
q-48 -1 -102 -10q-46 -7 -80 -29zM334 795q0 13 12 30q13 18 30 25q18 8 36 3q17 -4 34 -34q6 -46 5 -79q0 -11 -8 -69q-3 -23 -11 -69q-6 -34 -6 -74v-14q68 1 158 7q61 4 141 24q29 -6 42 -25q12 -17 10 -39q-2 -21 -10 -37q-8 -15 -22 -22q-74 -2 -157 4q-26 2 -54 3.5
t-59.5 3.5t-46.5 3q-2 0 -2 -10q0 -15 1 -25t3 -26t2 -17q6 -44 11 -67q8 -34 24 -68q2 -17 -7 -34q-7 -15 -25 -27q-14 -10 -36 -8q-19 1 -41 26q-1 14 -6 28t-6 25q-4 56 4 104q9 54 13 103q-87 2 -142 -5q-60 -7 -112 -38q-23 0 -38 13t-20 28q-6 18 -5 33q2 19 5 27
q5 11 8 13l15 9q48 10 112 2q61 -7 121 -6h62l-11 88q0 8 -2 42q0 8 -1.5 25.5t-2.5 26.5q-1 19 -7 53q-4 23 -11 44z" />
    <glyph glyph-name="uni00B2" unicode="&#xb2;" horiz-adv-x="675" 
d="M442 1372q-21 20 -59 32q-32 10 -76 12q-39 1 -72 -10q-35 -12 -51 -38q-14 -25 -32 -47q-23 -29 -45 -29q-12 0 -26 14q-12 12 -17 46q-2 42 15 70q18 30 49 48q34 19 74 28q42 9 89 9q49 0 95 -9q45 -9 83 -27t61 -41q24 -24 29 -56q0 -40 -27 -83q-36 -57 -49 -77
q-7 -9 -39 -39q-9 -8 -29 -28l-31 -31q-46 -44 -71 -68q-31 -30 -66 -70q-30 -34 -48 -63t-17 -45q0 -8 31 -11q30 -3 72 -3q55 0 119 8q51 6 85 17q7 3 33 10q22 6 45 6q21 0 35 -7q15 -8 17 -26q3 -8 -5 -26v2q-6 -29 -39 -44q-38 -17 -77 -25q-48 -10 -97 -11
q-68 -2 -96 -2q-32 0 -59 -1q-39 -1 -82 5q-44 6 -74 23q-34 18 -35 55q0 20 20 48q19 27 48 57q32 34 60 59q8 7 28 25t29 26q27 24 64 61q50 50 73 77q35 41 58 80q24 40 22 70q-5 19 -15 29zM184 1366v2v2v-4z" />
    <glyph glyph-name="uni00B3" unicode="&#xb3;" horiz-adv-x="733" 
d="M541 1382q-7 -56 -43 -90q-33 -31 -109 -78l-6 -2q19 -7 47 -16t35 -12q28 -10 47 -15q16 -5 24 -6q3 -1 7 -2.5t6 -1.5q55 -12 87 -47q32 -34 36 -78q4 -38 -11 -63v2q-49 -55 -95 -96q-42 -38 -91 -63q-45 -23 -103 -34q-54 -10 -130 -10q-80 0 -141 22q-59 21 -66 78
q-2 23 7 33t21 10q17 0 33 -16q15 -14 46 -26q20 -8 62 -18q28 -7 62 -10q30 -3 49 -3q47 0 92 17q49 18 88 43q38 24 66 55q27 30 25 53q-1 23 -30 44q-24 17 -70 32q-41 13 -89 24q-18 4 -52 11t-37 8q-34 7 -69 17q-29 8 -30 17q0 26 14 51q15 27 37 31q1 0 4 1l6 2t6 1
l21 4q48 12 75 29q27 18 38 31q12 15 13 25q1 8 1 16q0 1 -8 9q-2 2 -21 14q-14 9 -27 14q-15 6 -28 6q-6 0 -19 -5q-3 -1 -22 -12l-27 -14q-6 0 -19 7t-27 18q-14 10 -23 20q-10 10 -10 16q-2 7 0 13q1 2 2.5 5.5t1.5 4.5v4q7 21 22 34q14 13 51 17q49 -5 92 -16
q47 -12 87 -29q36 -15 64 -35q26 -19 28 -37v-4z" />
    <glyph glyph-name="acute" unicode="&#xb4;" horiz-adv-x="65" 
d="M238 1587l-7 -18q-13 -30 -49 -55q-29 -20 -63 -48q-8 -7 -20.5 -17t-21.5 -17.5l-15 -12.5q-21 -18 -48 -8q-5 5 -18 10q-15 6 -4 25q7 25 34 71q24 42 57 82q34 42 63 64q32 24 53 14q34 -17 38 -42q5 -28 1 -48z" />
    <glyph glyph-name="mu" unicode="&#xb5;" horiz-adv-x="841" 
d="M125 -309q-38 -31 -55 -28q-19 3 -22 25q-3 20 5 52q7 28 25 51q17 74 22 158q3 59 11 162q4 80 12 161q7 73 20 160q9 66 10 80q5 45 21 78q2 8 12 23q11 16 24 26q14 11 26 9t18 -25q2 -33 -5 -64q-4 -16 -11 -61q-14 -60 -15 -111v-2l-6 -158q24 -52 75 -89
q49 -35 106 -49q56 -13 111 -1t89 55q8 9 17 27q3 5 8.5 14.5t7.5 14.5q8 93 18 179q5 45 23 179q0 10 2 18q7 25 22 47q14 20 33 34q16 12 29 4q11 -7 10 -46q-11 -120 -19 -270q-10 -173 -14 -276q-2 -30 -12 -55t-33 -46q-28 -28 -52 -24q-23 4 -28 51l9 82
q-5 -7 -17 -19q-6 -6 -16 -14q-38 -35 -82 -45q-45 -10 -93 -3q-49 8 -96 29q-45 20 -86 52q-3 1 -7 5l-5 5q0 -36 -2 -108q-1 -51 -11 -104q-8 -47 -28 -97q-18 -47 -51 -86z" />
    <glyph glyph-name="mu" unicode="&#x3bc;" horiz-adv-x="841" 
d="M125 -309q-38 -31 -55 -28q-19 3 -22 25q-3 20 5 52q7 28 25 51q17 74 22 158q3 59 11 162q4 80 12 161q7 73 20 160q9 66 10 80q5 45 21 78q2 8 12 23q11 16 24 26q14 11 26 9t18 -25q2 -33 -5 -64q-4 -16 -11 -61q-14 -60 -15 -111v-2l-6 -158q24 -52 75 -89
q49 -35 106 -49q56 -13 111 -1t89 55q8 9 17 27q3 5 8.5 14.5t7.5 14.5q8 93 18 179q5 45 23 179q0 10 2 18q7 25 22 47q14 20 33 34q16 12 29 4q11 -7 10 -46q-11 -120 -19 -270q-10 -173 -14 -276q-2 -30 -12 -55t-33 -46q-28 -28 -52 -24q-23 4 -28 51l9 82
q-5 -7 -17 -19q-6 -6 -16 -14q-38 -35 -82 -45q-45 -10 -93 -3q-49 8 -96 29q-45 20 -86 52q-3 1 -7 5l-5 5q0 -36 -2 -108q-1 -51 -11 -104q-8 -47 -28 -97q-18 -47 -51 -86z" />
    <glyph glyph-name="paragraph" unicode="&#xb6;" horiz-adv-x="1349" 
d="M1286 1376l-12 -180l-197 2l-131 -1653q0 -33 -23 -49t-53 -16q-29 0 -51 16t-20 51l88 1201h-164l-88 -1201q-4 -32 -29 -49q-23 -16 -54 -16t-52 17q-23 19 -19 50l80 990q-104 0 -181 29q-79 30 -131 82q-51 51 -79 125q-27 71 -25 157q1 100 39 183q37 81 104 142
t161 92q93 31 208 31z" />
    <glyph glyph-name="periodcentered" unicode="&#xb7;" horiz-adv-x="477" 
d="M133 762q50 56 108 74t97 -11q39 -30 34 -91q-4 -58 -53 -116q-44 -57 -107 -76q-59 -18 -97 11q-39 33 -33 91t51 118z" />
    <glyph glyph-name="cedilla" unicode="&#xb8;" horiz-adv-x="163" 
d="M793 0q0 -19 1 -20l2 -2l-1 -2q-6 -11 -9 -23q38 -6 63 -33q26 -27 30 -67q4 -42 -18 -85q-20 -39 -59 -70q-34 -28 -88 -47q-50 -18 -104 -18q-62 0 -67 29q0 10 30 21q44 15 68 26q39 17 66 40q28 23 26 63q-1 23 -17 31q-14 7 -52 7q-19 0 -25 17q-7 18 -8 35l1 -12
q1 -11 2 -11q2 0 0 24t-3 97h162z" />
    <glyph glyph-name="uni00B9" unicode="&#xb9;" horiz-adv-x="483" 
d="M59 1352q7 12 39 37q28 22 67 50q38 27 72 44q36 18 56 18q30 0 50 -19q22 -20 22 -38q2 -20 2 -28v-27q-4 -57 -17 -111q-7 -31 -37 -135q-11 -31 -31 -104q-12 -43 -15 -81q-3 -41 -2 -72q2 -53 5 -81q4 -36 -12 -51q-17 -15 -49 -15q-21 0 -36 5q-13 4 -13 24
q-2 20 1 38q3 20 3 42q-2 70 6 130q7 56 23 123q3 12 13.5 59t17.5 74q16 62 34 161q-11 -1 -29 -13q-2 0 -2 -2l-4 -4q-21 -13 -38 -28t-43 -35q-23 -18 -38 -29q-16 -12 -22 -12q-28 0 -29 45q-4 15 4 26z" />
    <glyph glyph-name="ordmasculine" unicode="&#xba;" horiz-adv-x="780" 
d="M37 1171q0 58 28 103q27 44 68 74q39 29 91 51q50 21 93 33q9 14 30 30q18 14 44 19h72q54 0 97 -19q41 -18 65 -48q23 -29 34 -64q11 -36 11 -66q0 -86 -36 -143t-90 -93q-56 -37 -118 -52q-63 -15 -117 -15q-25 0 -72 9q-45 9 -91 31q-43 21 -76 58t-33 92zM393 1374
q-12 0 -25 -8q-11 -7 -22 -18q-7 -7 -19 -21q-6 -7 -18 -14q-4 -1 -52 -8q-25 -4 -59 -14q-31 -9 -54 -25t-35 -43q7 -43 36 -75q27 -29 67 -52q38 -21 78 -30t68 -9q36 0 77 9q39 9 75 29t59 49q25 32 31 70q-12 56 -38 88q-25 31 -56 48q-27 15 -62 20q-27 4 -51 4z" />
    <glyph glyph-name="guillemotright" unicode="&#xbb;" horiz-adv-x="708" 
d="M371 780h-4q59 -33 98 -83q37 -48 67 -107v2q32 -50 56 -96q26 -49 37 -103q6 -24 -4 -69q-12 -53 -27 -98q-14 -43 -35 -93q-18 -43 -33 -61v2q-7 -13 -32 -29q-30 -5 -54 8q-21 11 -34 34t-12 49q2 28 20 57q23 11 36 30q14 19 26 47q11 24 19 57q5 20 13 56l12 49
q-6 22 -20 46q-20 33 -38 56q-22 29 -42 47q-17 16 -29 23q-23 12 -48 46q-27 36 -38 66q-12 32 -2 54q10 21 59 14zM131 774h-4q63 -35 98 -83q37 -52 68 -105v2q30 -46 56 -97q26 -50 38 -104q2 -27 -9 -72q-12 -48 -30 -103q-17 -50 -41 -102q-23 -48 -39 -69l-4 -4
q-28 0 -54 12q-25 12 -40 33q-13 19 -15 46q-2 26 19 52q22 12 39 38q18 28 29 58q13 36 20 68q2 7 7 30t7 34q0 2 1.5 4.5t1.5 3.5q2 6 2 8q0 18 -19 46q-12 18 -40 54q-18 23 -42 47q-22 22 -26 25q-26 17 -50 48q-25 33 -38 67q-12 34 -4 54q9 21 61 13z" />
    <glyph glyph-name="onequarter" unicode="&#xbc;" horiz-adv-x="1132" 
d="M752 330q36 12 43 14q25 7 34 8q15 71 18 101q5 48 1 88q0 15 -3 39q-4 32 -5 47q-4 43 0 74q5 32 24 32q48 0 63 -28q14 -27 19 -62q8 -73 -6 -129q-15 -60 -31 -98l-2 -16l-4 -22q-1 -10 -5 -21l-3 -9q22 0 42 1q30 1 60 -3q37 -6 56 -15q25 -12 26 -34q2 -23 -15 -40
t-48 -17q-13 0 -40 4q-22 3 -89 10q-3 -12 -5 -36q-1 -12 1 -36q0 -12 6 -42q4 -20 10 -60q4 -27 -1 -54q-4 -24 -26 -24q-25 0 -49 24t-28 60q0 13 1 25q1 16 3 41q0 7 1.5 22.5t2.5 23.5q1 9 2.5 23.5t1.5 18.5q-30 0 -71 -9q-33 -7 -67 -19q-31 -11 -69 -19
q-41 -9 -76 -9q-20 0 -36 13q-14 11 -25 45q0 64 38 151q37 84 83 164q1 2 7 15.5t10 21.5q6 14 20 38q7 12 19 28q9 12 15 12q33 0 38 -22q5 -24 -6 -54q-13 -35 -33 -74q-7 -14 -21 -41t-21 -41q-17 -33 -35 -76q-15 -37 -14 -57q0 -8 22 -8q19 0 52 5q31 5 62 12
q24 6 53 14zM680 1167l-225 -505q-4 -17 -37 -118q-38 -119 -76 -243q-24 -69 -57 -135q-38 -77 -58 -127q-8 -14 -10 -16q-12 -17 -29 -17q-33 -2 -48 2q-19 5 -25 11q-10 10 -11 17q-1 3 -2.5 9t-1.5 8q-4 7 -9 31q-5 22 20 47q49 37 91 111t87 168q26 54 53 126
q58 155 68 183q25 82 54 150q9 21 31.5 76t34.5 84q13 30 34 78.5t25 56.5q7 16 14.5 33t11.5 26.5t6 13.5q41 102 81 173q42 74 86 120q5 5 13 3t15 -7q6 -5 8 -18q1 -10 -9 -25zM49 1352q7 12 39 37q28 22 67 50q41 29 71 44q36 18 57 18q30 0 50 -19q21 -20 21 -38
q2 -20 2 -28v-27q-5 -63 -16 -111q-7 -31 -37 -135q-16 -45 -32 -104q-11 -38 -14 -81q-3 -41 -2 -72q2 -53 5 -81q4 -36 -12 -51t-49 -15q-21 0 -36 5q-14 5 -14 24q-1 16 2 38q3 20 3 42q-2 70 6 130q8 64 22 123q27 114 32 133q16 62 34 161q-11 -1 -29 -13q-2 0 -2 -2
l-4 -4q-21 -13 -38 -28t-43 -35q-23 -18 -38 -29q-17 -12 -22 -12q-28 0 -29 45q-4 15 4 26z" />
    <glyph glyph-name="onehalf" unicode="&#xbd;" horiz-adv-x="1122" 
d="M657 1167l-225 -505q-4 -17 -37 -118q-38 -119 -76 -243q-24 -69 -57 -135q-34 -68 -57 -127q-8 -14 -10 -16q-12 -17 -29 -17q-33 -2 -48 2q-20 5 -26 11q-9 9 -10 17q-1 3 -2.5 9t-1.5 8q-4 7 -9 31q-5 23 19 47q49 37 91 111t87 168q26 54 53 126q58 155 68 183
q25 82 54 150q64 153 67 160q9 21 29 67t29 68q7 16 14.5 33t11.5 26.5t6 13.5q39 96 82 173q42 74 86 120q4 4 12 3q10 -2 16 -7t8 -18q1 -10 -9 -25zM25 1352q8 13 38 37q28 22 67 50q38 27 72 44q36 18 56 18q30 0 50 -19q22 -20 22 -38q2 -20 2 -28v-27q-4 -57 -17 -111
q-12 -51 -36 -135q-16 -45 -32 -104q-12 -43 -15 -81q-3 -41 -2 -72q2 -36 6 -81q4 -35 -13 -51q-16 -15 -49 -15q-21 0 -36 5q-13 4 -13 24q-2 20 1 38q3 20 3 42q-2 70 6 130q7 56 23 123q3 12 13.5 59t17.5 74q16 62 34 161q-9 -1 -28 -13q-2 0 -2 -2l-5 -4
q-17 -11 -37 -28q-17 -15 -43 -35q-23 -18 -38 -29q-16 -12 -23 -12q-27 0 -29 45q-4 14 5 26zM895 614q-21 20 -59 32q-32 10 -76 12q-40 2 -73 -10q-34 -12 -50 -38q-12 -20 -33 -47q-22 -28 -45 -28q-12 0 -25 13q-14 14 -18 46q-2 43 15 71q18 30 50 48t73 27
q47 10 89 10q44 0 96 -10q48 -9 83 -26q37 -18 61 -42t29 -56q0 -38 -27 -82q-36 -57 -49 -77q-10 -13 -39 -40q-9 -8 -29 -28l-31 -31q-46 -44 -71 -68q-37 -36 -67 -70q-32 -37 -48 -62q-18 -28 -16 -45q0 -9 31 -12q30 -3 71 -3q48 0 120 9q56 7 85 16q7 3 33 10
q23 6 45 6q21 0 35 -7q15 -7 16 -25q4 -9 -4 -27v2q-6 -29 -39 -44q-37 -17 -78 -25q-48 -10 -96 -11q-68 -2 -96 -2q-33 0 -60 -1q-39 -1 -82 5q-40 6 -73 24q-34 18 -35 54q0 22 19 48q19 27 48 57q26 27 61 59q46 41 56 51q36 32 65 61q43 43 72 77q38 45 59 80
q23 38 21 71q-5 19 -14 28zM637 608v2v2v-4z" />
    <glyph glyph-name="threequarters" unicode="&#xbe;" horiz-adv-x="1284" 
d="M915 330q36 12 43 14q24 7 35 8q15 71 18 101q5 48 1 88q0 15 -3 39q-4 32 -5 47q-4 43 0 74q5 32 24 32q48 0 63 -28q14 -27 19 -62q8 -73 -6 -129q-15 -60 -31 -98l-2 -16l-4 -22q-1 -10 -5 -21l-3 -9q22 0 42 1q30 1 60 -3q37 -6 56 -15q25 -12 26 -34q2 -23 -15 -40
t-48 -17q-13 0 -40 4q-22 3 -89 10q-5 -18 -6 -36q-1 -6 2 -36q0 -12 6 -42q4 -20 10 -60q4 -27 -1 -54q-4 -24 -26 -24q-25 0 -49 24q-25 25 -29 60q0 13 1 25q0 4 1.5 18.5t2.5 22.5q0 7 1.5 22.5t2.5 23.5q1 9 2.5 23.5t1.5 18.5q-30 0 -71 -9q-33 -7 -67 -19
q-31 -11 -69 -19q-41 -9 -76 -9q-20 0 -36 13q-14 11 -25 45q0 64 38 151q37 84 83 164q1 2 7 15.5t10 21.5q9 20 19 38q4 6 20 28q9 12 15 12q33 0 38 -22q5 -24 -6 -54q-13 -35 -33 -74q-7 -14 -21 -41t-21 -41q-22 -43 -36 -76q-15 -35 -13 -57q0 -8 22 -8q19 0 52 5
q31 5 62 12q18 4 52 14zM872 1167l-225 -505q-4 -17 -37 -118q-20 -63 -75 -243q-22 -62 -58 -135q-34 -68 -57 -127q-8 -14 -10 -16q-12 -17 -29 -17q-33 -2 -48 2q-20 5 -26 11q-9 9 -10 17q-1 3 -2.5 9t-1.5 8q-4 7 -9 31q-5 23 19 47q49 37 91 111t87 168q30 63 54 126
q8 23 18.5 51t25 67.5t23.5 64.5q25 82 54 150q64 153 67 160q9 21 29 67t29 68q7 16 14.5 33t11.5 26.5t6 13.5q39 96 82 173q42 74 86 120q5 4 12 3q10 -2 16 -7t8 -18q1 -10 -9 -25zM518 1382q-7 -56 -43 -90q-35 -33 -108 -78l-7 -2q19 -7 47 -16t35 -12q28 -10 47 -15
q17 -5 24 -6q3 -1 7 -2.5t6 -1.5q55 -12 87 -47q31 -34 36 -78q5 -40 -10 -63v2q-49 -55 -95 -96q-42 -38 -91 -63q-45 -23 -104 -34q-54 -10 -130 -10q-79 0 -140 22q-60 21 -67 78q-2 23 7 33t22 10q17 0 33 -16q15 -14 46 -26q21 -9 61 -18q27 -6 63 -10q30 -3 49 -3
q46 0 91 17q49 18 88 43q40 25 67 55q26 28 24 53q-1 23 -30 44q-25 18 -69 32q-41 13 -89 24q-18 4 -52 11t-37 8q-38 8 -70 17q-29 8 -30 17q0 24 15 51t37 31q1 0 4 1l6 2t6 1l20 4q48 12 75 29q27 18 38 31q12 15 13 25q1 8 1 16q0 1 -8 9q-4 4 -20 14q-12 8 -28 14
q-15 6 -28 6q-6 0 -19 -5q-3 -1 -22 -12l-26 -14q-7 0 -20 7q-10 6 -26 18q-18 14 -24 20q-10 10 -10 16q-2 7 0 13q1 2 2.5 5.5t1.5 4.5v4q7 20 23 34q14 13 51 17q49 -5 92 -16q45 -12 86 -29q36 -15 64 -35q27 -19 28 -36v-5z" />
    <glyph glyph-name="questiondown" unicode="&#xbf;" horiz-adv-x="1218" 
d="M694 1235q2 -30 -14 -51q-17 -23 -42 -35q-27 -13 -54 -14q-30 -2 -52 10q-22 10 -31 29l-14 26q-4 6 -11 18.5t-9 16.5q-10 17 -8 37q2 21 19 33q17 11 40 19q20 7 47 10q24 3 41 3q78 0 88 -102zM999 -68q-301 0 -489 50q-250 63 -440 235q-34 70 -35 119q-6 60 26 98
q95 112 402 168q123 24 168 64q88 94 82 159q-1 20 -33 33q-12 5 -37 15.5t-30 12.5q-34 14 -63 40q-28 25 -24 71q0 18 19 29q18 10 47 12q28 2 63 -6q37 -8 70 -28q24 -15 45 -42q15 -20 35 -59q12 -25 23 -60q11 -37 12 -48q2 -29 -15 -72q-49 -77 -184 -137
q-51 -22 -93 -39q-5 -2 -130 -53q-115 -50 -166 -113q-27 -27 -23 -72q1 -46 52 -110q93 -120 235 -138q38 -5 76 -6q52 -2 80 -2q42 0 61 1q29 2 51 3l236 25q8 2 27 2q79 0 106 -57q1 -43 -55 -70q-21 -10 -99 -25z" />
    <glyph glyph-name="Agrave" unicode="&#xc0;" horiz-adv-x="1748" 
d="M1055 1907q-10 27 -7 70t31 59q21 8 57 -22q34 -29 73 -75q40 -48 72 -94q28 -41 48 -78q7 -16 2 -23q-6 -8 -12 -9q-23 -11 -66 10q-44 21 -82 49q-31 26 -62 45q-34 21 -46 49q-1 1 -5 7q-3 4 -3 12zM647 717q-17 -17 -42 -54q-29 -43 -50 -78q-24 -41 -42 -75
q-17 -33 -17 -45v-14q12 0 30 27q17 25 39 68q21 40 42 87q5 11 40 84zM442 322l-10 10q0 -18 -16 -25l16 -8q0 4 4 8t6 4v11zM252 305q0 -11 17 -12q24 -2 28 -2q19 0 32 13t13 36q0 4 -6 4q-3 0 -23 -2q-9 -1 -27 -7q-14 -5 -24 -12t-10 -18zM608 436q0 -4 7 -8
q10 -6 12 -8q25 -9 53.5 -19.5t63.5 -23.5t54 -20q114 -42 173 -62q18 -9 25 -10q16 -2 24 -2t8 10q-2 2 -2 4v4q-59 164 -82 342q-22 175 -33 354q0 -9 -4 -17q-5 -10 -6 -11v4l-293 -531v-6zM526 270q15 -2 36 -3l43 -2q14 -1 40 -1h27h69l2 4q-12 12 -34 20q-21 8 -53 15
q-14 3 -53 10q-23 4 -38 4q-35 0 -35 -41v-6h-4zM1499 -205q0 14 -23 47q-27 39 -57 73q-38 44 -67 71q-35 34 -56 41q7 -26 37 -65q32 -42 63 -73q53 -53 63 -62q34 -31 40 -34v2zM1126 90q-57 66 -139 93q-86 28 -162 28q-17 0 -64 -3q-52 -3 -97 -6q-68 -4 -99 -5
q-8 0 -65 -5h2l-20 -12q-11 -7 -13 -12l-186 -346l-2 -2q-2 -1 -4.5 -3.5t-4.5 -5.5q-12 -15 -17 -21q-8 -11 -18 -19q-11 -9 -14 -9h-98q-14 0 -19 22q-4 19 -4 42q0 31 2 41l148 289v24q-5 0 -6 1t-6 1q-17 1 -48 8q-25 5 -55 17t-46 24q-19 15 -19 35v80q0 12 7 19
q3 3 7 8l2 2q66 57 138 78q69 20 149 20q23 0 35 3q11 3 22 20l428 657q18 27 32 58q17 39 23 61l13 51q8 46 19 72q12 30 44 30q9 0 15 -3l14 -7q1 -1 4 -2t4 -1q3 -1 10 -1h12q3 0 17 2q3 0 11 1.5t12 2.5l159 213q16 19 37 19q10 0 36 -2q7 -1 37 -8q15 -4 29 -14
q11 -8 11 -23q0 -16 -8 -26q-8 -9 -23 -20l-74 -55l-123 -112q-48 -45 -79 -109q-34 -69 -47 -129q-16 -71 -20 -138q-5 -78 -5 -134q0 -123 24 -252q23 -125 62 -246q12 -34 30 -65q18 -32 56 -33l1319 104q24 5 47 12q12 5 27 9q16 5 34 6q8 0 32 -3q21 -3 48 -11t44 -19
q20 -12 20 -29q0 -24 -14 -40q-15 -16 -31 -23q-23 -10 -40 -12q-21 -3 -36 -3h-12q-23 0 -36 1q-18 1 -36 8h-377l-989 -47q-2 0 -10 -6q-6 -4 -6 -9q0 -3 20 -17q3 -2 21.5 -16t32.5 -23q25 -17 76 -52q11 -8 40.5 -28.5t46.5 -31.5q46 -30 90 -67q45 -38 87 -86
q40 -45 66 -103q25 -54 25 -114q0 -13 -7 -26q-8 -15 -17 -25t-23 -19q-13 -8 -22 -8h-80l-14 8q-102 73 -182 178q-67 88 -156 219q-14 17 -27 41q-12 23 -27 39z" />
    <glyph glyph-name="Aacute" unicode="&#xc1;" horiz-adv-x="1748" 
d="M1563 1909q-12 -29 -50 -55q-29 -20 -63 -48q-32 -27 -56 -47q-21 -18 -48 -8q-4 4 -19 10t-4 25q7 25 34 71q24 42 57 82q32 40 64 64t52 14q34 -17 38 -42q5 -28 1 -48zM647 717q-17 -17 -42 -54q-29 -43 -50 -78q-24 -41 -42 -75q-17 -33 -17 -45v-14q12 0 30 27
q17 25 39 68q21 40 42 87q5 11 40 84zM442 322l-10 10q0 -18 -16 -25l16 -8q0 4 4 8t6 4v11zM252 305q0 -11 17 -12q24 -2 28 -2q19 0 32 13t13 36q0 4 -6 4q-3 0 -23 -2q-9 -1 -27 -7q-14 -5 -24 -12t-10 -18zM608 436q0 -4 7 -8q10 -6 12 -8q25 -9 53.5 -19.5t63.5 -23.5
t54 -20q114 -42 173 -62q18 -9 25 -10q16 -2 24 -2t8 10q-2 2 -2 4v4q-59 164 -82 342q-22 175 -33 354q0 -9 -4 -17q-5 -10 -6 -11v4l-293 -531v-6zM526 270q15 -2 36 -3l43 -2q14 -1 40 -1h27h69l2 4q-12 12 -34 20q-21 8 -53 15q-14 3 -53 10q-23 4 -38 4q-35 0 -35 -41
v-6h-4zM1499 -205q0 14 -23 47q-27 39 -57 73q-38 44 -67 71q-35 34 -56 41q7 -26 37 -65q32 -42 63 -73q53 -53 63 -62q34 -31 40 -34v2zM1126 90q-57 66 -139 93q-86 28 -162 28q-17 0 -64 -3q-52 -3 -97 -6q-68 -4 -99 -5q-8 0 -65 -5h2l-20 -12q-11 -7 -13 -12
l-186 -346l-2 -2q-2 -1 -4.5 -3.5t-4.5 -5.5q-12 -15 -17 -21q-8 -11 -18 -19q-11 -9 -14 -9h-98q-14 0 -19 22q-4 19 -4 42q0 31 2 41l148 289v24q-5 0 -6 1t-6 1q-17 1 -48 8q-25 5 -55 17t-46 24q-19 15 -19 35v80q0 12 7 19q3 3 7 8l2 2q66 57 138 78q69 20 149 20
q23 0 35 3q11 3 22 20l428 657q18 27 32 58q17 39 23 61l13 51q8 46 19 72q12 30 44 30q9 0 15 -3l14 -7q1 -1 4 -2t4 -1q3 -1 10 -1h12q3 0 17 2q3 0 11 1.5t12 2.5l159 213q16 19 37 19q10 0 36 -2q7 -1 37 -8q15 -4 29 -14q11 -8 11 -23q0 -16 -8 -26q-8 -9 -23 -20
l-74 -55l-123 -112q-48 -45 -79 -109q-34 -69 -47 -129q-16 -71 -20 -138q-5 -78 -5 -134q0 -123 24 -252q23 -125 62 -246q12 -34 30 -65q18 -32 56 -33l1319 104q24 5 47 12q12 5 27 9q16 5 34 6q8 0 32 -3q21 -3 48 -11t44 -19q20 -12 20 -29q0 -24 -14 -40
q-15 -16 -31 -23q-23 -10 -40 -12q-21 -3 -36 -3h-12q-23 0 -36 1q-18 1 -36 8h-377l-989 -47q-2 0 -10 -6q-6 -4 -6 -9q0 -3 20 -17q3 -2 21.5 -16t32.5 -23q25 -17 76 -52q11 -8 40.5 -28.5t46.5 -31.5q46 -30 90 -67q45 -38 87 -86q40 -45 66 -103q25 -54 25 -114
q0 -13 -7 -26q-8 -15 -17 -25t-23 -19q-13 -8 -22 -8h-80l-14 8q-102 73 -182 178q-67 88 -156 219q-14 17 -27 41q-12 23 -27 39z" />
    <glyph glyph-name="Acircumflex" unicode="&#xc2;" horiz-adv-x="1748" 
d="M1223 1671q-11 -12 -20 -14q-12 -2 -19 -2q-24 0 -41 15q-17 16 -19 40q-1 27 11 39q20 25 35 35q12 8 34 24q26 18 44 36q19 19 34 46q8 16 8 27q-2 6 9 13t27 10q17 3 30 2q12 -1 20 -11l35 -69q5 -9 19 -37t22 -43q21 -40 43 -47q25 -17 25 -39q2 -16 -9 -30
q-10 -13 -30 -7q-49 16 -82 57q-30 37 -53 78q-14 -19 -35 -40q-18 -18 -39 -36zM647 717q-17 -17 -42 -54q-29 -43 -50 -78q-24 -41 -42 -75q-17 -33 -17 -45v-14q12 0 30 27q17 25 39 68q21 40 42 87q5 11 40 84zM442 322l-10 10q0 -18 -16 -25l16 -8q0 4 4 8t6 4v11z
M252 305q0 -11 17 -12q24 -2 28 -2q19 0 32 13t13 36q0 4 -6 4q-3 0 -23 -2q-9 -1 -27 -7q-14 -5 -24 -12t-10 -18zM608 436q0 -4 7 -8q10 -6 12 -8q25 -9 53.5 -19.5t63.5 -23.5t54 -20q114 -42 173 -62q18 -9 25 -10q16 -2 24 -2t8 10q-2 2 -2 4v4q-59 164 -82 342
q-22 175 -33 354q0 -9 -4 -17q-5 -10 -6 -11v4l-293 -531v-6zM526 270q15 -2 36 -3l43 -2q14 -1 40 -1h27h69l2 4q-12 12 -34 20q-21 8 -53 15q-14 3 -53 10q-23 4 -38 4q-35 0 -35 -41v-6h-4zM1499 -205q0 14 -23 47q-27 39 -57 73q-38 44 -67 71q-35 34 -56 41
q7 -26 37 -65q32 -42 63 -73q53 -53 63 -62q34 -31 40 -34v2zM1126 90q-57 66 -139 93q-86 28 -162 28q-17 0 -64 -3q-52 -3 -97 -6q-68 -4 -99 -5q-28 -1 -65 -4h2q-2 -1 -9 -6t-11 -7q-11 -7 -13 -12l-186 -346l-2 -2q-2 -1 -4.5 -3.5t-4.5 -5.5q-12 -15 -17 -21
q-8 -11 -18 -19q-11 -9 -14 -9h-98q-14 0 -19 22q-4 19 -4 42q0 31 2 41l148 289v24q-5 0 -6 1t-6 1q-17 1 -48 8q-25 5 -55 17t-46 24q-19 15 -19 35v80q0 12 7 19q3 3 7 8l2 2q66 57 138 78q69 20 149 20q23 0 35 3q11 3 22 20l428 657q18 27 32 58q17 39 23 61l13 51
q8 46 19 72q12 30 44 30q9 0 15 -3l14 -7q1 -1 4 -2t4 -1q3 -1 10 -1h12q3 0 17 2q3 0 11 1.5t12 2.5l159 213q16 19 37 19q10 0 36 -2q7 -1 37 -8q15 -4 29 -14q11 -8 11 -23q0 -16 -8 -26q-8 -9 -23 -20l-74 -55l-123 -112q-48 -45 -79 -109q-34 -69 -47 -129
q-16 -71 -20 -138q-5 -78 -5 -134q0 -123 24 -252q23 -125 62 -246q12 -34 30 -65q18 -32 56 -33l1319 104q24 5 47 12q12 5 27 9q16 5 34 6q8 0 32 -3q21 -3 48 -11t44 -19q20 -12 20 -29q0 -24 -14 -40q-15 -16 -31 -23q-19 -8 -40 -11q-28 -4 -36 -4h-12q-23 0 -36 1
q-18 1 -36 8h-377l-989 -47q-2 0 -10 -6q-6 -4 -6 -9q0 -3 20 -17q3 -2 21.5 -16t32.5 -23q25 -17 76 -52q11 -8 40.5 -28.5t46.5 -31.5q46 -30 90 -67q45 -38 87 -86q40 -45 66 -103q25 -54 25 -114q0 -13 -7 -26q-8 -15 -17 -25t-23 -19q-13 -8 -22 -8h-80l-14 8
q-102 73 -182 178q-67 88 -156 219q-14 17 -27 41q-12 23 -27 39z" />
    <glyph glyph-name="Atilde" unicode="&#xc3;" horiz-adv-x="1748" 
d="M1264 1878q57 -25 120 -52q48 -20 84 -20q22 0 46 21q32 28 46 44q20 23 41 39q20 15 31 5q17 -17 17 -42q0 -21 -9 -50q-8 -26 -18 -43t-12 -25q-22 -30 -46 -37q-27 -8 -59 -8q-53 0 -95 13q-48 15 -85 30q-41 17 -81 30q-39 13 -83 13q-11 0 -22 -8q-7 -7 -22 -19
q-14 -11 -32 -21q-16 -9 -29 -10q-14 -2 -18 15q-6 22 8 46q15 27 36 45q23 20 50 36q21 12 44 18q47 0 88 -20zM647 717q-17 -17 -42 -54q-29 -43 -50 -78q-24 -41 -42 -75q-17 -33 -17 -45v-14q12 0 30 27q17 25 39 68q21 40 42 87q5 11 40 84zM442 322l-10 10
q0 -18 -16 -25l16 -8q0 4 4 8t6 4v11zM252 305q0 -11 17 -12q24 -2 28 -2q19 0 32 13t13 36q0 4 -6 4q-3 0 -23 -2q-9 -1 -27 -7q-14 -5 -24 -12t-10 -18zM608 436q0 -4 7 -8q10 -6 12 -8q25 -9 53.5 -19.5t63.5 -23.5t54 -20q114 -42 173 -62q18 -9 25 -10q16 -2 24 -2
t8 10q-2 2 -2 4v4q-59 164 -82 342q-22 175 -33 354q0 -9 -4 -17q-5 -10 -6 -11v4l-293 -531v-6zM526 270q15 -2 36 -3l43 -2q14 -1 40 -1h27h69l2 4q-12 12 -34 20q-21 8 -53 15q-14 3 -53 10q-23 4 -38 4q-35 0 -35 -41v-6h-4zM1499 -205q0 14 -23 47q-27 39 -57 73
q-38 44 -67 71q-35 34 -56 41q7 -26 37 -65q32 -42 63 -73q53 -53 63 -62q34 -31 40 -34v2zM1126 90q-57 66 -139 93q-86 28 -162 28q-17 0 -64 -3q-52 -3 -97 -6q-68 -4 -99 -5q-28 -1 -65 -4h2q-2 -1 -9 -6t-11 -7q-11 -7 -13 -12l-186 -346l-2 -2q-2 -1 -4.5 -3.5
t-4.5 -5.5q-12 -15 -17 -21q-8 -11 -18 -19q-11 -9 -14 -9h-98q-14 0 -19 22q-4 19 -4 42q0 31 2 41l148 289v24q-5 0 -6 1t-6 1q-17 1 -48 8q-25 5 -55 17t-46 24q-19 15 -19 35v80q0 12 7 19q3 3 7 8l2 2q66 57 138 78q69 20 149 20q23 0 35 3q11 3 22 20l428 657
q18 27 32 58q17 39 23 61l13 51q8 46 19 72q12 30 44 30q9 0 15 -3l14 -7q1 -1 4 -2t4 -1q3 -1 10 -1h12q3 0 17 2q3 0 11 1.5t12 2.5l159 213q16 19 37 19q10 0 36 -2q7 -1 37 -8q14 -3 28 -14q12 -9 12 -23q0 -16 -8 -26q-8 -9 -23 -20l-74 -55l-123 -112
q-48 -45 -79 -109q-34 -69 -47 -129q-16 -71 -20 -138q-5 -78 -5 -134q0 -123 24 -252q23 -125 62 -246q12 -34 30 -65q18 -32 56 -33l1319 104q24 5 47 12q12 5 27 9q16 5 34 6q8 0 32 -3q21 -3 48 -11t44 -19q20 -12 20 -29q0 -24 -14 -40q-15 -16 -31 -23q-19 -8 -40 -11
q-28 -4 -36 -4h-12q-23 0 -36 1q-18 1 -36 8h-377l-989 -47q-2 0 -10 -6q-6 -4 -6 -9q0 -3 20 -17q3 -2 21.5 -16t32.5 -23q25 -17 76 -52q11 -8 40.5 -28.5t46.5 -31.5q46 -30 90 -67q45 -38 87 -86q40 -45 66 -103q25 -54 25 -114q0 -13 -7 -26q-8 -15 -17 -25t-23 -19
q-13 -8 -22 -8h-80l-14 8q-102 73 -182 178q-67 88 -156 219q-14 17 -27 41q-12 23 -27 39z" />
    <glyph glyph-name="Adieresis" unicode="&#xc4;" horiz-adv-x="1456" 
d="M1343 1839q2 -30 -12 -48q-14 -19 -36 -31q-20 -11 -46 -13t-45 8q-18 15 -25 31q-7 15 -12 20q-7 16 -18 33q-10 15 -8 35q1 18 17 30q11 9 35 18q20 8 40 9q28 2 35 2q68 0 75 -94zM1081 1829q2 -28 -12 -47t-36 -32q-20 -11 -46 -13t-43 8q-20 11 -28 29q-8 19 -11 22
q-2 5 -5 10.5t-6.5 12.5l-5.5 11q-9 17 -7 34q0 17 15 29q14 11 36 19q21 8 42 9q28 2 34 2q66 0 73 -94zM993 90q-57 66 -139 93q-86 28 -162 28q-18 0 -64 -3q-41 -3 -98 -6q-69 -4 -98 -5q-28 -1 -65 -4h2q-3 -1 -9.5 -6t-10.5 -7q-11 -7 -13 -12l-187 -346
q-5 -5 -10 -11q-12 -15 -17 -21q-6 -8 -19 -19q-11 -9 -13 -9h-98q-14 0 -19 22q-4 19 -4 42q0 31 2 41l148 289v24q-5 0 -6 1t-7 1q-15 1 -47 8q-25 5 -55 17t-46 24q-19 15 -19 35v80q0 12 7 19q1 1 9 10q66 57 138 78q69 20 149 20q22 0 34 3t23 20l428 657q18 27 32 58
q17 39 23 61l13 51q8 46 19 72q12 30 44 30q8 0 14 -3l15 -7q2 -1 4.5 -2t3.5 -1q3 -1 10 -1h11q4 0 18 2q3 0 10.5 1.5t11.5 2.5l160 213q16 19 37 19q10 0 36 -2q7 -1 37 -8q14 -3 28 -14q12 -9 12 -23q0 -15 -9 -26t-22 -20l-74 -55l-123 -112q-50 -47 -80 -109
q-32 -65 -46 -129q-16 -71 -20 -138q-5 -78 -5 -134q0 -123 24 -252q23 -125 62 -246q14 -39 29 -65q18 -32 57 -33l1319 104q24 5 47 12q16 6 26 9q15 5 35 6q8 0 32 -3q21 -3 48 -11t44 -19q20 -12 20 -29q0 -24 -14 -40q-15 -16 -31 -23q-19 -8 -40 -11q-28 -4 -36 -4
h-13q-22 0 -35 1q-18 1 -36 8h-377l-989 -47q-2 0 -10 -6q-7 -5 -7 -9q0 -2 21 -17q3 -2 21.5 -16t32.5 -23q25 -17 76 -52q11 -8 40.5 -28.5t46.5 -31.5q46 -30 90 -67q45 -38 87 -86q40 -45 66 -103q25 -54 25 -114q0 -13 -7 -26q-8 -15 -17 -25t-23 -19q-13 -8 -22 -8
h-80l-15 8q-100 72 -181 178q-67 88 -156 219q-14 17 -27 41q-12 23 -27 39zM1366 -205q0 13 -24 47q-31 45 -56 73q-38 44 -67 71q-35 34 -56 41q7 -26 37 -65q32 -42 63 -73q53 -53 63 -62q34 -31 40 -34v2zM393 270q15 -2 36 -3l43 -2q14 -1 40 -1h27h69l2 4
q-11 11 -35 20q-23 8 -52 15q-14 3 -53 10q-23 4 -38 4q-35 0 -35 -41v-6h-4zM475 436q0 -4 7 -8q10 -6 12 -8l171 -63q114 -42 173 -62q18 -9 25 -10q16 -2 24 -2t8 10q-2 2 -2 4v4q-59 164 -82 342q-23 175 -33 354q0 -9 -4 -17q-5 -10 -6 -11v4l-293 -531v-6zM119 305
q0 -11 17 -12q24 -2 28 -2q19 0 32 13t13 36q0 4 -6 4q-3 0 -23 -2q-9 -1 -27 -7q-13 -5 -24 -12q-10 -7 -10 -18zM309 322l-10 10q0 -18 -16 -25l16 -8q0 4 4 8t6 4v11zM514 717q-16 -17 -42 -54q-29 -43 -50 -78q-24 -41 -42 -75t-18 -45v-14q13 0 31 27q17 25 39 68
q21 40 42 87q5 11 40 84z" />
    <glyph glyph-name="Aring" unicode="&#xc5;" horiz-adv-x="1748" 
d="M1126 90q-57 66 -139 93q-86 28 -162 28q-17 0 -64 -3q-52 -3 -97 -6q-68 -4 -99 -5q-28 -1 -65 -4h2q-2 -1 -9 -6t-11 -7q-11 -7 -13 -12l-186 -346l-2 -2q-2 -1 -4.5 -3.5t-4.5 -5.5q-12 -15 -17 -21q-8 -11 -18 -19q-11 -9 -14 -9h-98q-14 0 -19 22q-4 19 -4 42
q0 31 2 41l148 289v24q-5 0 -6 1t-6 1q-17 1 -48 8q-25 5 -55 17t-46 24q-19 15 -19 35v80q0 12 7 19q3 3 7 8l2 2q66 57 138 78q69 20 149 20q23 0 35 3q11 3 22 20l428 657q18 27 32 58q17 39 23 61l13 51q8 46 19 72q12 30 44 30q9 0 15 -3l14 -7q1 -1 4 -2t4 -1
q3 -1 10 -1h12q3 0 17 2q3 0 11 1.5t12 2.5l159 213q16 19 37 19q10 0 36 -2q7 -1 37 -8q15 -4 29 -14q11 -8 11 -23q0 -16 -8 -26q-8 -9 -23 -20l-74 -55l-123 -112q-48 -45 -79 -109q-34 -69 -47 -129q-16 -71 -20 -138q-5 -78 -5 -134q0 -123 24 -252q23 -125 62 -246
q12 -34 30 -65q18 -32 56 -33l1319 104q24 5 47 12q12 5 27 9q16 5 34 6q8 0 32 -3q21 -3 48 -11t44 -19q20 -12 20 -29q0 -24 -14 -40q-15 -16 -31 -23q-19 -8 -40 -11q-28 -4 -36 -4h-12q-23 0 -36 1q-18 1 -36 8h-377l-989 -47q-2 0 -10 -6q-6 -4 -6 -9q0 -3 20 -17
q3 -2 21.5 -16t32.5 -23q25 -17 76 -52q11 -8 40.5 -28.5t46.5 -31.5q46 -30 90 -67q45 -38 87 -86q40 -45 66 -103q25 -54 25 -114q0 -13 -7 -26q-8 -15 -17 -25t-23 -19q-13 -8 -22 -8h-80l-14 8q-102 73 -182 178q-67 88 -156 219q-14 17 -27 41q-12 23 -27 39z
M1499 -205q0 14 -23 47q-27 39 -57 73q-38 44 -67 71q-35 34 -56 41q7 -26 37 -65q32 -42 63 -73q53 -53 63 -62q34 -31 40 -34v2zM526 270q15 -2 36 -3l43 -2q14 -1 40 -1h27h69l2 4q-12 12 -34 20q-21 8 -53 15q-14 3 -53 10q-23 4 -38 4q-35 0 -35 -41v-6h-4zM608 436
q0 -4 7 -8q10 -6 12 -8q25 -9 53.5 -19.5t63.5 -23.5t54 -20q114 -42 173 -62q18 -9 25 -10q16 -2 24 -2t8 10q-2 2 -2 4v4q-59 164 -82 342q-22 175 -33 354q0 -9 -4 -17q-5 -10 -6 -11v4l-293 -531v-6zM252 305q0 -11 17 -12q24 -2 28 -2q19 0 32 13t13 36q0 4 -6 4
q-3 0 -23 -2q-9 -1 -27 -7q-14 -5 -24 -12t-10 -18zM442 322l-10 10q0 -18 -16 -25l16 -8q0 4 4 8t6 4v11zM647 717q-17 -17 -42 -54q-29 -43 -50 -78q-24 -41 -42 -75q-17 -33 -17 -45v-14q12 0 30 27q17 25 39 68q21 40 42 87q5 11 40 84zM1321 1677q-53 -2 -115 39
q-27 25 -43 48q-18 26 -26 55q-7 33 -3 68q4 36 23 65q18 28 48 48q30 19 71 21q68 0 117 -36q50 -37 67 -107q12 -36 5 -71q-8 -38 -27 -65q-20 -29 -52 -48q-31 -18 -65 -17zM1300 1774q20 0 36 11q20 13 30 27q12 16 18 35q6 18 0 35q-6 27 -28 42t-51 13q-23 0 -40 -10
q-19 -11 -30 -26q-13 -17 -17 -35q-6 -22 -2 -35q7 -27 32 -42q24 -15 52 -15z" />
    <glyph glyph-name="AE" unicode="&#xc6;" horiz-adv-x="2586" 
d="M815 846q-28 0 -67 -31q-35 -28 -76 -80t-78 -109q-41 -63 -74 -119q-27 -46 -61 -110q-10 -19 -23.5 -46t-17.5 -34q-74 -142 -92 -178q-36 -72 -102 -189q-50 -89 -94 -150q-44 -60 -75 -60q-60 0 -74 38q-14 39 -14 89v22q0 10 6 25l445 641q4 4 16 21q18 26 20 29
q4 6 9.5 17t6.5 12q7 13 7 17q0 12 -8 17q-27 3 -76 7q-38 3 -70 15q-33 13 -52 39t-19 76q0 38 16 61t41 39q24 15 56 23q36 9 61 14q24 8 64 9q54 2 81 4q39 3 77 14q36 11 57 39l417 610q10 15 27 30t37 15q24 0 41 -25q16 -23 16 -47q0 -31 -19 -57t-44 -48
q-24 -21 -45 -39t-21 -30v-22q24 -18 35 -34q10 -14 10 -44q0 -81 -22 -148q-23 -69 -48 -138q-34 -92 -49 -139q-22 -69 -22 -151q0 -39 -8 -101q-9 -70 -9 -118q0 -22 7 -94q28 40 68 82q39 41 78 71q43 34 81 56t76 39q10 4 10 18q1 28 -3 51q-5 23 -3 50q5 101 63 178
q60 79 151 142q90 62 204 109q108 45 225 79q112 33 213 54q133 28 168 34q33 6 63 9q31 3 54 -3q21 -6 34 -25q12 -19 11 -55q-43 -6 -65 -25t-34 -38q-14 -22 -23 -35q-13 -18 -34 -19q-35 -8 -62 -8q-30 0 -63 -6q-12 -2 -47 -7.5t-59 -9.5q-92 -14 -149 -27
q-86 -19 -166 -43q-84 -25 -154 -63q-72 -39 -115 -88q-45 -50 -49 -116q0 -11 8 -27q7 -13 20 -25q11 -10 27 -16q14 -6 27 -4l551 98q19 4 65 7q39 3 81 -5q40 -7 69 -32q27 -23 26 -68q-4 -59 -31 -96q-27 -38 -66 -61q-40 -24 -87 -36q-51 -13 -92 -20
q-115 -21 -209 -20q-92 1 -205 14q-35 6 -63 14q-23 7 -71 19q-50 13 -70 16q-36 6 -62 2q-33 -6 -90 -41q-58 -36 -109 -84q-57 -53 -94 -106q-42 -59 -43 -107q0 -32 28 -65q27 -31 67 -58q39 -26 82 -46q46 -22 71 -28q150 -41 313 -53q166 -12 336 6q167 18 336 68
q166 49 311 127q53 11 72 -15q18 -24 16 -43q-5 -52 -31 -81q-29 -32 -64 -49q-32 -15 -79 -24q-15 -3 -40 -7t-34 -6q-33 -6 -90 -18q-13 -3 -131 -22q-67 -11 -159 -19q-76 -7 -173 -5q-126 1 -212 6q-102 5 -154 11q-69 7 -138 18q-60 9 -161 29q-155 29 -238 115
q-84 87 -84 253v326q0 40 -1 63t-1 70q0 15 -10 22q-13 9 -25 13q-13 4 -29 4h-26zM1896 678q-2 -5 5 -10.5t22 -10.5q11 -5 41 -3q33 2 41 5q9 1 36 18q24 15 25 25q0 11 -15 11q-10 0 -34 -2q-40 -5 -83 -16q-33 -9 -38 -17zM885 973q0 -13 5 -16q4 -3 17 -3q42 0 54 38
t12 77q0 12 -6 12q-23 -18 -52 -47q-30 -30 -30 -61zM461 809q0 -17 23 -21q21 -4 40 -4t42 10q22 9 22 38q0 14 -15 14q-4 0 -28 -2q-19 -2 -37 -6t-33 -12q-14 -7 -14 -17z" />
    <glyph glyph-name="Ccedilla" unicode="&#xc7;" horiz-adv-x="1705" 
d="M1307 41q0 -20 1 -21q2 -2 2 -1l-1 -2q-6 -11 -9 -23q38 -6 63 -33q26 -27 30 -67q4 -42 -18 -85q-20 -39 -59 -70q-34 -27 -88 -47q-50 -18 -104 -18q-62 0 -67 29q0 11 30 21q44 15 68 26q39 17 66 40q28 23 26 63q-1 23 -17 31q-14 7 -52 7q-19 0 -25 17q-7 18 -8 35
l1 -12q1 -11 2 -11q2 0 0 24t-3 97h162zM1456 1176q-42 -7 -50 -42q-7 -32 -7 -75q0 -10 6 -25q1 -8 6 -18q23 16 30 26q9 12 12 30t3 42v62zM51 610q0 125 65 234q63 106 167 199q102 91 231 162q135 74 258 121q134 52 245 76q113 25 193 25q44 0 78 -11t78 -11q14 0 26 9
q10 7 20 21q3 4 19 20q9 9 21 9q36 0 53 -12t23 -34q6 -21 6 -50q0 -19 2 -59q0 -3 3 -9t3 -10q21 -38 39 -77q16 -35 16 -87q0 -58 -19 -118q-21 -66 -53 -112q-35 -51 -78 -83q-43 -33 -95 -33q-63 0 -92 54q-29 53 -29 124q0 70 25 132q0 1 51 118q0 6 1 11t1 10
q0 15 -16 26t-37 17q-23 7 -42 8q-4 0 -9.5 0.5t-8 1t-5.5 0.5h-5h-131q-69 0 -135 -18q-55 -16 -127 -43q-73 -27 -159 -71q-85 -43 -167 -96q-84 -54 -151 -121q-65 -65 -108 -145q-42 -78 -42 -165q0 -74 33 -134q31 -56 83 -105q50 -47 109 -81q62 -36 113 -59
q176 -80 362 -125q192 -47 376 -41t354 78t300 231q20 25 36 49q12 18 34 50q18 26 31 39q16 16 26 16q37 0 35 -11q-2 -14 -2 -32q-2 -51 -24 -111q-21 -56 -56 -96q-40 -47 -55 -63q-26 -29 -59 -56q-29 -24 -75 -50q-41 -24 -104 -42q-138 -43 -314 -64
q-172 -21 -356 -13q-185 8 -355 46t-308 112q-133 71 -217 184q-82 110 -82 265z" />
    <glyph glyph-name="Egrave" unicode="&#xc8;" horiz-adv-x="1931" 
d="M1200 1866q-10 27 -7 70q3 42 32 59q21 7 56 -22q38 -31 74 -75q34 -40 71 -94q32 -47 49 -78q7 -16 2 -23q-6 -7 -13 -9q-23 -11 -65 10q-44 21 -82 49q-29 24 -63 45t-46 49q-1 1 -5 7q-3 4 -3 12zM956 784q-4 -10 10 -15q25 -8 35 -11q5 -3 27 -5q18 -1 39 0t39 3
q2 0 29 4q9 1 26 9q22 10 33 16q16 9 29 20t14 16q0 18 -25 16t-59 -6q-75 -7 -135 -20q-56 -12 -62 -27zM33 305q5 79 45 156q39 74 99 140q61 67 124 113q64 46 119 70q3 1 7 11q3 7 3 12q2 30 -3 56q-5 25 -3 54q5 112 64 200q61 89 153 159q93 70 207 121q110 49 228 88
q100 33 215 60q34 8 169 38q32 6 64 9q31 3 54 -4q25 -8 36 -27q12 -20 10 -62q-44 -6 -64 -26q-23 -23 -34 -42q-12 -21 -24 -39q-12 -17 -36 -22q-15 -4 -34 -1q-15 3 -37 8l-36 9q-18 4 -34 3q-51 -8 -105 -14q-78 -9 -145 -23q-81 -17 -160 -43t-150 -72
q-70 -46 -116 -114q-47 -69 -57 -165q-1 -15 7 -29q10 -16 23 -28q15 -13 27 -18q14 -6 27 -4l557 110q26 7 66 8q44 2 82 -7q40 -9 69 -35q28 -25 27 -76q-5 -67 -31 -107q-27 -40 -67 -67q-38 -25 -88 -41q-51 -16 -93 -23q-114 -23 -212 -21q-109 2 -208 15q-36 6 -63 15
q-13 4 -37 12t-34 11q-29 10 -71 17q-35 6 -63 0q-34 -6 -89 -44q-54 -38 -107 -92q-49 -51 -91 -118q-38 -62 -43 -121q-1 -42 31 -79q33 -38 80 -65t97 -47q55 -22 83 -28q175 -47 366 -56q200 -9 392 14q203 25 391 76q193 53 365 126q29 4 53 -2q22 -6 36 -18
q12 -11 19 -26q6 -13 6 -22q-4 -48 -37 -78q-34 -31 -76 -47q-38 -14 -95 -23q-20 -3 -89 -11q-18 -3 -104 -22q-78 -17 -154 -32q-78 -15 -185 -28q-102 -12 -202 -8q-215 6 -249 8q-122 6 -182 11q-93 8 -163 19q-21 3 -188 31q-54 11 -121 32q-66 21 -112 53
q-52 36 -82 86q-32 53 -27 126z" />
    <glyph glyph-name="Eacute" unicode="&#xc9;" horiz-adv-x="1931" 
d="M1565 1862q-13 -30 -49 -55q-35 -24 -64 -48q-32 -27 -56 -47q-21 -18 -48 -8q-4 4 -19 10t-4 25q6 23 34 70q27 45 57 83q32 40 64 64t52 14q34 -17 38 -42q5 -28 1 -48zM956 784q-4 -10 10 -15q25 -8 35 -11q5 -3 27 -5q18 -1 39 0t39 3q2 0 29 4q9 1 26 9q22 10 33 16
q16 9 29 20t14 16q0 18 -25 16t-59 -6q-75 -7 -135 -20q-56 -12 -62 -27zM33 305q5 79 45 156q39 74 99 140q61 67 124 113q64 46 119 70q3 1 7 11q3 7 3 12q2 30 -3 56q-5 25 -3 54q5 112 64 200q61 89 153 159q93 70 207 121q110 49 228 88q100 33 215 60q34 8 169 38
q32 6 64 9q31 3 54 -4q25 -8 36 -27q12 -20 10 -62q-44 -6 -64 -26q-23 -23 -34 -42q-12 -21 -24 -39q-12 -17 -36 -22q-15 -4 -34 -1q-15 3 -37 8l-36 9q-18 4 -34 3q-51 -8 -105 -14q-78 -9 -145 -23q-81 -17 -160 -43t-150 -72q-70 -46 -116 -114q-47 -69 -57 -165
q-1 -15 7 -29q10 -16 23 -28q15 -13 27 -18q14 -6 27 -4l557 110q26 7 66 8q44 2 82 -7q40 -9 69 -35q28 -25 27 -76q-5 -67 -31 -107q-27 -40 -67 -67q-38 -25 -88 -41q-51 -16 -93 -23q-114 -23 -212 -21q-109 2 -208 15q-36 6 -63 15q-13 4 -37 12t-34 11q-29 10 -71 17
q-35 6 -63 0q-34 -6 -89 -44q-54 -38 -107 -92q-49 -51 -91 -118q-38 -62 -43 -121q-1 -42 31 -79q33 -38 80 -65t97 -47q55 -22 83 -28q175 -47 366 -56q200 -9 392 14q203 25 391 76q193 53 365 126q29 4 53 -2q22 -6 36 -18q12 -11 19 -26q6 -13 6 -22q-4 -48 -37 -78
q-34 -31 -76 -47q-38 -14 -95 -23q-20 -3 -89 -11q-18 -3 -104 -22q-78 -17 -154 -32q-78 -15 -185 -28q-102 -12 -202 -8q-215 6 -249 8q-122 6 -182 11q-93 8 -163 19q-21 3 -188 31q-54 11 -121 32q-66 21 -112 53q-52 36 -82 86q-32 53 -27 126z" />
    <glyph glyph-name="Ecircumflex" unicode="&#xca;" horiz-adv-x="1931" 
d="M1327 1720q-11 -13 -19 -14q-12 -2 -20 -2q-24 0 -41 15q-16 15 -18 40q-2 27 10 39q19 24 36 35q7 5 19.5 14t14.5 11q29 20 44 35q17 17 33 46q9 18 9 27q-2 6 9 13q13 8 27 11q13 3 29 1q13 -1 21 -11l35 -69q6 -12 19 -39t21 -41q21 -40 43 -47q25 -17 25 -39
q2 -18 -8 -30q-10 -13 -31 -7q-49 16 -82 57q-30 37 -53 78q-14 -19 -35 -40q-18 -18 -39 -36zM956 784q-4 -10 10 -15q25 -8 35 -11q5 -3 27 -5q18 -1 39 0t39 3q2 0 29 4q9 1 26 9q22 10 33 16q16 9 29 20t14 16q0 18 -25 16t-59 -6q-75 -7 -135 -20q-56 -12 -62 -27z
M33 305q5 79 45 156q39 74 99 140q61 67 124 113q64 46 119 70q3 1 7 11q3 7 3 12q2 30 -3 56t-3 55q5 111 64 199q61 89 153 159q93 70 207 121q110 49 228 88q100 33 215 60q34 8 169 38q32 6 64 9q31 3 54 -4q25 -8 36 -27q12 -20 10 -62q-44 -6 -64 -26q-23 -23 -34 -42
q-12 -21 -24 -39q-12 -17 -36 -22q-15 -4 -34 -1q-15 3 -37 8l-36 9q-18 4 -34 3q-51 -8 -105 -14q-78 -9 -145 -23q-81 -17 -160 -43t-150 -72q-70 -46 -116 -114q-47 -69 -57 -165q-1 -15 7 -29q10 -16 23 -28q15 -13 27 -18q14 -6 27 -4l557 110q26 7 66 8q44 2 82 -7
q40 -9 69 -35q28 -25 27 -76q-5 -67 -31 -107q-27 -40 -67 -67q-38 -25 -88 -41q-51 -16 -93 -23q-114 -23 -212 -21q-109 2 -208 15q-36 6 -63 15q-13 4 -37 12t-34 11q-29 10 -71 17q-35 6 -63 0q-34 -6 -89 -44q-54 -38 -107 -92q-49 -51 -91 -118q-38 -62 -43 -121
q-1 -42 31 -79q33 -38 80 -65t97 -47q55 -22 83 -28q175 -47 366 -56q200 -9 392 14q203 25 391 76q193 53 365 126q29 4 53 -2q22 -6 36 -18q12 -11 19 -26q6 -13 6 -22q-4 -48 -37 -78q-34 -31 -76 -47q-38 -14 -95 -23q-20 -3 -89 -11q-18 -3 -104 -22q-78 -17 -154 -32
q-78 -15 -185 -28q-102 -12 -202 -8q-215 6 -249 8q-122 6 -182 11q-93 8 -163 19q-21 3 -188 31q-54 11 -121 32q-66 21 -112 53q-52 36 -82 86q-32 53 -27 126z" />
    <glyph glyph-name="Edieresis" unicode="&#xcb;" horiz-adv-x="1931" 
d="M1376 1855q2 -28 -12 -47q-13 -18 -36 -31q-22 -12 -46 -14q-25 -2 -43 9q-21 12 -28 28q-10 21 -11 23l-17 34q-8 17 -7 33q0 18 15 30q12 9 36 18q25 9 42 10q28 2 34 2q65 0 73 -95zM1638 1866q2 -30 -12 -48q-14 -19 -36 -31q-20 -11 -46 -13t-45 8q-18 15 -25 30
q-8 16 -12 21q-8 17 -18 33q-10 15 -8 35q1 16 17 29q13 11 35 19q20 8 40 9q28 2 35 2q68 0 75 -94zM956 784q-4 -10 10 -15q25 -8 35 -11q5 -3 27 -5q18 -1 39 0t39 3q2 0 29 4q9 1 26 9q22 10 33 16q16 9 29 20t14 16q0 18 -25 16q-40 -2 -59 -5q-67 -6 -135 -21
q-56 -12 -62 -27zM33 305q5 79 45 156q39 74 99 140q61 67 124 113q64 46 119 70q3 1 7 11q3 7 3 12q2 30 -3 56t-3 55q5 111 64 199q61 89 153 159q93 70 207 121q110 49 228 88q100 33 215 60q34 8 169 38q32 6 64 9q31 3 54 -4q25 -8 36 -27q12 -20 10 -62
q-44 -6 -64 -26q-23 -23 -34 -42q-12 -21 -24 -39q-12 -17 -36 -22q-15 -4 -34 -1q-15 3 -37 8q-6 2 -18 5.5t-18 4.5q-15 4 -34 2q-51 -8 -105 -14q-78 -9 -145 -23q-81 -17 -160 -43t-150 -72q-70 -46 -116 -114q-47 -69 -57 -165q-1 -15 7 -29q10 -16 23 -28
q15 -13 27 -18q14 -6 27 -4l557 110q26 7 66 8q44 2 82 -7q40 -9 69 -35q28 -25 27 -76q-5 -67 -31 -107q-27 -40 -67 -67q-38 -25 -88 -41q-51 -16 -93 -23q-114 -23 -212 -21q-109 2 -208 15q-36 6 -63 15q-13 4 -37 12t-34 11q-29 10 -71 17q-35 6 -63 0q-34 -6 -89 -44
q-54 -38 -107 -92q-49 -51 -91 -118q-38 -62 -43 -121q-1 -42 31 -79q33 -38 80 -65t97 -47q55 -22 83 -28q175 -47 366 -56q200 -9 392 14q203 25 391 76q193 53 365 126q29 4 53 -2q22 -6 36 -18q12 -11 19 -26q6 -13 6 -22q-4 -48 -37 -78q-34 -31 -76 -47
q-38 -14 -95 -23q-20 -3 -89 -11q-18 -3 -104 -22q-78 -17 -154 -32q-78 -15 -185 -28q-102 -12 -202 -8q-215 6 -249 8q-122 6 -182 11q-93 8 -163 19q-21 3 -188 31q-54 11 -121 32q-66 21 -112 53q-52 36 -82 86q-32 53 -27 126z" />
    <glyph glyph-name="Igrave" unicode="&#xcc;" horiz-adv-x="874" 
d="M528 1872q-10 27 -7 71q3 41 32 58q21 7 56 -22q40 -34 74 -74q35 -42 72 -95q31 -44 48 -77q8 -17 2 -24t-12 -9q-23 -11 -66 10q-44 21 -82 49q-31 26 -62 45q-34 21 -46 49q-2 2 -6 8q-3 4 -3 11zM244 -82q-23 16 -47 23t-52 20q-11 -10 -28 -10q-8 0 -8 14
q-6 7 -1 33q5 25 18 50t35 45t48 20q33 0 58 -12q23 -11 63 -11q5 0 10 4q8 6 10 8l268 920q21 72 40 165q18 87 18 165q0 16 -3 29q-3 14 -16 14q-32 0 -62 -6q-35 -7 -58 -7q-12 0 -19 7q-6 6 -16 6q-14 0 -12 -12q1 -6 -2 -8.5t-11 -2.5l-14 8q-8 4 -32 20q-18 12 -32 26
t-14 32q0 25 6 40q6 16 18 29q10 11 29 27q24 20 43 39q45 -1 91 -11q44 -9 89 -9q41 0 58 17q18 18 35 18q19 0 56 -13q34 -12 62 -12h-2q0 1 27 6q24 4 39 4q58 0 92 -21q35 -21 35 -79q-1 -5 -15 -19t-14 -20q0 -5 1 -8t1 -6q0 -6 -6 -8l-72 -27q-15 0 -33 3t-34 3
q-18 0 -30 -11q-13 -11 -17 -26l-232 -672q-42 -126 -70 -269t-28 -277q0 -22 3 -46t32 -24q42 0 78 10q35 10 80 33q35 0 58 -11q25 -12 42 -27q16 -14 24 -34q9 -22 9 -32q0 -34 -37 -62q-39 -30 -92 -41q-19 0 -35 1t-53 1q-39 0 -79 -2q-11 -1 -29 -2.5t-23 -1.5
q-8 -1 -22 -2.5t-20 -1.5q-26 -2 -49 -2q-21 0 -28 6h-129z" />
    <glyph glyph-name="Iacute" unicode="&#xcd;" horiz-adv-x="874" 
d="M1018 1864q-13 -30 -49 -55q-35 -24 -64 -48q-32 -27 -56 -47q-21 -18 -48 -8q-4 4 -19 10t-4 25q6 23 34 70q27 45 57 83q32 40 64 64t52 14q34 -17 38 -42q5 -28 1 -48zM244 -82q-23 16 -47 23t-52 20q-11 -10 -28 -10q-8 0 -8 14q-6 7 -1 33q5 25 18 50t35 45t48 20
q33 0 58 -12q23 -11 63 -11q5 0 10 4q8 6 10 8l269 920q17 60 39 165q18 87 18 165q0 16 -3 29q-3 14 -16 14q-32 0 -62 -6q-35 -7 -58 -7q-12 0 -19 7q-6 6 -16 6q-12 0 -11 -12q1 -6 -2.5 -8.5t-11.5 -2.5l-14 8q-8 4 -32 20q-18 12 -32 26t-14 32q0 25 6 40q6 16 18 29
q10 11 29 27q24 20 43 39q45 -1 91 -11q44 -9 90 -9q40 0 57 17q18 18 35 18q19 0 56 -13q34 -12 62 -12h-2q0 1 27 6q24 4 39 4q58 0 92 -21q35 -21 35 -79q-1 -5 -15 -19t-14 -20q0 -5 1 -8t1 -6q0 -6 -6 -8l-72 -27q-15 0 -33 3t-34 3q-18 0 -30 -11q-13 -11 -17 -26
l-232 -672q-42 -126 -70 -269t-28 -277q0 -22 3 -46t32 -24q42 0 78 10q35 10 80 33q35 0 58 -11q25 -12 42 -27q16 -14 24 -34q9 -22 9 -32q0 -34 -37 -62q-39 -30 -92 -41q-19 0 -35 1t-53 1q-39 0 -79 -2q-11 -1 -29 -2.5t-23 -1.5q-8 -1 -22 -2.5t-20 -1.5
q-26 -2 -49 -2q-21 0 -28 6h-129z" />
    <glyph glyph-name="Icircumflex" unicode="&#xce;" horiz-adv-x="874" 
d="M745 1720q-11 -13 -19 -14q-12 -2 -19 -2q-25 0 -41 15q-17 16 -19 40q-2 27 10 39q19 24 36 35q7 5 19.5 14t14.5 11q29 20 44 35q19 19 34 46q8 16 8 27q-2 6 9 13q13 8 27 11q13 3 30 1q12 -1 20 -11l35 -69q5 -9 19 -37t22 -43q21 -40 43 -47q24 -16 24 -39
q2 -18 -8 -30q-10 -13 -30 -7q-49 16 -82 57t-54 78q-17 -23 -34 -40q-18 -18 -39 -36zM244 -82q-23 16 -47 23t-52 20q-11 -10 -28 -10q-8 0 -8 14q-6 7 -1 33q5 25 18 50t35 45t48 20q33 0 58 -12q23 -11 63 -11q5 0 10 4q8 6 10 8l268 920q21 72 40 165q18 87 18 165
q0 16 -3 29q-3 14 -16 14q-32 0 -62 -6q-35 -7 -58 -7q-12 0 -19 7q-6 6 -16 6q-14 0 -12 -12q1 -6 -2 -8.5t-11 -2.5l-14 8q-8 4 -32 20q-18 12 -32 26t-14 32q0 25 6 40q6 16 18 29q10 11 29 27q24 20 43 39q45 -1 91 -11q44 -9 89 -9q41 0 58 17q18 18 35 18q19 0 56 -13
q34 -12 62 -12h-2q0 1 27 6q24 4 39 4q58 0 92 -21q35 -21 35 -79q-1 -5 -15 -19t-14 -20q0 -5 1 -8t1 -6q0 -6 -6 -8l-72 -27q-15 0 -33 3t-34 3q-18 0 -30 -11q-13 -11 -17 -26l-232 -672q-42 -126 -70 -269t-28 -277q0 -22 3 -46t32 -24q42 0 78 10q35 10 80 33
q35 0 58 -11q25 -12 42 -27q16 -14 24 -34q9 -22 9 -32q0 -34 -37 -62q-39 -30 -92 -41q-19 0 -35 1t-53 1q-39 0 -79 -2q-11 -1 -29 -2.5t-23 -1.5q-8 -1 -22 -2.5t-20 -1.5q-26 -2 -49 -2q-21 0 -28 6h-129z" />
    <glyph glyph-name="Idieresis" unicode="&#xcf;" horiz-adv-x="874" 
d="M795 1851q1 -27 -13 -47q-13 -18 -36 -31q-22 -12 -46 -14q-26 -2 -43 8q-19 11 -27 29t-12 23q-3 6 -9 17.5t-8 15.5q-9 17 -7 34q0 18 15 30q12 9 36 18q25 9 42 10q28 2 34 2q66 0 74 -95zM1057 1862q2 -29 -13 -48q-15 -20 -35 -31q-22 -12 -46 -14q-25 -2 -46 9
q-18 15 -25 30q-8 18 -11 21q-5 11 -19 33q-10 15 -8 34q1 18 17 30q13 11 35 19q20 8 40 9q28 2 35 2q69 0 76 -94zM244 -82q-23 16 -47 23t-52 20q-11 -10 -28 -10q-8 0 -8 14q-6 7 -1 33q5 25 18 50t35 45t48 20q33 0 58 -12q23 -11 63 -11q5 0 10 4q8 6 10 8l268 920
q21 72 40 165q18 87 18 165q0 16 -3 29q-3 14 -16 14q-32 0 -62 -6q-35 -7 -58 -7q-12 0 -19 7q-6 6 -16 6q-14 0 -12 -12q1 -6 -2 -8.5t-11 -2.5l-14 8q-8 4 -32 20q-18 12 -32 26t-14 32q0 25 6 40q6 16 18 29q10 11 29 27q24 20 43 39q45 -1 91 -11q44 -9 89 -9
q41 0 58 17q18 18 35 18q19 0 56 -13q34 -12 62 -12h-2q0 1 27 6q24 4 39 4q58 0 92 -21q35 -21 35 -79q-1 -5 -15 -19t-14 -20q0 -5 1 -8t1 -6q0 -6 -6 -8l-72 -27q-15 0 -33 3t-34 3q-18 0 -30 -11q-13 -11 -17 -26l-232 -672q-42 -126 -70 -269t-28 -277q0 -22 3 -46
t32 -24q42 0 78 10q35 10 80 33q35 0 58 -11q25 -12 42 -27q16 -14 24 -34q9 -22 9 -32q0 -34 -37 -62q-39 -30 -92 -41q-19 0 -35 1t-53 1q-39 0 -79 -2q-11 -1 -29 -2.5t-23 -1.5q-8 -1 -22 -2.5t-20 -1.5q-26 -2 -49 -2q-21 0 -28 6h-129z" />
    <glyph glyph-name="Eth" unicode="&#xd0;" horiz-adv-x="2283" 
d="M457 424q-45 12 -68 41q-22 28 -22 61q0 34 22 62q23 29 68 41q31 -7 144 -31q63 -13 149 -25q41 -4 87 7q16 4 46 10.5t43 9.5q18 10 39 15q22 5 43 -5q41 -17 59 -49q16 -29 11 -62q-5 -34 -31 -57t-72 -28q-3 0 -4 -1t-4 -1q-27 7 -47 20q-114 35 -232 27
q-114 -7 -231 -35zM231 -303q0 23 15 47t36 51q2 3 44 53q22 27 39 54v2q0 2 1 2t1 2t2 4q0 6 -35 15q-30 8 -77 28q-42 18 -77 47t-35 76q0 40 21 70q21 31 52 51q25 17 70 33q46 17 70 22q9 1 37 9q18 5 58 13q7 1 27 5.5t30 6.5t22 4.5t15 2.5q19 2 41 45q23 45 42 94
t33 95q13 42 13 51q0 24 -18 51q-18 28 -38 50q-20 23 -41 39q-19 15 -24 15l-295 217q-38 27 -72 63q-35 37 -60 76q-26 41 -42 85t-16 92q0 81 35 129q36 50 92 77t122 36q75 10 132 10q123 0 238 -27q113 -26 233 -68q3 0 5 -1t5 -1q22 0 36 19q18 24 27 33q53 0 70 -25
q16 -23 16 -53v-37q13 -14 27 -21q1 -1 32 -19q51 -30 56 -33t56 -33q31 -18 32 -19q2 -2 7 -5.5t13.5 -9.5t15.5 -11t27.5 -19.5t32.5 -23.5q33 -24 63 -45q33 -23 42 -31q62 -50 136 -118q72 -66 134 -146q61 -80 102 -168q39 -85 39 -183q0 -24 -5 -51t-5 -51
q0 -15 9 -16t24 -3q20 0 59 -4q41 -4 98 -9q24 -2 114 -11q15 -2 54.5 -6t59.5 -6l44 -4t48 -4q39 -3 49 -3q25 0 43 -1q9 0 26.5 -0.5t26.5 -1.5q8 0 24 -0.5t24 -1.5q15 -1 28 -1q36 0 60 -12t24 -43q0 -29 -26 -41q-27 -12 -54 -12q-14 0 -32 6q-32 10 -38 13
q-5 2 -18 6.5t-20 7.5q-21 9 -33 10l-579 43h-50q-13 0 -24 -19q-11 -18 -23 -29q-69 -72 -144 -116q-82 -48 -165 -80q-84 -32 -178 -54q-100 -23 -182 -38q-248 -49 -496 -49q-23 0 -36 1t-36 1q-24 0 -51 -39q-23 -33 -53 -85q-33 -57 -52 -87q-26 -42 -46 -43
q-8 -4 -15 -8q-1 -1 -3.5 -2.5t-3.5 -2.5q-2 -1 -8 -3q-3 -1 -18 -1q-9 0 -25 8q-15 7 -29 20t-22 23q-10 13 -10 21zM623 12q0 -14 13 -15q9 -1 23 -1h84q103 0 192 10q96 11 196 27q62 11 147 32q82 21 152 49q82 34 140 69q68 42 118 96q0 8 -5 8q-214 0 -462 -10
q-223 -9 -453 -39q-3 -1 -10 -4.5l-11 -5.5q-11 -4 -16 -15l-108 -195v-6zM328 86q0 -9 13 -16q22 -12 31 -16q19 -8 34 -12q18 -5 22 -5q16 0 23 14l53 109v14q-12 0 -39 -10q-31 -12 -59 -24q-36 -16 -55 -28q-23 -14 -23 -26zM791 336q2 -2 4 -2q2 -2 4 -2q9 0 23 1
q34 2 48 4q36 4 53 5q12 1 35 4l785 19q10 0 17 17q8 18 12 39t6 42q0 6 0.5 12t1 9t0.5 5q0 77 -34 151q-35 77 -86 142t-113 126q-61 59 -113 104q-98 82 -204 150q-98 62 -186 104h-15q-4 0 -9 -11l-25 -57l-186 -508q-2 -2 -2 -9v-11q0 -34 8 -66t8 -65q0 -50 -11 -90
q-2 -9 -21 -91q-3 -3 -3 -4v-6l2 -6q1 -3 1 -6zM391 1008q14 -10 47.5 -33.5t52.5 -36.5q20 -14 55.5 -39.5t44.5 -32.5q48 -34 87 -63q25 -18 59 -45q15 0 17 8l155 537q0 18 -8 24q-7 6 -24 12q-60 15 -112 29q-50 14 -81 20q-27 5 -74 11q-33 4 -88 4q-34 0 -84 -3
q-48 -3 -95 -18q-48 -16 -78 -44q-32 -30 -32 -83q0 -34 16 -72q15 -36 38 -68q24 -33 51 -59q22 -21 53 -48z" />
    <glyph glyph-name="Ntilde" unicode="&#xd1;" horiz-adv-x="1173" 
d="M885 1898q42 -19 121 -52q45 -19 84 -19q23 0 46 20q28 24 45 44q20 23 41 39q20 15 31 5q17 -17 17 -42q0 -24 -8 -50q-7 -22 -19 -43q-11 -18 -12 -24q-22 -30 -46 -37q-27 -8 -59 -8q-53 0 -95 13q-48 15 -85 30q-27 11 -81 29q-42 14 -83 14q-9 0 -22 -9
q-2 -2 -22 -18t-31 -22q-15 -8 -30 -10q-13 -1 -18 16q-6 22 8 46q15 27 36 45q23 20 50 36q21 12 44 18q45 0 88 -21zM70 -152q-7 40 -7 44q-2 24 -2 40q0 6 10 46q10 41 23 65l262 956v27q-16 0 -30 -13q-15 -13 -27 -30t-24 -30t-19 -13h-25q-6 0 -14 8q-7 7 -15 20
q-12 19 -13 22q-5 13 -5 18q0 8 16 37q18 32 38 63q22 34 48 72q22 32 48 67q25 34 38 49l15 17q25 35 42 73q18 39 36 72t42 54q25 22 60 22q27 0 53 -8q23 -7 23 -53q0 -37 -16 -73q-17 -38 -39 -78q-15 -27 -45 -79q-23 -39 -33 -72q-20 -60 -64 -182q-29 -82 -60 -175
q-32 -98 -46 -149q-18 -66 -18 -104v-43l8 8l366 903q10 23 26 38q16 16 50 16q28 0 58 -15t30 -43q0 -8 -2 -16q-42 -114 -72 -203q-28 -86 -54 -180q-25 -94 -36 -164q-1 -13 -11 -77q-7 -43 -19 -132q-13 -97 -19 -163q-8 -93 -8 -166q0 -52 5 -109q4 -48 19 -89
q14 -38 34 -60q21 -23 57 -23q46 0 95 33q51 34 95 78q43 43 82 93q11 14 22 29t21.5 29.5t15.5 20.5q76 117 121 225q49 118 76 227q28 110 40 233q11 109 11 240q0 83 -1 125q-2 63 -3 129q1 10 9 28q7 17 24 17q32 0 36 -27q5 -30 5 -48q0 -46 1 -76q1 -15 1.5 -47
t0.5 -48q1 -17 1.5 -51.5t0.5 -51.5q1 -35 1 -97q0 -222 -65 -446q-65 -222 -193 -406q-25 -43 -76 -114q-47 -66 -101 -117q-57 -54 -122 -91t-137 -37q-58 0 -95 32q-37 33 -55 77q-19 47 -23 96q-5 57 -5 90q0 74 14 171q29 199 32 219q6 38 17 114t17 114q18 114 24 202
v12q-21 0 -28 -16q-5 -11 -13 -35l-194 -473l-175 -580q-1 -9 -10 -30q-6 -15 -20 -32q-12 -15 -28 -26q-14 -10 -34 -10q-17 0 -38 8q-19 7 -31 22z" />
    <glyph glyph-name="Ograve" unicode="&#xd2;" horiz-adv-x="1835" 
d="M870 1913q-10 27 -7 70q3 42 32 59q21 7 56 -22q40 -34 74 -74q35 -42 72 -95q31 -44 48 -77q8 -17 2 -24q-6 -8 -12 -9q-23 -11 -66 10q-44 21 -82 49q-31 26 -62 45q-34 21 -46 49q-2 2 -6 8q-3 4 -3 11zM391 1034q0 -16 1 -29q2 -26 4 -39q2 -14 12 -34q8 -15 22 -15
q10 0 16 6l15 15l319 389q0 18 -7 19q-10 2 -17 2q-77 0 -143 -18t-115 -55q-50 -38 -78 -97q-29 -61 -29 -144zM391 405q0 -99 42 -172t110 -123q72 -52 149 -75q86 -25 162 -25q94 0 202 20q106 20 209 57q99 36 197 95q92 56 166 134q71 76 114 172q42 95 42 208
q0 120 -52 211q-54 94 -135 162q-85 71 -185 119q-104 50 -204 84q-16 6 -36 12t-42 6q-1 0 -3.5 -0.5t-6.5 -1t-8 -0.5q-13 -1 -18 -6l-99 -90q-4 0 -7 -1t-9 -1q-21 0 -31 11t-26 11l-10 -2q-8 -1 -19 -6l-21 -8q-9 -4 -14 -4l-36 -36q-35 -35 -53 -55q-27 -30 -53 -56
q-32 -31 -34 -35q-21 -26 -44 -60q-45 -65 -55 -80q-34 -51 -47 -74q-20 -35 -20 -44q-1 -40 29 -74q29 -32 77 -63t100 -57t101 -56q46 -28 78 -60q31 -31 31 -65q0 -19 -9 -38t-23 -35q-14 -15 -31 -24q-20 -10 -31 -10h-22q-6 0 -12 2q-3 1 -11 7q-12 9 -17 14
q-14 11 -36 32q-9 9 -63 58q-52 48 -76 69q-8 7 -34.5 30.5t-39.5 35.5q-12 11 -30.5 27.5t-25.5 22.5q-23 20 -27 20q-12 0 -22 -27q-11 -28 -18 -59q-6 -28 -10 -62q-3 -28 -3 -35zM236 365q0 51 12 99q13 50 27 95q20 62 28 91q12 44 12 87v19q-11 45 -23 72
q-12 28 -24 59q-8 21 -17 60q-7 29 -7 77q0 150 59 237q61 90 154 137q92 47 210 62q115 15 230 15q14 5 51 41q3 3 87 79q48 43 93 78q46 35 70 35q58 0 99 -21q40 -21 40 -92q0 -26 -17 -50q-24 -34 -38 -50q-5 -5 -38 -47q-17 -21 -17 -41q0 -4 5 -12q5 -9 15 -13
q106 -39 229 -104q113 -60 214 -150q94 -84 158 -192q63 -107 63 -236q0 -128 -52 -238q-53 -112 -139 -204q-89 -95 -198 -165q-115 -73 -234 -122q-116 -47 -241 -75q-122 -27 -226 -27q-105 0 -213 31q-103 29 -187 92q-84 62 -134 154q-51 93 -51 219z" />
    <glyph glyph-name="Oacute" unicode="&#xd3;" horiz-adv-x="1835" 
d="M1599 1878q-12 -29 -49 -54q-29 -20 -63 -48q-32 -27 -56 -47q-23 -19 -49 -9q-6 6 -18 11q-15 6 -4 24q7 25 34 71q27 45 57 83q31 39 63 63q33 25 53 15q34 -17 38 -42q5 -29 1 -49zM391 1034q0 -16 1 -29q2 -26 4 -39q2 -14 12 -34q8 -15 22 -15q10 0 16 6l15 15
l319 389q0 18 -7 19q-10 2 -17 2q-77 0 -143 -18t-115 -55q-50 -38 -78 -97q-29 -61 -29 -144zM391 405q0 -99 42 -172t110 -123q72 -52 149 -75q86 -25 162 -25q94 0 202 20q106 20 209 57q99 36 197 95q92 56 166 134q71 76 114 172q42 95 42 208q0 120 -52 211
q-54 94 -135 162q-85 71 -185 119q-104 50 -204 84q-16 6 -36 12t-42 6q-1 0 -3.5 -0.5t-6.5 -1t-8 -0.5q-13 -1 -18 -6l-99 -90q-4 0 -7 -1t-9 -1q-21 0 -31 11t-26 11l-10 -2q-8 -1 -19 -6l-21 -8q-9 -4 -14 -4l-36 -36q-35 -35 -53 -55q-27 -30 -53 -56q-32 -31 -34 -35
q-21 -26 -44 -60q-45 -65 -55 -80q-34 -51 -47 -74q-20 -35 -20 -44q-1 -40 29 -74q29 -32 77 -63t100 -57t101 -56q46 -28 78 -60q31 -31 31 -65q0 -19 -9 -38t-23 -35q-14 -15 -31 -24q-20 -10 -31 -10h-22q-6 0 -12 2q-3 1 -11 7q-12 9 -17 14q-14 11 -36 32q-9 9 -63 58
q-52 48 -76 69q-8 7 -34.5 30.5t-39.5 35.5q-12 11 -30.5 27.5t-25.5 22.5q-23 20 -27 20q-12 0 -22 -27q-11 -28 -18 -59q-6 -28 -10 -62q-3 -28 -3 -35zM236 365q0 51 12 99q13 50 27 95q20 62 28 91q12 44 12 87v19q-11 45 -23 72q-12 28 -24 59q-8 21 -17 60
q-7 29 -7 77q0 150 59 237q61 90 154 137q92 47 210 62q115 15 230 15q14 5 51 41q3 3 87 79q48 43 93 78q46 35 70 35q58 0 99 -21q40 -21 40 -92q0 -26 -17 -50q-24 -34 -38 -50q-5 -5 -38 -47q-17 -21 -17 -41q0 -4 5 -12q5 -9 15 -13q106 -39 229 -104q113 -60 214 -150
q94 -84 158 -192q63 -107 63 -236q0 -128 -52 -238q-53 -112 -139 -204q-89 -95 -198 -165q-115 -73 -234 -122q-116 -47 -241 -75q-122 -27 -226 -27q-105 0 -213 31q-103 29 -187 92q-84 62 -134 154q-51 93 -51 219z" />
    <glyph glyph-name="Ocircumflex" unicode="&#xd4;" horiz-adv-x="1835" 
d="M1196 1747q-11 -13 -19 -14q-12 -2 -20 -2q-25 0 -41 15t-18 40q-2 27 10 39q19 24 36 35q12 8 34 24q26 18 44 36q17 17 33 46q9 18 9 27q-2 6 9 13t26 10q13 3 30 1q14 -1 21 -10l34 -70q40 -77 41 -79q22 -41 43 -48q25 -17 25 -38q2 -18 -8 -30q-10 -13 -31 -7
q-49 16 -82 57q-30 37 -53 78q-14 -19 -35 -40q-18 -18 -39 -36zM391 1034q0 -16 1 -29q2 -26 4 -39q2 -14 12 -34q7 -14 22 -14q11 0 16 5l15 15l319 389q0 18 -7 19q-10 2 -17 2q-77 0 -143 -18t-115 -55q-50 -38 -78 -97q-29 -61 -29 -144zM391 406q0 -100 42 -173
t110 -123q72 -52 149 -75q86 -25 162 -25q94 0 202 20q106 20 209 57q99 36 197 95q92 56 166 134q71 76 114 172q42 95 42 208q0 120 -52 211q-54 94 -135 162q-85 71 -185 119q-104 50 -204 84q-16 6 -36 12t-42 6q-1 0 -3.5 -0.5t-6.5 -1t-8 -0.5q-13 -1 -18 -6l-99 -90
q-4 0 -7 -1t-9 -1q-21 0 -31 11t-26 11l-10 -2q-8 -1 -19 -6l-21 -8q-9 -4 -14 -4l-36 -36q-35 -35 -53 -55t-53 -55q-29 -29 -34 -36q-21 -26 -44 -60q-45 -65 -55 -80q-34 -51 -47 -74q-20 -35 -20 -44q-1 -40 29 -74q29 -32 77 -63t100 -57t101 -56q46 -28 78 -60
q31 -31 31 -65q0 -19 -9 -38t-23 -35q-14 -15 -31 -24q-20 -10 -31 -10h-22q-6 0 -12 2q-3 1 -11 7q-12 9 -17 14q-14 11 -36 32q-9 9 -63 58q-52 48 -76 69q-8 7 -34.5 30.5t-39.5 35.5q-12 11 -30.5 27.5t-25.5 22.5q-23 20 -27 20q-12 0 -22 -27q-11 -28 -18 -59
q-6 -28 -10 -62q-3 -28 -3 -34zM236 365q0 51 12 99q13 50 27 95q20 62 28 91q12 44 12 87v19q-11 45 -23 72q-12 28 -24 59q-8 21 -17 60q-7 29 -7 77q0 150 59 237q61 90 154 137q92 47 210 62q115 15 230 15q14 5 51 41q3 3 87 79q48 43 93 78q46 35 70 35q58 0 99 -21
q40 -21 40 -92q0 -26 -17 -50q-24 -34 -38 -50q-5 -5 -38 -47q-17 -21 -17 -41q0 -4 5 -12q5 -9 15 -13q106 -39 229 -104q113 -60 214 -150q94 -84 158 -192q63 -107 63 -236q0 -128 -52 -238q-53 -112 -139 -204q-89 -95 -198 -165q-115 -73 -234 -122q-116 -47 -241 -75
q-122 -27 -226 -27q-105 0 -213 31q-103 29 -187 92q-84 62 -134 154q-51 93 -51 219z" />
    <glyph glyph-name="Otilde" unicode="&#xd5;" horiz-adv-x="1835" 
d="M1214 1888q42 -19 121 -52q45 -19 84 -19q23 0 46 20q28 24 45 44q20 23 41 39q20 15 32 5q16 -16 16 -42q0 -24 -8 -50t-18 -43t-12 -25q-21 -28 -47 -36q-31 -9 -58 -9q-50 0 -95 14q-58 18 -85 29q-40 17 -81 30q-39 13 -83 13q-11 0 -22 -8q-2 -2 -22 -18
q-18 -14 -32 -22q-16 -9 -29 -10q-13 -2 -18 15q-6 23 7 46q14 25 37 45q25 22 49 36t44 19q44 0 88 -21zM391 1034q0 -16 1 -29q2 -26 4 -39q2 -14 12 -34q7 -14 22 -14q11 0 16 5l15 15l319 389q0 18 -7 19q-10 2 -17 2q-77 0 -143 -18t-115 -55q-50 -38 -78 -97
q-29 -61 -29 -144zM391 405q0 -99 42 -172t110 -123q72 -52 149 -75q86 -25 162 -25q94 0 202 20q106 20 209 57q99 36 197 95q92 56 166 134q71 76 114 172q42 95 42 208q0 120 -52 211q-54 94 -135 162q-85 71 -185 119q-104 50 -204 84q-16 6 -36 12t-42 6
q-1 0 -3.5 -0.5t-6.5 -1t-8 -0.5q-13 -1 -18 -6l-99 -90q-4 0 -7 -1t-9 -1q-21 0 -31 11t-26 11l-10 -2q-8 -1 -19 -6l-21 -8q-9 -4 -14 -4l-36 -36q-35 -35 -53 -55t-53 -55q-29 -29 -34 -36q-21 -26 -44 -60q-45 -65 -55 -80q-34 -51 -47 -74q-20 -35 -20 -44
q-1 -40 29 -74q29 -32 77 -63t100 -57t101 -56q46 -28 78 -60q31 -31 31 -65q0 -19 -9 -38t-23 -35q-14 -15 -31 -24q-20 -10 -31 -10h-22q-6 0 -12 2q-3 1 -11 7q-12 9 -17 14q-14 11 -36 32q-9 9 -63 58q-52 48 -76 69q-8 7 -34.5 30.5t-39.5 35.5q-12 11 -30.5 27.5
t-25.5 22.5q-23 20 -27 20q-12 0 -22 -27q-11 -28 -18 -59q-6 -28 -10 -62q-3 -28 -3 -35zM236 365q0 51 12 99q13 50 27 95q20 62 28 91q12 44 12 87v19q-11 45 -23 72q-12 28 -24 59q-8 21 -17 60q-7 29 -7 77q0 150 59 237q61 90 154 137q92 47 210 62q115 15 230 15
q14 5 51 41q3 3 87 79q48 43 93 78q46 35 70 35q58 0 99 -21q40 -21 40 -92q0 -26 -17 -50q-24 -34 -38 -50q-5 -5 -38 -47q-17 -21 -17 -41q0 -4 5 -12q5 -9 15 -13q106 -39 229 -104q113 -60 214 -150q94 -84 158 -192q63 -107 63 -236q0 -128 -52 -238
q-53 -112 -139 -204q-89 -95 -198 -165q-115 -73 -234 -122q-116 -47 -241 -75q-122 -27 -226 -27q-105 0 -213 31q-103 29 -187 92q-84 62 -134 154q-51 93 -51 219z" />
    <glyph glyph-name="Odieresis" unicode="&#xd6;" horiz-adv-x="1835" 
d="M1262 1855q1 -27 -13 -47q-13 -18 -36 -31q-22 -12 -46 -14q-25 -2 -43 9q-19 11 -27 28q-8 18 -12 23l-17 34q-8 17 -7 33q0 18 15 30q12 9 36 18t42 10q28 2 34 2q66 0 74 -95zM1524 1866q2 -29 -13 -48q-15 -20 -35 -31t-47 -13q-26 -2 -45 8q-18 15 -25 30
q-8 18 -11 21q-5 11 -19 33q-10 15 -8 35q1 16 17 29q13 11 35 19q20 8 40 9q28 2 35 2q69 0 76 -94zM391 1034q0 -16 1 -29q2 -26 4 -39q2 -14 12 -34q7 -14 22 -14q11 0 16 5l15 15l319 389q0 18 -7 19q-10 2 -17 2q-77 0 -143 -18t-115 -55q-50 -38 -78 -97
q-29 -61 -29 -144zM391 406q0 -100 42 -173t110 -123q72 -52 149 -75q86 -25 162 -25q94 0 202 20q106 20 209 57q99 36 197 95q92 56 166 134q71 76 114 172q42 95 42 208q0 120 -52 211q-54 94 -135 162q-85 71 -185 119q-104 50 -204 84q-16 6 -36 12t-42 6
q-1 0 -3.5 -0.5t-6.5 -1t-8 -0.5q-13 -1 -18 -6l-99 -90q-4 0 -7 -1t-9 -1q-21 0 -31 11t-26 11l-10 -2q-8 -1 -19 -6l-21 -8q-9 -4 -14 -4l-36 -36q-35 -35 -53 -55t-53 -55q-29 -29 -34 -36q-21 -26 -44 -60q-45 -65 -55 -80q-34 -51 -47 -74q-20 -35 -20 -44
q-1 -40 29 -74q29 -32 77 -63t100 -57t101 -56q46 -28 78 -60q31 -31 31 -65q0 -19 -9 -38t-23 -35q-14 -15 -31 -24q-20 -10 -31 -10h-22q-6 0 -12 2q-3 1 -11 7q-12 9 -17 14q-14 11 -36 32q-9 9 -63 58q-52 48 -76 69q-8 7 -34.5 30.5t-39.5 35.5q-12 11 -30.5 27.5
t-25.5 22.5q-23 20 -27 20q-12 0 -22 -27q-11 -28 -18 -59q-6 -28 -10 -62q-3 -28 -3 -34zM236 365q0 51 12 99q13 50 27 95q20 62 28 91q12 44 12 87v19q-11 45 -23 72q-12 28 -24 59q-8 21 -17 60q-7 29 -7 77q0 150 59 237q61 90 154 137q92 47 210 62q115 15 230 15
q14 5 51 41q3 3 87 79q48 43 93 78q46 35 70 35q58 0 99 -21q40 -21 40 -92q0 -26 -17 -50q-24 -34 -38 -50q-5 -5 -38 -47q-17 -21 -17 -41q0 -4 5 -12q5 -9 15 -13q106 -39 229 -104q113 -60 214 -150q94 -84 158 -192q63 -107 63 -236q0 -128 -52 -238
q-53 -112 -139 -204q-89 -95 -198 -165q-115 -73 -234 -122q-116 -47 -241 -75q-122 -27 -226 -27q-105 0 -213 31q-103 29 -187 92q-84 62 -134 154q-51 93 -51 219z" />
    <glyph glyph-name="multiply" unicode="&#xd7;" horiz-adv-x="970" 
d="M252 53q-17 -48 -44 -36t-42 55q-14 27 -14 59t6 62q33 68 96 118q14 11 57 45t66 52q11 9 44 34t53 40q49 38 100 84q50 46 88 92q39 48 57 98q22 26 43 20q19 -6 35 -37q18 -32 26 -52q6 -16 -10 -50q-30 -44 -65 -73q-38 -30 -82 -61q-67 -46 -86 -58q-40 -25 -80 -60
q-75 -72 -131 -144q-67 -87 -109 -161q-3 -4 -5 -13q-2 -10 -3 -14zM147 631q-23 10 -28 33q-4 22 8 45q11 21 37 37q25 16 57 10q42 -26 79 -62q32 -32 62 -73q38 -52 56 -78q27 -39 57 -72q36 -37 83 -76q43 -35 97 -77q47 -36 81 -60l34 -25q14 -8 17 -11q9 -7 16 -9
q20 -14 38 -43q15 -24 24 -59q8 -31 0 -56q-7 -24 -36 -30q-57 34 -101 75q-43 40 -88 90q-28 31 -84 97q-39 46 -87 94q-74 70 -146 127q-79 63 -153 113q-6 4 -13 6q-2 1 -5.5 2t-4.5 2z" />
    <glyph glyph-name="Oslash" unicode="&#xd8;" horiz-adv-x="1835" 
d="M1319 1485q-164 -235 -200 -287q-34 -48 -86.5 -125t-60.5 -89q-44 -63 -106 -158q-18 -27 -75 -118q-40 -64 -59 -96q-34 -58 -50 -88q-22 -36 -71 -140q-43 -92 -142 -286q-36 -80 -80 -168q-36 -73 -84 -149q2 -2 -5 -13q-8 -13 -19 -28l-101 14q-21 24 -22 25
q-14 14 -20 25q-7 12 -10 25q-3 11 5 19q50 66 128 187q88 137 167 264q100 161 185 302l87.5 143.5t94.5 155.5q70 117 158 256q64 101 116 173q32 43 52 82q2 4 17.5 33.5t22.5 43.5q18 36 33 63q16 29 31 40q28 8 52 -1q27 -10 41 -26q16 -19 17 -39q2 -22 -16 -40z
M236 365q0 51 12 99q13 50 27 95q20 62 28 91q12 44 12 87v19q-11 45 -23 72q-12 28 -24 59q-8 21 -17 60q-7 29 -7 77q0 150 59 237q61 90 154 137q92 47 210 62q115 15 230 15q14 5 51 41q3 3 87 79q48 43 93 78q46 35 70 35q58 0 99 -21q40 -21 40 -92q0 -26 -17 -50
q-24 -34 -38 -50q-5 -5 -38 -47q-17 -21 -17 -41q0 -4 5 -12q5 -9 15 -13q106 -39 229 -104q113 -60 214 -150q94 -84 158 -192q63 -107 63 -236q0 -128 -52 -238q-53 -112 -139 -204q-89 -95 -198 -165q-115 -73 -234 -122q-116 -47 -241 -75q-122 -27 -226 -27
q-105 0 -213 31q-103 29 -187 92q-84 62 -134 154q-51 93 -51 219zM391 406q0 -100 42 -173t110 -123q72 -52 149 -75q86 -25 162 -25q94 0 202 20q106 20 209 57q99 36 197 95q92 56 166 134q71 76 114 172q42 95 42 208q0 120 -52 211q-54 94 -135 162q-85 71 -185 119
q-104 50 -204 84q-16 6 -36 12t-42 6q-1 0 -3.5 -0.5t-6.5 -1t-8 -0.5q-13 -1 -18 -6l-99 -90q-4 0 -7 -1t-9 -1q-21 0 -31 11t-26 11l-10 -2q-8 -1 -19 -6l-21 -8q-9 -4 -14 -4l-36 -36q-35 -35 -53 -55t-53 -55q-29 -29 -34 -36q-21 -26 -44 -60q-45 -65 -55 -80
q-34 -51 -47 -74q-20 -35 -20 -44q-1 -40 29 -74q29 -32 77 -63t100 -57t101 -56q46 -28 78 -60q31 -31 31 -65q0 -19 -9 -38t-23 -35q-14 -15 -31 -24q-20 -10 -31 -10h-22q-6 0 -12 2q-3 1 -11 7q-12 9 -17 14q-14 11 -36 32q-9 9 -63 58q-52 48 -76 69q-8 7 -34.5 30.5
t-39.5 35.5q-12 11 -30.5 27.5t-25.5 22.5q-23 20 -27 20q-12 0 -22 -27q-11 -28 -18 -59q-6 -28 -10 -62q-3 -28 -3 -34zM391 1034q0 -16 1 -29q2 -26 4 -39q2 -14 12 -34q7 -14 22 -14q11 0 16 5l15 15l319 389q0 18 -7 19q-10 2 -17 2q-77 0 -143 -18t-115 -55
q-50 -38 -78 -97q-29 -61 -29 -144z" />
    <glyph glyph-name="Ugrave" unicode="&#xd9;" horiz-adv-x="2134" 
d="M930 1876q-10 27 -7 71q3 42 31 58q21 8 57 -22q37 -31 73 -74q40 -48 72 -94q28 -41 48 -78q8 -17 2 -24t-12 -9q-23 -11 -66 10q-41 20 -81 49q-29 24 -63 45q-34 20 -46 50q-1 1 -5 7q-3 4 -3 11zM303 51q0 8 2 44q1 20 7 59q1 9 3 19t5 22t4 19q5 27 12 50l221 875
v10q0 6 1 9t1 9q0 13 -6 13q-3 0 -49 -26q-43 -24 -129 -112q-11 -11 -33 -41q-37 -51 -44 -59q-26 -32 -48 -53q-25 -23 -45 -23q-44 0 -74 30q-31 31 -31 67q0 18 12 36q13 20 33 33q78 63 142 127q60 60 119 127q39 45 106 127q80 99 104 129q22 27 42 39q19 12 55 12
q54 0 74 -38t20 -87q0 -19 -9 -46q-9 -28 -26 -52q-14 -24 -30 -66q-8 -20 -36 -107q-4 -13 -40 -128q-8 -26 -21.5 -71.5t-16.5 -56.5q-11 -37 -31 -110q-7 -28 -22 -71q-45 -150 -81 -318q-35 -166 -35 -323q0 -62 35 -77q34 -15 81 -6q49 9 96 33q58 29 77 40
q70 41 159 108q77 58 166 137q71 63 158 152q73 75 136 150q53 63 100 135q42 64 53 104q0 2 1.5 7t4 14t4.5 17q4 16 18 68q3 11 11 39.5t12 44.5q4 14 11 42.5t11 41.5t10 35.5t9 32.5q10 37 10 39l15 61q8 35 26 70q16 32 43 56t68 24q72 0 99 -39q28 -40 28 -98
q0 -28 -27 -87q-32 -68 -67 -134q-36 -66 -88 -156q-57 -99 -89 -156q-56 -99 -75 -209q-19 -108 -19 -215v-122q0 -57 16 -98q17 -43 57 -67q41 -24 120 -24q81 0 152 39q66 37 130 86q3 3 23.5 19t33.5 27q46 36 68 54q31 25 58 46q26 20 32 20q36 -5 54 -16
q20 -12 20 -40q0 -47 -30 -77q-10 -10 -31 -32t-33 -34q-56 -53 -105 -91q-63 -49 -116 -79q-63 -35 -131 -56q-72 -22 -142 -22q-94 0 -153 34q-60 35 -94 89q-34 55 -46 124t-12 136q0 50 6 98t6 99q0 7 -1 12q-2 9 -11 10q-1 -4 -16 -16t-19 -16q-54 -54 -102 -110
q-41 -47 -94 -104q-46 -49 -113 -111q-64 -59 -158 -128q-35 -25 -91 -57t-125 -63q-58 -26 -134 -50q-64 -20 -117 -20q-43 0 -69 19t-41 49q-16 31 -20 65q-5 38 -5 65z" />
    <glyph glyph-name="Uacute" unicode="&#xda;" horiz-adv-x="2134" 
d="M1530 1855q-12 -29 -49 -54q-35 -24 -64 -48q-32 -27 -56 -47q-21 -18 -48 -8q-4 4 -19 10t-4 25q6 23 34 70q27 45 57 83q32 40 64 64t52 14q34 -17 38 -42q5 -28 1 -48zM303 51q0 8 2 44q1 20 7 59q1 9 3 19t5 22t4 19q5 27 12 50l221 875v10q0 6 1 9t1 9q0 13 -6 13
q-3 0 -49 -26q-43 -24 -129 -112q-11 -11 -33 -41q-37 -51 -44 -59q-26 -32 -48 -53q-25 -23 -45 -23q-44 0 -74 30q-31 31 -31 67q0 18 12 36q13 20 33 33q78 63 142 127q60 60 119 127q39 45 106 127q80 99 104 129q22 27 42 39q19 12 55 12q54 0 74 -38t20 -87
q0 -19 -9 -46q-9 -28 -26 -52q-14 -24 -30 -66q-8 -20 -36 -107q-4 -13 -40 -128q-8 -26 -21.5 -71.5t-16.5 -56.5q-11 -37 -31 -110q-7 -28 -22 -71q-45 -150 -81 -318q-35 -166 -35 -323q0 -62 35 -77q34 -15 81 -6q49 9 96 33q58 29 77 40q70 41 159 108q77 58 166 137
q71 63 158 152q73 75 136 150q53 63 100 135q42 64 53 104q0 2 1.5 7t4 14t4.5 17q4 16 18 68q3 11 11 39.5t12 44.5q4 14 11 42.5t11 41.5t10 35.5t9 32.5q10 37 10 39l15 61q8 35 26 70q16 32 43 56t68 24q72 0 99 -39q28 -40 28 -98q0 -28 -27 -87q-32 -68 -67 -134
q-36 -66 -88 -156q-57 -99 -89 -156q-56 -99 -75 -209q-19 -108 -19 -215v-122q0 -57 16 -98q17 -43 57 -67q41 -24 120 -24q81 0 152 39q66 37 130 86q3 3 23.5 19t33.5 27q46 36 68 54q31 25 58 46q26 20 32 20q36 -5 54 -16q20 -12 20 -40q0 -47 -30 -77q-10 -10 -31 -32
t-33 -34q-56 -53 -105 -91q-63 -49 -116 -79q-63 -35 -131 -56q-72 -22 -142 -22q-94 0 -153 34q-60 35 -94 89q-34 55 -46 124t-12 136q0 50 6 98t6 99q0 7 -1 12q-2 9 -11 10q-1 -4 -16 -16t-19 -16q-54 -54 -102 -110q-41 -47 -94 -104q-46 -49 -113 -111
q-64 -59 -158 -128q-35 -25 -91 -57t-125 -63q-58 -26 -134 -50q-64 -20 -117 -20q-43 0 -69 19t-41 49q-16 31 -20 65q-5 38 -5 65z" />
    <glyph glyph-name="Ucircumflex" unicode="&#xdb;" horiz-adv-x="2134" 
d="M1282 1702q-11 -13 -19 -14q-12 -2 -20 -2q-25 0 -41 15t-18 40q-2 27 10 39q19 24 36 35q12 8 34 24q26 18 44 36q17 17 33 46q9 18 9 27q-2 6 9 13t26 10q13 3 30 1q14 -1 21 -10l34 -70q5 -9 19 -37t22 -43q21 -40 43 -47q25 -17 25 -39q2 -17 -8 -29q-10 -13 -31 -7
q-49 16 -82 57q-30 37 -53 78q-14 -19 -35 -40q-18 -18 -39 -36zM303 51q0 8 2 44q1 20 7 59q1 9 3 19t5 22t4 19q5 27 12 50l221 875v10q0 6 1 9t1 9q0 13 -6 13q-3 0 -49 -26q-43 -24 -129 -112q-11 -11 -33 -41q-37 -51 -44 -59q-26 -32 -48 -53q-25 -23 -45 -23
q-44 0 -74 30q-31 31 -31 67q0 18 12 36q13 20 33 33q78 63 142 127q60 60 119 127q39 45 106 127q80 99 104 129q22 27 42 39q19 12 55 12q54 0 74 -38t20 -87q0 -19 -9 -46q-9 -28 -26 -52q-14 -24 -30 -66q-8 -20 -36 -107q-4 -13 -40 -128q-8 -26 -21.5 -71.5
t-16.5 -56.5q-11 -37 -31 -110q-7 -28 -22 -71q-45 -150 -81 -318q-35 -166 -35 -323q0 -62 35 -77q34 -15 81 -6q49 9 96 33q58 29 77 40q70 41 159 108q77 58 166 137q71 63 158 152q73 75 136 150q53 63 100 135q42 64 53 104q0 2 1.5 7t4 14t4.5 17q4 16 18 68
q3 11 11 39.5t12 44.5q4 14 11 42.5t11 41.5t10 35.5t9 32.5q10 37 10 39l15 61q8 35 26 70q16 32 43 56t68 24q72 0 99 -39q28 -40 28 -98q0 -28 -27 -87q-32 -68 -67 -134q-36 -66 -88 -156q-57 -99 -89 -156q-56 -99 -75 -209q-19 -108 -19 -215v-122q0 -57 16 -98
q17 -43 57 -67q41 -24 120 -24q81 0 152 39q66 37 130 86q3 3 23.5 19t33.5 27q46 36 68 54q31 25 58 46q26 20 32 20q36 -5 54 -16q20 -12 20 -40q0 -47 -30 -77q-10 -10 -31 -32t-33 -34q-56 -53 -105 -91q-63 -49 -116 -79q-63 -35 -131 -56q-72 -22 -142 -22
q-94 0 -153 34q-60 35 -94 89q-34 55 -46 124t-12 136q0 50 6 98t6 99q0 7 -1 12q-2 9 -11 10q-1 -4 -16 -16t-19 -16q-54 -54 -102 -110q-41 -47 -94 -104q-46 -49 -113 -111q-64 -59 -158 -128q-35 -25 -91 -57t-125 -63q-58 -26 -134 -50q-64 -20 -117 -20q-43 0 -69 19
t-41 49q-16 31 -20 65q-5 38 -5 65z" />
    <glyph glyph-name="Udieresis" unicode="&#xdc;" horiz-adv-x="2134" 
d="M1278 1845q2 -28 -12 -47t-36 -32q-20 -11 -46 -13t-43 8q-20 11 -28 29q-8 19 -11 22q-3 6 -9.5 17.5t-8.5 16.5q-9 17 -7 34q0 17 16 30q12 10 35 18q21 8 42 9q28 2 34 2q67 0 74 -94zM1540 1855q2 -30 -12 -48q-13 -17 -36 -30q-22 -12 -46 -14q-24 -1 -45 9
q-20 17 -26 30q-8 18 -11 21q-6 13 -18 32q-11 17 -9 35q1 17 18 30q11 9 35 18q23 9 40 10q28 2 34 2q68 0 76 -95zM303 51q0 8 2 44q1 20 7 59q1 9 3 19t5 22t4 19q5 27 12 50l221 875v10q0 6 1 9t1 9q0 13 -6 13q-3 0 -49 -26q-43 -24 -129 -112q-11 -11 -33 -41
q-37 -51 -44 -59q-26 -32 -48 -53q-25 -23 -45 -23q-44 0 -74 30q-31 31 -31 67q0 18 12 36q13 20 33 33q78 63 142 127q60 60 119 127q39 45 106 127q80 99 104 129q22 27 42 39q19 12 55 12q54 0 74 -38t20 -87q0 -19 -9 -46q-9 -28 -26 -52q-14 -24 -30 -66
q-8 -20 -36 -107q-4 -13 -40 -128q-8 -26 -21.5 -71.5t-16.5 -56.5q-11 -37 -31 -110q-7 -28 -22 -71q-45 -150 -81 -318q-35 -166 -35 -323q0 -62 35 -77q34 -15 81 -6q49 9 96 33q58 29 77 40q70 41 159 108q77 58 166 137q71 63 158 152q73 75 136 150q53 63 100 135
q42 64 53 104q0 2 1.5 7t4 14t4.5 17q4 16 18 68q3 11 11 39.5t12 44.5q4 14 11 42.5t11 41.5t10 35.5t9 32.5q10 37 10 39l15 61q8 35 26 70q16 32 43 56t68 24q72 0 99 -39q28 -40 28 -98q0 -28 -27 -87q-32 -68 -67 -134q-36 -66 -88 -156q-57 -99 -89 -156
q-56 -99 -75 -209q-19 -108 -19 -215v-122q0 -57 16 -98q16 -42 57 -66q42 -25 120 -25q81 0 152 39q66 37 130 86q3 3 23.5 19t33.5 27q46 36 68 54q31 25 58 46q26 20 32 20q36 -5 54 -16q20 -12 20 -40q0 -47 -30 -77q-10 -10 -31 -32t-33 -34q-56 -53 -105 -91
q-63 -49 -116 -79q-63 -35 -131 -56q-72 -22 -142 -22q-94 0 -153 34q-60 35 -94 89q-34 55 -46 124t-12 136q0 50 6 98t6 99q0 7 -1 12q-2 9 -11 10q-1 -4 -16 -16t-19 -16q-54 -54 -102 -110q-41 -47 -94 -104q-46 -49 -113 -111q-64 -59 -158 -128q-35 -25 -91 -57
t-125 -63q-58 -26 -134 -50q-64 -20 -117 -20q-43 0 -69 19t-41 49q-16 31 -20 65q-5 38 -5 65z" />
    <glyph glyph-name="Yacute" unicode="&#xdd;" horiz-adv-x="1155" 
d="M1016 1702q-12 -29 -49 -54q-28 -19 -64 -49q-32 -27 -56 -47q-21 -18 -48 -8q-4 4 -19 10t-4 25q7 25 34 71q27 45 57 83q30 37 64 63q32 24 52 14q34 -17 38 -42q5 -28 1 -48zM203 1477q0 -3 2 -17q0 -2 5 -21q3 -13 6 -20q3 -8 7 -8t7 8q5 13 7 20q2 9 4 21q1 7 1 17
q0 26 -19 26q-20 0 -20 -26zM1180 936q0 -10 8 -10q10 0 26 10q19 12 25 18q68 62 116 131t48 168q-15 0 -50 -42q-29 -36 -70 -95q-27 -39 -65 -106q-31 -54 -38 -74zM188 -582q0 66 28 141q28 74 65 126l557 907l20 41v8q0 2 -30 8q-3 1 -28 6t-41 8q-49 9 -79 16
q-36 8 -57 17q-89 39 -166 128q-80 92 -143 206q-59 107 -99 236q-37 120 -37 217q0 23 3 45t32 22q17 0 39 -6q23 -6 37 -6h4q2 0 4 2l47 47q18 0 22 -16q5 -18 5 -27q0 -18 -7 -32q-8 -16 -8 -33q0 -19 15 -35q14 -15 14 -33q0 -16 -5 -38t-5 -42q0 -84 40 -174
q42 -95 105 -171q65 -78 149 -130q82 -51 169 -51q8 0 40 2q14 1 47 7q24 4 44 16q19 11 30 30l293 508q33 57 79 105q43 45 114 45q66 0 90 -38q25 -39 25 -104q0 -96 -27 -183q-27 -88 -75 -164q-47 -75 -115 -140q-70 -67 -144 -111q-33 -20 -71 -36q-24 -10 -70 -30
q-36 -16 -68 -36q-33 -21 -59 -53q-58 -98 -146 -242q-68 -112 -156 -260q-91 -153 -142 -246q-67 -121 -95 -199q-19 -34 -32 -70q-15 -40 -15 -77q0 -16 18 -16h11q7 6 26.5 23t28.5 26q14 11 42 37q16 15 28 22q2 1 4.5 3t7 5t8.5 6q20 14 30 20q15 9 30 15q14 6 20 4
q15 -7 4 -40q-10 -30 -38 -75q-31 -50 -66 -93q-39 -48 -78 -90q-36 -39 -75 -68q-36 -27 -56 -27q-64 0 -103 36t-39 101z" />
    <glyph glyph-name="Thorn" unicode="&#xde;" horiz-adv-x="1032" 
d="M150 1233q2 25 35 56q37 34 77 53q47 23 85 24q43 2 65 -31q8 -66 -10 -122q-16 -51 -42 -111q60 -6 123 -12q54 -5 125 -19q62 -12 120 -33q63 -23 110 -53q80 -52 107 -130q28 -81 16 -164q-12 -82 -60 -165q-45 -77 -117 -135q-52 -41 -120 -66q-66 -25 -142 -42
q-79 -18 -149 -26q-77 -9 -144 -15q4 -30 16 -78q10 -43 23 -72l68 -67q2 -26 -19 -61q-21 -37 -54 -65q-34 -29 -75 -43t-79 7q-19 31 -34 49q-19 24 -24 51q-12 92 -2 203q10 104 32 230q15 86 46 234q24 117 39 214q13 104 14 196q2 103 -30 193zM276 897
q-25 -98 -44 -226q-17 -113 -17 -239q7 4 15 6q1 0 7.5 1.5t10.5 2.5q46 -4 84 -6q13 0 70 -3q23 -1 70 -1q21 0 81 2q10 1 61 5q31 3 69 11t65 19q29 12 51 35q33 32 49 77q14 40 9 89q-4 44 -26 86q-21 40 -55 67q-49 37 -109 55q-58 17 -127 22q-66 5 -134 3
q-69 -2 -130 -6z" />
    <glyph glyph-name="germandbls" unicode="&#xdf;" horiz-adv-x="980" 
d="M274 59q5 18 17 40q13 23 30 40q22 22 38 31q21 12 42 12q14 0 29 -12q23 -18 34 -26q18 -12 48 -25q31 -13 72 -13q40 0 86 11q43 10 75 47q32 42 48 82q18 45 18 73q2 55 -21 90q-24 38 -59 65q-36 28 -78 50q-46 24 -78 46q-31 21 -58 52q-23 25 -21 64q0 68 32 107
q34 42 76 68q46 28 85 48q44 22 61 45q24 35 15 74t-36 72q-28 35 -63 54q-39 22 -70 22q-43 0 -91 -20q-45 -19 -86 -57q-41 -37 -69 -93q-30 -58 -37 -127q0 -15 -7 -85q-2 -24 -7.5 -84.5t-9.5 -97.5q-3 -26 -10.5 -104.5t-12.5 -125.5q-17 -181 -23 -231
q-17 -150 -20 -184q-5 -51 -10 -86v-24q-2 -53 1 -95q3 -41 1 -90q0 -26 -12 -58t-33 -60q-24 -32 -47 -49q-26 -19 -55 -19q-27 0 -32 31q-5 33 -5 67q1 44 8 101q3 25 10 98q2 31 13 103q5 30 14 95.5t12 85.5q28 195 32 219q18 116 33 219q4 29 13 91.5t13 91.5
q4 28 9.5 64t6.5 45q6 43 12 81q6 40 26 78q30 56 79 118q53 66 116 125q58 54 133 98q68 40 135 40q42 0 80 -18q37 -18 65 -49q26 -29 42 -70q14 -35 12 -80q-5 -52 -34 -95q-34 -49 -71 -85t-89 -81q-44 -39 -78 -83q-25 -25 -12 -41t42 -28q35 -15 64 -21q30 -7 51 -16
q48 -25 77 -43q32 -20 61 -54q26 -30 39 -72q13 -39 11 -100q-5 -108 -55 -190q-50 -81 -128 -136q-76 -53 -169 -81q-92 -27 -174 -27q-64 0 -106 17q-43 17 -50 75z" />
    <glyph glyph-name="agrave" unicode="&#xe0;" 
d="M281 1032q-11 30 -8 71t32 58q22 8 56 -21q38 -31 74 -75q40 -48 72 -94q28 -41 48 -78q8 -17 2 -24t-12 -9q-23 -11 -66 10q-40 19 -82 50q-31 26 -62 45q-34 21 -46 49q-1 1 -5 7q-3 5 -3 11zM172 172q5 -13 13 -14q12 -2 20 -2q22 0 33 -1q12 -1 36 4q21 5 45 18
q27 15 60 44q32 30 47 44q20 18 46 48q7 8 15.5 17.5t19.5 22.5t18 21q52 60 71 83l12 18q12 23 17 42q7 23 12 38q6 17 12 27t17 10q8 0 16 -2q12 0 24 2q9 2 9 18q0 24 -33 45t-57 21q-79 0 -168 -36t-159 -96t-114 -140q-42 -76 -34 -162q1 -16 12 -34q10 -17 10 -34v-2z
M23 174q-3 15 -3 29q0 52 22 110q21 55 44 103q46 82 102 144q60 66 134 116q75 51 160 77q87 27 186 27h30q9 0 31 -2q20 -1 64 -8q37 -6 75 -21q37 -15 65 -41t28 -67q0 -4 -7 -4q-17 0 -34 10t-35 10q-14 0 -21 -7q-9 -9 -12 -14q-4 -7 -7 -14q-3 -8 -5 -8l-52 -22l3 -24
t3 -23q4 -39 5 -49q-2 -7 -5 -12q-5 -8 -6 -11v2q-20 -41 -43 -117q-20 -66 -20 -133q0 -59 21 -79q20 -19 94 -19q28 0 62 7q38 8 71 18q39 12 63 22q26 11 45 23l37 24q16 10 35 15q17 4 37 6q21 0 39 -8q16 -7 20 -29q0 -32 -55 -66q-57 -36 -132 -62q-84 -30 -159 -46
q-87 -19 -137 -19q-46 0 -76 18q-32 19 -52 46q-23 31 -35 65q-10 28 -23 76l4 59q-45 -34 -88 -80q-45 -48 -95 -95q-45 -43 -100 -78q-51 -33 -106 -33q-45 0 -74 16q-30 16 -51 42t-33 58q-13 35 -14 66v2z" />
    <glyph glyph-name="aacute" unicode="&#xe1;" 
d="M854 1044q-12 -29 -49 -54q-35 -24 -64 -48q-32 -27 -56 -47q-21 -18 -48 -8q-4 4 -19 10t-4 25q6 23 34 70q24 41 58 83t63 64q32 24 52 14q34 -17 38 -42q5 -28 1 -48zM172 172q5 -13 13 -14q12 -2 20 -2q22 0 33 -1q12 -1 36 4q21 5 45 18q27 15 60 44q32 30 47 44
q20 18 46 48q7 8 15.5 17.5t19.5 22.5t18 21q52 60 71 83l12 18q12 23 17 42q7 23 12 38q6 17 12 27t17 10q8 0 16 -2q12 0 24 2q9 2 9 18q0 24 -33 45t-57 21q-79 0 -168 -36t-159 -96t-114 -140q-42 -76 -34 -162q1 -16 12 -34q10 -17 10 -34v-2zM23 174q-3 15 -3 29
q0 52 22 110q21 55 44 103q46 82 102 144q60 66 134 116q75 51 160 77q87 27 186 27h30q9 0 31 -2q20 -1 64 -8q37 -6 75 -21q37 -15 65 -41t28 -67q0 -4 -7 -4q-17 0 -34 10t-35 10q-14 0 -21 -7q-9 -9 -12 -14q-4 -7 -7 -14q-3 -8 -5 -8l-52 -22l3 -24t3 -23q4 -39 5 -49
q-2 -7 -5 -12q-5 -8 -6 -11v2q-20 -41 -43 -117q-20 -66 -20 -133q0 -59 22 -79q20 -19 93 -19q28 0 62 7q38 8 71 18q39 12 63 22q26 11 45 23l37 24q16 10 35 15q17 4 37 6q21 0 39 -8q16 -7 20 -29q0 -32 -55 -66q-57 -36 -132 -62q-84 -30 -159 -46q-87 -19 -137 -19
q-46 0 -76 18q-32 19 -52 46q-23 31 -35 65q-10 28 -23 76l4 59q-45 -34 -88 -80q-45 -48 -95 -95q-45 -43 -100 -78q-51 -33 -106 -33q-45 0 -74 16q-30 16 -51 42t-33 58q-13 35 -14 66v2z" />
    <glyph glyph-name="acircumflex" unicode="&#xe2;" 
d="M559 881q-12 -14 -19 -15q-12 -2 -20 -2q-23 0 -41 16q-16 15 -18 40q-1 27 10 38q19 24 36 35q7 5 19.5 14t14.5 11q26 18 44 36q17 17 33 46q9 18 9 26q-2 7 9 14t27 10q13 3 29 1q14 -1 21 -10l35 -70q6 -12 19 -39t21 -41q21 -40 43 -47q25 -17 25 -39q2 -17 -8 -29
q-11 -14 -31 -8q-48 16 -82 58q-30 37 -53 78q-14 -19 -35 -40q-18 -18 -39 -36zM172 172q5 -13 13 -14q12 -2 20 -2q22 0 33 -1q12 -1 36 4q21 5 45 18q27 15 60 44q32 30 47 44q20 18 46 48q7 8 15.5 17.5t19.5 22.5t18 21q52 60 71 83l12 18q12 23 17 42q7 23 12 38
q6 17 12 27t17 10q8 0 16 -2q12 0 24 2q9 2 9 18q0 24 -33 45t-57 21q-79 0 -168 -36t-159 -96t-114 -140q-42 -76 -34 -162q1 -16 12 -34q10 -17 10 -34v-2zM23 174q-3 15 -3 29q0 52 22 110q21 55 44 103q46 82 102 144q60 66 134 116q75 51 160 77q87 27 186 27h30
q9 0 31 -2q20 -1 64 -8q37 -6 75 -21q37 -15 65 -41t28 -67q0 -4 -7 -4q-17 0 -34 10t-35 10q-14 0 -21 -7q-9 -9 -12 -14q-4 -7 -7 -14q-3 -8 -5 -8l-52 -22l3 -24t3 -23q4 -39 5 -49q-2 -7 -5 -12q-5 -8 -6 -11v2q-20 -41 -43 -117q-20 -66 -20 -133q0 -59 21 -79
q20 -19 94 -19q28 0 62 7q38 8 71 18q39 12 63 22q26 11 45 23l37 24q16 10 35 15q17 4 37 6q24 0 39 -7t20 -30q0 -32 -55 -66q-57 -36 -132 -62q-84 -30 -159 -46q-87 -19 -137 -19q-46 0 -76 18q-32 19 -52 46q-23 31 -35 65q-10 28 -23 76l4 59q-45 -34 -88 -80
q-45 -48 -95 -95q-45 -43 -100 -78q-51 -33 -106 -33q-45 0 -74 16q-30 16 -51 42q-21 25 -33 59q-13 35 -14 65v2z" />
    <glyph glyph-name="atilde" unicode="&#xe3;" 
d="M559 1079q42 -19 121 -52q45 -19 84 -19q23 0 46 20q28 24 45 44q20 23 41 39q20 15 32 5q16 -16 16 -42q0 -24 -8 -50q-7 -22 -19 -43q-10 -17 -12 -25q-21 -29 -46 -36q-31 -9 -58 -9q-50 0 -95 14q-58 18 -85 29q-41 16 -81 30q-39 13 -83 13q-12 0 -23 -8
q-6 -6 -21 -18q-18 -14 -32 -22q-15 -8 -30 -10q-13 -1 -17 15q-6 23 7 46q15 27 37 46t49 35q24 14 44 19q45 0 88 -21zM172 172q5 -13 13 -14q12 -2 20 -2q22 0 33 -1q12 -1 36 4q21 5 45 18q27 15 60 44q32 30 47 44q20 18 46 48q7 8 15.5 17.5t19.5 22.5t18 21
q52 60 71 83l12 18q12 23 17 42q7 23 12 38q6 17 12 27t17 10q8 0 16 -2q12 0 24 2q9 2 9 18q0 24 -33 45t-57 21q-79 0 -168 -36t-159 -96t-114 -140q-43 -78 -35 -162q1 -14 13 -34q10 -17 10 -34v-2zM23 174q-3 15 -3 29q0 52 22 110q21 55 44 103q46 82 102 144
q60 66 134 116q75 51 160 77q87 27 186 27h30q9 0 31 -2q20 -1 64 -8q37 -6 75 -21q37 -15 65 -41t28 -67q0 -4 -7 -4q-17 0 -34 10t-35 10q-14 0 -21 -7q-9 -9 -12 -14q-4 -7 -7 -14q-3 -8 -5 -8l-52 -22l3 -24t3 -23q4 -39 5 -49q-2 -7 -5 -12q-5 -8 -6 -11v2
q-20 -41 -43 -117q-20 -66 -20 -133q0 -59 21 -79q20 -19 94 -19q28 0 62 7q38 8 71 18q39 12 63 22q26 11 45 23l37 24q16 10 35 15q17 4 37 6q21 0 39 -8q16 -7 20 -29q0 -32 -55 -66q-57 -36 -132 -62q-84 -30 -159 -46q-87 -19 -137 -19q-46 0 -76 18q-32 19 -52 46
q-23 31 -35 65q-10 28 -23 76l4 59q-45 -34 -88 -80q-45 -48 -95 -95q-45 -43 -100 -78q-51 -33 -106 -33q-45 0 -74 16q-30 16 -51 42t-33 58q-13 35 -14 66v2z" />
    <glyph glyph-name="adieresis" unicode="&#xe4;" 
d="M705 1010q1 -27 -13 -47q-14 -19 -36 -32q-20 -11 -46 -13t-43 8q-19 11 -27 28q-8 18 -12 23l-17 34q-8 17 -7 33q0 18 15 30q14 11 36 19q21 7 42 9q28 2 34 2q67 0 74 -94zM967 1020q2 -29 -13 -48q-15 -20 -35 -31t-47 -13q-26 -2 -45 8q-18 15 -25 31q-8 17 -11 20
q-5 11 -19 33q-10 15 -8 35q1 17 17 29q13 11 35 19q20 8 40 9q28 2 35 2q69 0 76 -94zM172 172q5 -13 13 -14q12 -2 20 -2q22 0 33 -1q12 -1 36 4q21 5 45 18q27 15 60 44q32 30 47 44q20 18 46 48q7 8 15.5 17.5t19.5 22.5t18 21q52 60 71 83l12 18q12 23 17 42
q7 23 12 38q6 17 12 27t17 10q8 0 16 -2q12 0 24 2q9 2 9 18q0 24 -33 45t-57 21q-79 0 -168 -36t-159 -96t-114 -140q-43 -78 -35 -162q1 -14 13 -34q10 -17 10 -34v-2zM23 174q-3 15 -3 29q0 52 22 110q21 55 44 103q46 82 102 144q60 66 134 116q75 51 160 77
q87 27 186 27h30q9 0 31 -2q20 -1 64 -8q37 -6 75 -21q37 -15 65 -41t28 -67q0 -4 -7 -4q-17 0 -34 10t-35 10q-14 0 -21 -7q-9 -9 -12 -14q-4 -7 -7 -14q-3 -8 -5 -8l-52 -22l3 -24t3 -23q4 -39 5 -49q-2 -7 -5 -12q-5 -8 -6 -11v2q-20 -41 -43 -117q-20 -66 -20 -133
q0 -59 21 -79q20 -19 94 -19q28 0 62 7q38 8 71 18q39 12 63 22q26 11 45 23l37 24q16 10 35 15q17 4 37 6q24 0 39 -7t20 -30q0 -32 -55 -66q-57 -36 -132 -62q-84 -30 -159 -46q-87 -19 -137 -19q-46 0 -76 18q-32 19 -52 46q-23 31 -35 65q-10 28 -23 76l4 59
q-45 -34 -88 -80q-45 -48 -95 -95q-45 -43 -100 -78q-51 -33 -106 -33q-45 0 -74 16q-30 16 -51 42q-21 25 -33 59q-13 35 -14 65v2z" />
    <glyph glyph-name="aring" unicode="&#xe5;" 
d="M23 174q-3 15 -3 29q0 52 22 110q21 55 44 103q46 82 102 144q60 66 134 116q75 51 160 77q87 27 186 27h30q9 0 31 -2q20 -1 64 -8q37 -6 75 -21q37 -15 65 -41t28 -67q0 -4 -7 -4q-17 0 -34 10t-35 10q-14 0 -21 -7q-9 -9 -12 -14q-4 -7 -7 -14q-3 -8 -5 -8l-52 -22
l3 -24t3 -23q4 -39 5 -49q-2 -7 -5 -12q-5 -8 -6 -11v2q-20 -41 -43 -117q-20 -66 -20 -133q0 -59 21 -79q20 -19 94 -19q28 0 62 7q38 8 71 18q39 12 63 22q26 11 45 23l37 24q16 10 35 15q17 4 37 6q21 0 39 -8q16 -7 20 -29q0 -32 -55 -66q-57 -36 -132 -62
q-84 -30 -159 -46q-87 -19 -137 -19q-46 0 -76 18q-32 19 -52 46q-23 31 -35 65q-10 28 -23 76l4 59q-45 -34 -88 -80q-45 -48 -95 -95q-45 -43 -100 -78q-51 -33 -106 -33q-45 0 -74 16q-30 16 -51 42t-33 58q-13 35 -14 66v2zM172 172q5 -13 13 -14q12 -2 20 -2
q22 0 33 -1q12 -1 36 4q21 5 45 18q27 15 60 44q32 30 47 44q20 18 46 48q7 8 15.5 17.5t19.5 22.5t18 21q52 60 71 83l12 18q12 23 17 42q7 23 12 38q6 17 12 27t17 10q8 0 16 -2q12 0 24 2q9 2 9 18q0 24 -33 45t-57 21q-79 0 -168 -36t-159 -96t-114 -140
q-42 -76 -34 -162q1 -16 12 -34q10 -17 10 -34v-2zM664 829q-53 -2 -115 39q-27 25 -43 48q-20 28 -27 55q-7 33 -3 68q4 34 24 65q18 28 48 48q32 21 70 22q67 0 117 -37q51 -38 68 -107q12 -36 5 -71q-7 -36 -28 -65q-21 -30 -51 -48q-31 -18 -65 -17zM643 926q19 0 36 11
q19 12 30 28q12 17 18 34q6 18 0 35q-6 27 -29 42t-51 14q-21 0 -40 -11q-18 -10 -29 -26q-14 -19 -18 -35q-5 -20 -1 -35q7 -27 32 -42q24 -15 52 -15z" />
    <glyph glyph-name="ae" unicode="&#xe6;" horiz-adv-x="1748" 
d="M23 174q-3 15 -3 29q0 52 22 110q21 55 44 103q46 82 102 144q60 66 134 116q75 51 160 77q87 27 186 27h30q9 0 31 -2q19 -2 47 -6q31 -5 58 -12q25 -7 56 -22t46 -33q93 40 184 40q56 0 113 -14q65 -16 115 -43q51 -28 90 -73q37 -43 37 -101q0 -85 -44 -135t-113 -74
q-71 -25 -152 -32q-77 -7 -160 -7q-61 0 -92 4q-34 4 -52 15q-19 11 -24 27q-7 21 -7 42q0 35 29 43q34 9 72 9q32 0 64 -19q29 -17 65 -22q47 -6 98 1q61 9 99 21q49 16 77 34q31 20 31 40q0 24 -33 48q-32 23 -76 43q-48 22 -86 32q-43 12 -63 12q-100 0 -179 -16
q-80 -16 -132 -64q2 -10 2 -20q-2 -7 -5 -12q-5 -8 -6 -11v2q-14 -29 -31 -82q-16 -51 -26 -96q0 -5 1 -6t1 -6q7 -75 55 -118q46 -41 116 -58q69 -16 154 -12q76 4 166 24q72 16 152 46q72 27 117 54q3 2 34 25q35 26 53 37q25 15 59 32q30 15 53 15q12 0 15 -11
q3 -10 0 -25q-3 -17 -10 -33q-5 -12 -14 -30q-11 -19 -26 -30q-23 -17 -49 -31q-41 -24 -115 -53q-79 -31 -165 -56q-84 -25 -191 -44q-95 -17 -194 -17q-91 0 -172 23t-126 77q-24 16 -39 45q-13 25 -26 72l4 59q-45 -34 -88 -80q-45 -48 -95 -95q-45 -43 -100 -78
q-51 -33 -106 -33q-45 0 -74 16q-30 16 -51 42t-33 58q-13 35 -14 66v2zM172 172q5 -13 13 -14q12 -2 20 -2q22 0 33 -1q12 -1 36 4q21 5 45 18q27 15 60 44q32 30 47 44q20 18 46 48q7 8 15.5 17.5t19.5 22.5t18 21q52 60 71 83l12 18q12 23 17 42q7 23 12 38q6 17 12 27
t17 10q8 0 16 -2q12 0 24 2q9 2 9 18q0 24 -33 45t-57 21q-79 0 -168 -36t-159 -96t-114 -140q-42 -76 -34 -162q1 -16 12 -34q10 -17 10 -34v-2z" />
    <glyph glyph-name="ccedilla" unicode="&#xe7;" horiz-adv-x="1003" 
d="M711 39q0 -20 1 -21q2 -2 2 -1l-1 -2q-3 -7 -8 -23q36 -6 62 -33q25 -27 30 -68q4 -42 -18 -85q-19 -37 -59 -69q-34 -27 -88 -47q-50 -18 -104 -18q-62 0 -67 29q0 9 31 20q28 10 67 27t66 40t26 62q-2 24 -17 32q-14 7 -52 7q-19 0 -25 17q-7 18 -8 35l1 -12
q1 -11 2 -11q2 0 0 24t-3 97h162zM47 381q12 61 45 120q34 60 79 108q50 53 102 90q60 43 116 65q36 14 75 16q50 2 75 2q37 0 59 -22q23 -23 33 -55q11 -33 12 -70q2 -39 -4 -66q-1 -6 -11 -40q-8 -27 -23 -60q-15 -32 -33 -55q-20 -25 -40 -25l-16 8q-13 6 -36 20
q-5 3 -36 20q-16 9 -16 14q-4 18 4 54q13 60 14 65q6 34 5 55q-1 22 -29 22q-30 0 -67 -21q-26 -14 -74 -53q-40 -32 -65 -64q-28 -35 -32 -58q-15 -76 10 -144t79 -112q58 -47 144 -71q87 -24 197 -18q39 1 89 19q46 16 94 38q4 2 40 18.5t55 24.5q55 24 91 34q3 3 19 4
q24 2 26 2q22 2 41 -2q23 -4 18 -33q-6 -35 -54 -69t-110 -61q-71 -31 -124 -46q-68 -20 -94 -21q-8 0 -20 -1q-18 -1 -39 -3q-7 0 -21.5 -1.5t-22.5 -2.5q-30 -2 -35 -2q-62 -2 -115 2q-60 4 -126 20q-63 15 -120 42q-59 28 -97 69q-43 46 -60 103q-18 60 -2 141z" />
    <glyph glyph-name="egrave" unicode="&#xe8;" horiz-adv-x="1009" 
d="M258 1020q-10 27 -7 71q3 41 32 58q21 7 56 -22q40 -34 74 -74q29 -35 71 -95q31 -44 48 -77q8 -18 3 -24q-6 -7 -13 -9q-23 -11 -65 10q-44 21 -82 49q-29 24 -63 45t-46 49l-1 1l-2 4t-2 3q-3 5 -3 11zM41 260q0 97 52 182q55 89 131 151q78 63 172 101q92 37 175 37
q56 0 113 -14q65 -16 115 -43q51 -28 90 -73q37 -43 37 -101q0 -85 -44 -135t-113 -74q-71 -25 -152 -32q-77 -7 -160 -7q-60 0 -91 4q-37 5 -53 14q-18 11 -24 28q-6 18 -6 42q0 36 28 43q30 8 72 8q34 0 64 -18q31 -19 65 -23q47 -6 98 1q57 8 100 22q47 15 76 34
q31 20 31 39q0 25 -33 49q-34 24 -75 43q-42 19 -86 31q-47 13 -64 13q-81 0 -159 -13q-74 -12 -124 -46q-51 -34 -76 -94q-26 -62 -16 -159q7 -73 56 -117q47 -43 115 -59q65 -16 154 -11q82 4 166 23q65 15 152 47q72 27 117 54q8 5 34 24q35 26 53 37q30 18 60 33
q28 14 52 14q12 0 15 -10t0 -25q-3 -17 -10 -33q-10 -24 -13 -30q-12 -20 -27 -31q-18 -13 -49 -30q-49 -30 -141 -65q-94 -36 -207 -63q-112 -27 -232 -39q-119 -12 -216 9q-98 21 -160 82t-62 180z" />
    <glyph glyph-name="eacute" unicode="&#xe9;" horiz-adv-x="1009" 
d="M782 1044q-12 -29 -49 -54q-29 -20 -63 -48q-8 -7 -20.5 -17t-21.5 -17.5l-15 -12.5q-21 -18 -48 -8q-5 5 -18 10q-15 6 -4 25q6 23 34 70q27 45 57 83q34 42 63 64q32 24 53 14q32 -16 37 -42q5 -28 1 -48zM41 260q0 97 52 182q55 89 131 151q78 63 172 101
q92 37 175 37q56 0 113 -14q65 -16 115 -43q51 -28 90 -73q37 -43 37 -101q0 -85 -44 -135t-113 -74q-71 -25 -152 -32q-77 -7 -160 -7q-60 0 -91 4q-37 5 -53 14q-18 11 -24 28q-6 18 -6 42q0 36 28 43q30 8 72 8q34 0 64 -18q31 -19 65 -23q47 -6 98 1q57 8 100 22
q47 15 76 34q31 20 31 39q0 25 -33 49q-34 24 -75 43q-42 19 -86 31q-47 13 -64 13q-81 0 -159 -13q-74 -12 -124 -46q-51 -34 -76 -94q-26 -62 -16 -159q7 -73 56 -117q47 -43 115 -59q65 -16 154 -11q82 4 166 23q65 15 152 47q72 27 117 54q8 5 34 24q35 26 53 37
q30 18 60 33q28 14 52 14q12 0 15 -10t0 -25q-3 -17 -10 -33q-10 -24 -13 -30q-12 -20 -27 -31q-18 -13 -49 -30q-49 -30 -141 -65q-94 -36 -207 -63q-112 -27 -232 -39q-119 -12 -216 9q-98 21 -160 82t-62 180z" />
    <glyph glyph-name="ecircumflex" unicode="&#xea;" horiz-adv-x="1009" 
d="M537 879q-12 -14 -20 -15q-12 -2 -19 -2q-23 0 -41 16q-17 16 -19 40q-1 26 11 38q20 25 35 35q7 5 19.5 14t14.5 11q26 18 44 36q19 19 34 46q8 16 8 26q-2 7 9 14t27 10q13 3 30 1q13 -1 20 -10l35 -70q5 -9 19 -37t22 -43q21 -40 43 -47q25 -17 25 -39q2 -17 -9 -30
q-10 -13 -30 -7q-48 16 -82 58q-35 43 -54 77q-14 -19 -34 -39q-18 -18 -39 -36zM41 260q0 97 52 182q55 89 131 151q78 63 172 101q92 37 175 37q56 0 113 -14q65 -16 115 -43q51 -28 90 -73q37 -43 37 -101q0 -85 -44 -135t-113 -74q-71 -25 -152 -32q-77 -7 -160 -7
q-60 0 -91 4q-37 5 -53 14q-18 11 -24 28q-6 18 -6 42q0 36 28 43q30 8 72 8q34 0 64 -18q31 -19 65 -23q47 -6 98 1q57 8 100 22q47 15 76 34q31 20 31 39q0 25 -33 49q-34 24 -75 43q-42 19 -86 31q-47 13 -64 13q-81 0 -159 -13q-74 -12 -124 -46q-51 -34 -76 -94
q-26 -62 -16 -159q7 -73 56 -117q47 -43 115 -59q65 -16 154 -11q82 4 166 23q65 15 152 47q72 27 117 54q8 5 34 24q35 26 53 37q30 18 60 33q28 14 52 14q12 0 15 -10t0 -25q-3 -17 -10 -33q-10 -24 -13 -30q-12 -20 -27 -31q-18 -13 -49 -30q-49 -30 -141 -65
q-94 -36 -207 -63q-112 -27 -232 -39q-119 -12 -216 9q-98 21 -160 82t-62 180z" />
    <glyph glyph-name="edieresis" unicode="&#xeb;" horiz-adv-x="1009" 
d="M608 1001q2 -28 -12 -47q-13 -18 -36 -31q-22 -12 -46 -14q-25 -2 -43 9q-21 12 -28 28q-10 21 -11 23q-3 6 -9 17.5t-8 15.5q-9 17 -7 34q0 18 15 30q12 9 36 18q25 9 42 10q28 2 34 2q65 0 73 -95zM870 1012q2 -30 -12 -48q-14 -19 -36 -31q-20 -11 -46 -13t-45 8
q-18 15 -25 30q-8 16 -12 21q-8 17 -18 33q-10 15 -8 35q1 17 17 29q13 11 35 19q20 8 40 9q28 2 35 2q68 0 75 -94zM41 260q0 97 52 182q55 89 131 151q78 63 172 101q92 37 175 37q56 0 113 -14q65 -16 115 -43q51 -28 90 -73q37 -43 37 -101q0 -85 -44 -135t-113 -74
q-71 -25 -152 -32q-77 -7 -160 -7q-60 0 -91 4q-37 5 -53 14q-18 11 -24 28q-6 18 -6 42q0 36 28 43q30 8 72 8q34 0 64 -18q31 -19 65 -23q47 -6 98 1q57 8 100 22q47 15 76 34q31 20 31 39q0 25 -33 49q-34 24 -75 43q-42 19 -86 31q-47 13 -64 13q-81 0 -159 -13
q-74 -12 -124 -46q-51 -34 -76 -94q-26 -62 -16 -159q7 -73 56 -117q47 -43 115 -59q65 -16 154 -11q76 4 166 24q72 16 152 46q72 27 117 54q8 5 34 24q35 26 53 37q30 18 60 33q28 14 52 14q12 0 15 -10t0 -25q-3 -17 -10 -33q-10 -24 -13 -30q-12 -20 -27 -31
q-18 -13 -49 -30q-49 -30 -141 -65q-94 -36 -207 -63q-112 -27 -232 -39q-119 -12 -216 9q-98 21 -160 82t-62 180z" />
    <glyph glyph-name="igrave" unicode="&#xec;" horiz-adv-x="512" 
d="M20 1032q-10 27 -7 71q3 41 32 58q22 8 56 -21q38 -31 74 -75q40 -48 72 -94q28 -41 48 -78q8 -17 2 -24t-12 -9q-23 -11 -66 10q-40 19 -82 50q-31 26 -62 45q-34 21 -46 49q-1 1 -5 7t-4 11zM12 225q0 4 4 22t7 33q7 40 21 97q4 16 9 35.5t11 43.5t9 37q17 70 32 111
q18 51 36 84t35 33q4 0 9 -8t10 -8q7 0 14 9q5 6 18 19q14 14 22 20q12 9 25 9q27 0 39 -28t2 -46q-16 -32 -46 -95q-23 -49 -59 -131q-29 -67 -52 -134q-24 -69 -25 -103q-5 -30 12 -63t52 -35q56 -1 103 26t88 61t85 61q45 28 92 28q21 0 27 -20q6 -22 2 -37
q-16 -50 -69 -96q-56 -49 -114 -84q-64 -38 -127 -60t-106 -22q-55 0 -86 20q-34 22 -51 54q-19 37 -25 78t-4 89z" />
    <glyph glyph-name="iacute" unicode="&#xed;" horiz-adv-x="512" 
d="M510 1073q-11 -35 -43 -67q-29 -29 -55 -62q-7 -8 -25.5 -28.5t-25.5 -29.5q-19 -24 -42 -9q-4 6 -16 13t-4 30q7 32 31 88q22 51 50 101q27 48 55 79q27 30 46 18q30 -19 34 -50q5 -35 1 -60zM12 225q0 4 4 22t7 33q7 40 21 97q4 16 9 35.5t11 43.5t9 37q17 70 32 111
q18 51 36 84t35 33q4 0 9 -8t10 -8q7 0 14 9q5 6 18 19q14 14 22 20q12 9 25 9q27 0 39 -28t2 -46q-16 -32 -46 -95q-23 -49 -59 -131q-29 -67 -52 -134q-24 -69 -25 -103q-5 -30 12 -63t52 -35q56 -1 103 26t88 61t85 61q45 28 92 28q21 0 27 -20q6 -22 2 -37
q-16 -50 -69 -96q-56 -49 -114 -84q-64 -38 -127 -60t-106 -22q-55 0 -86 20q-34 22 -51 54q-19 37 -25 78t-4 89z" />
    <glyph glyph-name="icircumflex" unicode="&#xee;" horiz-adv-x="512" 
d="M174 891q-11 -13 -19 -14q-18 -3 -20 -3q-23 0 -41 16q-16 15 -18 40q-2 27 10 39q19 24 36 35q12 8 34 24q26 18 44 36q17 17 33 46q9 18 9 27q-2 6 9 13t27 10q13 3 29 1q14 -1 21 -10l34 -70q5 -9 19 -37t22 -43q21 -40 43 -47q25 -17 25 -39q2 -17 -8 -29
q-10 -13 -31 -7q-49 16 -82 57q-30 37 -53 78q-14 -19 -35 -40q-18 -18 -39 -36zM12 225q0 4 4 22t7 33q7 40 21 97q4 16 9 35.5t11 43.5t9 37q17 70 32 111q18 51 36 84t35 33q4 0 9 -8t10 -8q7 0 14 9q5 6 18 19q14 14 22 20q12 9 25 9q27 0 39 -28t2 -46q-16 -32 -46 -95
q-23 -49 -59 -131q-29 -67 -52 -134q-24 -69 -25 -103q-5 -30 12 -63t52 -35q56 -1 103 26t88 61t85 61q45 28 92 28q21 0 27 -20q6 -22 2 -37q-16 -50 -69 -96q-56 -49 -114 -84q-64 -38 -127 -60t-106 -22q-55 0 -86 20q-34 22 -51 54q-19 37 -25 78t-4 89z" />
    </font>
</defs>
</svg>
